  0
SECTION
  2
HEADER
  9
$ACADVER
  1
AC1009
  9
$EXTMIN
 10
0.0
 20
0.0
 30
0.0
  9
$EXTMAX
 10
1000.0
 20
1000.0
 30
0.0
  9
$FILLMODE
 70
 0
  9
$SPLFRAME
 70
 1
  0
ENDSEC
  0
SECTION
  2
TABLES
  0
TABLE
  2
LAYER
 70
1
  0
LAYER
  2
0
 70
     0
 62
     7
  6
CONTINUOUS
  0
ENDTAB
  0
ENDSEC
  0
SECTION
  2
ENTITIES
  0
LINE
  8
0
 62
     0
 10
242.696
 20
113.342
 30
0.0
 11
243.009
 21
113.331
 31
0.0
  0
LINE
  8
0
 62
     0
 10
243.009
 20
113.331
 30
0.0
 11
243.32
 21
113.294
 31
0.0
  0
LINE
  8
0
 62
     0
 10
243.32
 20
113.294
 30
0.0
 11
243.629
 21
113.232
 31
0.0
  0
LINE
  8
0
 62
     0
 10
243.629
 20
113.232
 30
0.0
 11
243.932
 21
113.148
 31
0.0
  0
LINE
  8
0
 62
     0
 10
243.932
 20
113.148
 30
0.0
 11
244.226
 21
113.039
 31
0.0
  0
LINE
  8
0
 62
     0
 10
244.226
 20
113.039
 30
0.0
 11
244.511
 21
112.908
 31
0.0
  0
LINE
  8
0
 62
     0
 10
244.511
 20
112.908
 30
0.0
 11
244.785
 21
112.754
 31
0.0
  0
LINE
  8
0
 62
     0
 10
244.785
 20
112.754
 30
0.0
 11
245.047
 21
112.58
 31
0.0
  0
LINE
  8
0
 62
     0
 10
245.047
 20
112.58
 30
0.0
 11
245.292
 21
112.384
 31
0.0
  0
LINE
  8
0
 62
     0
 10
245.292
 20
112.384
 30
0.0
 11
245.524
 21
112.171
 31
0.0
  0
LINE
  8
0
 62
     0
 10
245.524
 20
112.171
 30
0.0
 11
245.737
 21
111.941
 31
0.0
  0
LINE
  8
0
 62
     0
 10
245.737
 20
111.941
 30
0.0
 11
245.932
 21
111.694
 31
0.0
  0
LINE
  8
0
 62
     0
 10
245.932
 20
111.694
 30
0.0
 11
246.105
 21
111.432
 31
0.0
  0
LINE
  8
0
 62
     0
 10
246.105
 20
111.432
 30
0.0
 11
246.26
 21
111.158
 31
0.0
  0
LINE
  8
0
 62
     0
 10
246.26
 20
111.158
 30
0.0
 11
246.391
 21
110.874
 31
0.0
  0
LINE
  8
0
 62
     0
 10
246.391
 20
110.874
 30
0.0
 11
246.499
 21
110.579
 31
0.0
  0
LINE
  8
0
 62
     0
 10
246.499
 20
110.579
 30
0.0
 11
246.585
 21
110.276
 31
0.0
  0
LINE
  8
0
 62
     0
 10
246.585
 20
110.276
 30
0.0
 11
246.645
 21
109.969
 31
0.0
  0
LINE
  8
0
 62
     0
 10
246.645
 20
109.969
 30
0.0
 11
246.683
 21
109.656
 31
0.0
  0
LINE
  8
0
 62
     0
 10
246.683
 20
109.656
 30
0.0
 11
246.695
 21
109.343
 31
0.0
  0
LINE
  8
0
 62
     0
 10
246.695
 20
109.343
 30
0.0
 11
246.696
 21
4.09279
 31
0.0
  0
LINE
  8
0
 62
     0
 10
246.696
 20
4.09279
 30
0.0
 11
246.683
 21
3.77857
 31
0.0
  0
LINE
  8
0
 62
     0
 10
246.683
 20
3.77857
 30
0.0
 11
246.645
 21
3.46715
 31
0.0
  0
LINE
  8
0
 62
     0
 10
246.645
 20
3.46715
 30
0.0
 11
246.585
 21
3.15847
 31
0.0
  0
LINE
  8
0
 62
     0
 10
246.585
 20
3.15847
 30
0.0
 11
246.499
 21
2.8553
 31
0.0
  0
LINE
  8
0
 62
     0
 10
246.499
 20
2.8553
 30
0.0
 11
246.391
 21
2.56177
 31
0.0
  0
LINE
  8
0
 62
     0
 10
246.391
 20
2.56177
 30
0.0
 11
246.26
 21
2.27652
 31
0.0
  0
LINE
  8
0
 62
     0
 10
246.26
 20
2.27652
 30
0.0
 11
246.105
 21
2.00229
 31
0.0
  0
LINE
  8
0
 62
     0
 10
246.105
 20
2.00229
 30
0.0
 11
245.932
 21
1.74046
 31
0.0
  0
LINE
  8
0
 62
     0
 10
245.932
 20
1.74046
 30
0.0
 11
245.737
 21
1.49517
 31
0.0
  0
LINE
  8
0
 62
     0
 10
245.737
 20
1.49517
 30
0.0
 11
245.524
 21
1.26366
 31
0.0
  0
LINE
  8
0
 62
     0
 10
245.524
 20
1.26366
 30
0.0
 11
245.292
 21
1.05006
 31
0.0
  0
LINE
  8
0
 62
     0
 10
245.292
 20
1.05006
 30
0.0
 11
245.047
 21
0.855761
 31
0.0
  0
LINE
  8
0
 62
     0
 10
245.047
 20
0.855761
 30
0.0
 11
244.785
 21
0.682128
 31
0.0
  0
LINE
  8
0
 62
     0
 10
244.785
 20
0.682128
 30
0.0
 11
244.511
 21
0.527787
 31
0.0
  0
LINE
  8
0
 62
     0
 10
244.511
 20
0.527787
 30
0.0
 11
244.226
 21
0.396875
 31
0.0
  0
LINE
  8
0
 62
     0
 10
244.226
 20
0.396875
 30
0.0
 11
243.932
 21
0.28801
 31
0.0
  0
LINE
  8
0
 62
     0
 10
243.932
 20
0.28801
 30
0.0
 11
243.629
 21
0.202572
 31
0.0
  0
LINE
  8
0
 62
     0
 10
243.629
 20
0.202572
 30
0.0
 11
243.32
 21
0.141938
 31
0.0
  0
LINE
  8
0
 62
     0
 10
243.32
 20
0.141938
 30
0.0
 11
243.009
 21
0.104731
 31
0.0
  0
LINE
  8
0
 62
     0
 10
243.009
 20
0.104731
 30
0.0
 11
242.696
 21
0.0909507
 31
0.0
  0
LINE
  8
0
 62
     0
 10
242.696
 20
0.0909507
 30
0.0
 11
4.09416
 21
0.0923286
 31
0.0
  0
LINE
  8
0
 62
     0
 10
4.09416
 20
0.0923286
 30
0.0
 11
3.78135
 21
0.104731
 31
0.0
  0
LINE
  8
0
 62
     0
 10
3.78135
 20
0.104731
 30
0.0
 11
3.46852
 21
0.141938
 31
0.0
  0
LINE
  8
0
 62
     0
 10
3.46852
 20
0.141938
 30
0.0
 11
3.16122
 21
0.202572
 31
0.0
  0
LINE
  8
0
 62
     0
 10
3.16122
 20
0.202572
 30
0.0
 11
2.85805
 21
0.28801
 31
0.0
  0
LINE
  8
0
 62
     0
 10
2.85805
 20
0.28801
 30
0.0
 11
2.56315
 21
0.396875
 31
0.0
  0
LINE
  8
0
 62
     0
 10
2.56315
 20
0.396875
 30
0.0
 11
2.27928
 21
0.527787
 31
0.0
  0
LINE
  8
0
 62
     0
 10
2.27928
 20
0.527787
 30
0.0
 11
2.00504
 21
0.682128
 31
0.0
  0
LINE
  8
0
 62
     0
 10
2.00504
 20
0.682128
 30
0.0
 11
1.74322
 21
0.855761
 31
0.0
  0
LINE
  8
0
 62
     0
 10
1.74322
 20
0.855761
 30
0.0
 11
1.49655
 21
1.05006
 31
0.0
  0
LINE
  8
0
 62
     0
 10
1.49655
 20
1.05006
 30
0.0
 11
1.26642
 21
1.26366
 31
0.0
  0
LINE
  8
0
 62
     0
 10
1.26642
 20
1.26366
 30
0.0
 11
1.05282
 21
1.49517
 31
0.0
  0
LINE
  8
0
 62
     0
 10
1.05282
 20
1.49517
 30
0.0
 11
0.857141
 21
1.74046
 31
0.0
  0
LINE
  8
0
 62
     0
 10
0.857141
 20
1.74046
 30
0.0
 11
0.683507
 21
2.00229
 31
0.0
  0
LINE
  8
0
 62
     0
 10
0.683507
 20
2.00229
 30
0.0
 11
0.529167
 21
2.27652
 31
0.0
  0
LINE
  8
0
 62
     0
 10
0.529167
 20
2.27652
 30
0.0
 11
0.398254
 21
2.56177
 31
0.0
  0
LINE
  8
0
 62
     0
 10
0.398254
 20
2.56177
 30
0.0
 11
0.289388
 21
2.8553
 31
0.0
  0
LINE
  8
0
 62
     0
 10
0.289388
 20
2.8553
 30
0.0
 11
0.205328
 21
3.15847
 31
0.0
  0
LINE
  8
0
 62
     0
 10
0.205328
 20
3.15847
 30
0.0
 11
0.143316
 21
3.46715
 31
0.0
  0
LINE
  8
0
 62
     0
 10
0.143316
 20
3.46715
 30
0.0
 11
0.106109
 21
3.77857
 31
0.0
  0
LINE
  8
0
 62
     0
 10
0.106109
 20
3.77857
 30
0.0
 11
0.0937066
 21
4.09279
 31
0.0
  0
LINE
  8
0
 62
     0
 10
0.0937066
 20
4.09279
 30
0.0
 11
0.0950846
 21
109.343
 31
0.0
  0
LINE
  8
0
 62
     0
 10
0.0950846
 20
109.343
 30
0.0
 11
0.106109
 21
109.656
 31
0.0
  0
LINE
  8
0
 62
     0
 10
0.106109
 20
109.656
 30
0.0
 11
0.143316
 21
109.969
 31
0.0
  0
LINE
  8
0
 62
     0
 10
0.143316
 20
109.969
 30
0.0
 11
0.205328
 21
110.276
 31
0.0
  0
LINE
  8
0
 62
     0
 10
0.205328
 20
110.276
 30
0.0
 11
0.289388
 21
110.579
 31
0.0
  0
LINE
  8
0
 62
     0
 10
0.289388
 20
110.579
 30
0.0
 11
0.398254
 21
110.874
 31
0.0
  0
LINE
  8
0
 62
     0
 10
0.398254
 20
110.874
 30
0.0
 11
0.529167
 21
111.158
 31
0.0
  0
LINE
  8
0
 62
     0
 10
0.529167
 20
111.158
 30
0.0
 11
0.683507
 21
111.432
 31
0.0
  0
LINE
  8
0
 62
     0
 10
0.683507
 20
111.432
 30
0.0
 11
0.857141
 21
111.694
 31
0.0
  0
LINE
  8
0
 62
     0
 10
0.857141
 20
111.694
 30
0.0
 11
1.05282
 21
111.941
 31
0.0
  0
LINE
  8
0
 62
     0
 10
1.05282
 20
111.941
 30
0.0
 11
1.26642
 21
112.171
 31
0.0
  0
LINE
  8
0
 62
     0
 10
1.26642
 20
112.171
 30
0.0
 11
1.49655
 21
112.384
 31
0.0
  0
LINE
  8
0
 62
     0
 10
1.49655
 20
112.384
 30
0.0
 11
1.74322
 21
112.58
 31
0.0
  0
LINE
  8
0
 62
     0
 10
1.74322
 20
112.58
 30
0.0
 11
2.00504
 21
112.754
 31
0.0
  0
LINE
  8
0
 62
     0
 10
2.00504
 20
112.754
 30
0.0
 11
2.27928
 21
112.908
 31
0.0
  0
LINE
  8
0
 62
     0
 10
2.27928
 20
112.908
 30
0.0
 11
2.56315
 21
113.039
 31
0.0
  0
LINE
  8
0
 62
     0
 10
2.56315
 20
113.039
 30
0.0
 11
2.85805
 21
113.148
 31
0.0
  0
LINE
  8
0
 62
     0
 10
2.85805
 20
113.148
 30
0.0
 11
3.16122
 21
113.232
 31
0.0
  0
LINE
  8
0
 62
     0
 10
3.16122
 20
113.232
 30
0.0
 11
3.46852
 21
113.294
 31
0.0
  0
LINE
  8
0
 62
     0
 10
3.46852
 20
113.294
 30
0.0
 11
3.78135
 21
113.331
 31
0.0
  0
LINE
  8
0
 62
     0
 10
3.78135
 20
113.331
 30
0.0
 11
4.09416
 21
113.344
 31
0.0
  0
LINE
  8
0
 62
     0
 10
4.09416
 20
113.344
 30
0.0
 11
242.696
 21
113.342
 31
0.0
  0
ENDSEC
  0
EOF
