  0
SECTION
  2
HEADER
  9
$ACADVER
  1
AC1009
  9
$EXTMIN
 10
0.0
 20
0.0
 30
0.0
  9
$EXTMAX
 10
1000.0
 20
1000.0
 30
0.0
  9
$FILLMODE
 70
 0
  9
$SPLFRAME
 70
 1
  0
ENDSEC
  0
SECTION
  2
TABLES
  0
TABLE
  2
LAYER
 70
1
  0
LAYER
  2
0
 70
     0
 62
     7
  6
CONTINUOUS
  0
ENDTAB
  0
ENDSEC
  0
SECTION
  2
ENTITIES
  0
LINE
  8
0
 62
     0
 10
242.696
 20
113.342
 30
0.0
 11
243.009
 21
113.331
 31
0.0
  0
LINE
  8
0
 62
     0
 10
243.009
 20
113.331
 30
0.0
 11
243.32
 21
113.294
 31
0.0
  0
LINE
  8
0
 62
     0
 10
243.32
 20
113.294
 30
0.0
 11
243.629
 21
113.232
 31
0.0
  0
LINE
  8
0
 62
     0
 10
243.629
 20
113.232
 30
0.0
 11
243.932
 21
113.148
 31
0.0
  0
LINE
  8
0
 62
     0
 10
243.932
 20
113.148
 30
0.0
 11
244.226
 21
113.039
 31
0.0
  0
LINE
  8
0
 62
     0
 10
244.226
 20
113.039
 30
0.0
 11
244.511
 21
112.908
 31
0.0
  0
LINE
  8
0
 62
     0
 10
244.511
 20
112.908
 30
0.0
 11
244.785
 21
112.754
 31
0.0
  0
LINE
  8
0
 62
     0
 10
244.785
 20
112.754
 30
0.0
 11
245.047
 21
112.58
 31
0.0
  0
LINE
  8
0
 62
     0
 10
245.047
 20
112.58
 30
0.0
 11
245.292
 21
112.384
 31
0.0
  0
LINE
  8
0
 62
     0
 10
245.292
 20
112.384
 30
0.0
 11
245.524
 21
112.171
 31
0.0
  0
LINE
  8
0
 62
     0
 10
245.524
 20
112.171
 30
0.0
 11
245.737
 21
111.941
 31
0.0
  0
LINE
  8
0
 62
     0
 10
245.737
 20
111.941
 30
0.0
 11
245.932
 21
111.694
 31
0.0
  0
LINE
  8
0
 62
     0
 10
245.932
 20
111.694
 30
0.0
 11
246.105
 21
111.432
 31
0.0
  0
LINE
  8
0
 62
     0
 10
246.105
 20
111.432
 30
0.0
 11
246.26
 21
111.158
 31
0.0
  0
LINE
  8
0
 62
     0
 10
246.26
 20
111.158
 30
0.0
 11
246.391
 21
110.874
 31
0.0
  0
LINE
  8
0
 62
     0
 10
246.391
 20
110.874
 30
0.0
 11
246.499
 21
110.579
 31
0.0
  0
LINE
  8
0
 62
     0
 10
246.499
 20
110.579
 30
0.0
 11
246.585
 21
110.276
 31
0.0
  0
LINE
  8
0
 62
     0
 10
246.585
 20
110.276
 30
0.0
 11
246.645
 21
109.969
 31
0.0
  0
LINE
  8
0
 62
     0
 10
246.645
 20
109.969
 30
0.0
 11
246.683
 21
109.656
 31
0.0
  0
LINE
  8
0
 62
     0
 10
246.683
 20
109.656
 30
0.0
 11
246.695
 21
109.343
 31
0.0
  0
LINE
  8
0
 62
     0
 10
246.695
 20
109.343
 30
0.0
 11
246.696
 21
4.09279
 31
0.0
  0
LINE
  8
0
 62
     0
 10
246.696
 20
4.09279
 30
0.0
 11
246.683
 21
3.77857
 31
0.0
  0
LINE
  8
0
 62
     0
 10
246.683
 20
3.77857
 30
0.0
 11
246.645
 21
3.46715
 31
0.0
  0
LINE
  8
0
 62
     0
 10
246.645
 20
3.46715
 30
0.0
 11
246.585
 21
3.15847
 31
0.0
  0
LINE
  8
0
 62
     0
 10
246.585
 20
3.15847
 30
0.0
 11
246.499
 21
2.8553
 31
0.0
  0
LINE
  8
0
 62
     0
 10
246.499
 20
2.8553
 30
0.0
 11
246.391
 21
2.56177
 31
0.0
  0
LINE
  8
0
 62
     0
 10
246.391
 20
2.56177
 30
0.0
 11
246.26
 21
2.27652
 31
0.0
  0
LINE
  8
0
 62
     0
 10
246.26
 20
2.27652
 30
0.0
 11
246.105
 21
2.00229
 31
0.0
  0
LINE
  8
0
 62
     0
 10
246.105
 20
2.00229
 30
0.0
 11
245.932
 21
1.74046
 31
0.0
  0
LINE
  8
0
 62
     0
 10
245.932
 20
1.74046
 30
0.0
 11
245.737
 21
1.49517
 31
0.0
  0
LINE
  8
0
 62
     0
 10
245.737
 20
1.49517
 30
0.0
 11
245.524
 21
1.26366
 31
0.0
  0
LINE
  8
0
 62
     0
 10
245.524
 20
1.26366
 30
0.0
 11
245.292
 21
1.05006
 31
0.0
  0
LINE
  8
0
 62
     0
 10
245.292
 20
1.05006
 30
0.0
 11
245.047
 21
0.855761
 31
0.0
  0
LINE
  8
0
 62
     0
 10
245.047
 20
0.855761
 30
0.0
 11
244.785
 21
0.682128
 31
0.0
  0
LINE
  8
0
 62
     0
 10
244.785
 20
0.682128
 30
0.0
 11
244.511
 21
0.527787
 31
0.0
  0
LINE
  8
0
 62
     0
 10
244.511
 20
0.527787
 30
0.0
 11
244.226
 21
0.396875
 31
0.0
  0
LINE
  8
0
 62
     0
 10
244.226
 20
0.396875
 30
0.0
 11
243.932
 21
0.28801
 31
0.0
  0
LINE
  8
0
 62
     0
 10
243.932
 20
0.28801
 30
0.0
 11
243.629
 21
0.202572
 31
0.0
  0
LINE
  8
0
 62
     0
 10
243.629
 20
0.202572
 30
0.0
 11
243.32
 21
0.141938
 31
0.0
  0
LINE
  8
0
 62
     0
 10
243.32
 20
0.141938
 30
0.0
 11
243.009
 21
0.104731
 31
0.0
  0
LINE
  8
0
 62
     0
 10
243.009
 20
0.104731
 30
0.0
 11
242.696
 21
0.0909507
 31
0.0
  0
LINE
  8
0
 62
     0
 10
242.696
 20
0.0909507
 30
0.0
 11
4.09416
 21
0.0923286
 31
0.0
  0
LINE
  8
0
 62
     0
 10
4.09416
 20
0.0923286
 30
0.0
 11
3.78135
 21
0.104731
 31
0.0
  0
LINE
  8
0
 62
     0
 10
3.78135
 20
0.104731
 30
0.0
 11
3.46852
 21
0.141938
 31
0.0
  0
LINE
  8
0
 62
     0
 10
3.46852
 20
0.141938
 30
0.0
 11
3.16122
 21
0.202572
 31
0.0
  0
LINE
  8
0
 62
     0
 10
3.16122
 20
0.202572
 30
0.0
 11
2.85805
 21
0.28801
 31
0.0
  0
LINE
  8
0
 62
     0
 10
2.85805
 20
0.28801
 30
0.0
 11
2.56315
 21
0.396875
 31
0.0
  0
LINE
  8
0
 62
     0
 10
2.56315
 20
0.396875
 30
0.0
 11
2.27928
 21
0.527787
 31
0.0
  0
LINE
  8
0
 62
     0
 10
2.27928
 20
0.527787
 30
0.0
 11
2.00504
 21
0.682128
 31
0.0
  0
LINE
  8
0
 62
     0
 10
2.00504
 20
0.682128
 30
0.0
 11
1.74322
 21
0.855761
 31
0.0
  0
LINE
  8
0
 62
     0
 10
1.74322
 20
0.855761
 30
0.0
 11
1.49655
 21
1.05006
 31
0.0
  0
LINE
  8
0
 62
     0
 10
1.49655
 20
1.05006
 30
0.0
 11
1.26642
 21
1.26366
 31
0.0
  0
LINE
  8
0
 62
     0
 10
1.26642
 20
1.26366
 30
0.0
 11
1.05282
 21
1.49517
 31
0.0
  0
LINE
  8
0
 62
     0
 10
1.05282
 20
1.49517
 30
0.0
 11
0.857141
 21
1.74046
 31
0.0
  0
LINE
  8
0
 62
     0
 10
0.857141
 20
1.74046
 30
0.0
 11
0.683507
 21
2.00229
 31
0.0
  0
LINE
  8
0
 62
     0
 10
0.683507
 20
2.00229
 30
0.0
 11
0.529167
 21
2.27652
 31
0.0
  0
LINE
  8
0
 62
     0
 10
0.529167
 20
2.27652
 30
0.0
 11
0.398254
 21
2.56177
 31
0.0
  0
LINE
  8
0
 62
     0
 10
0.398254
 20
2.56177
 30
0.0
 11
0.289388
 21
2.8553
 31
0.0
  0
LINE
  8
0
 62
     0
 10
0.289388
 20
2.8553
 30
0.0
 11
0.205328
 21
3.15847
 31
0.0
  0
LINE
  8
0
 62
     0
 10
0.205328
 20
3.15847
 30
0.0
 11
0.143316
 21
3.46715
 31
0.0
  0
LINE
  8
0
 62
     0
 10
0.143316
 20
3.46715
 30
0.0
 11
0.106109
 21
3.77857
 31
0.0
  0
LINE
  8
0
 62
     0
 10
0.106109
 20
3.77857
 30
0.0
 11
0.0937066
 21
4.09279
 31
0.0
  0
LINE
  8
0
 62
     0
 10
0.0937066
 20
4.09279
 30
0.0
 11
0.0950846
 21
109.343
 31
0.0
  0
LINE
  8
0
 62
     0
 10
0.0950846
 20
109.343
 30
0.0
 11
0.106109
 21
109.656
 31
0.0
  0
LINE
  8
0
 62
     0
 10
0.106109
 20
109.656
 30
0.0
 11
0.143316
 21
109.969
 31
0.0
  0
LINE
  8
0
 62
     0
 10
0.143316
 20
109.969
 30
0.0
 11
0.205328
 21
110.276
 31
0.0
  0
LINE
  8
0
 62
     0
 10
0.205328
 20
110.276
 30
0.0
 11
0.289388
 21
110.579
 31
0.0
  0
LINE
  8
0
 62
     0
 10
0.289388
 20
110.579
 30
0.0
 11
0.398254
 21
110.874
 31
0.0
  0
LINE
  8
0
 62
     0
 10
0.398254
 20
110.874
 30
0.0
 11
0.529167
 21
111.158
 31
0.0
  0
LINE
  8
0
 62
     0
 10
0.529167
 20
111.158
 30
0.0
 11
0.683507
 21
111.432
 31
0.0
  0
LINE
  8
0
 62
     0
 10
0.683507
 20
111.432
 30
0.0
 11
0.857141
 21
111.694
 31
0.0
  0
LINE
  8
0
 62
     0
 10
0.857141
 20
111.694
 30
0.0
 11
1.05282
 21
111.941
 31
0.0
  0
LINE
  8
0
 62
     0
 10
1.05282
 20
111.941
 30
0.0
 11
1.26642
 21
112.171
 31
0.0
  0
LINE
  8
0
 62
     0
 10
1.26642
 20
112.171
 30
0.0
 11
1.49655
 21
112.384
 31
0.0
  0
LINE
  8
0
 62
     0
 10
1.49655
 20
112.384
 30
0.0
 11
1.74322
 21
112.58
 31
0.0
  0
LINE
  8
0
 62
     0
 10
1.74322
 20
112.58
 30
0.0
 11
2.00504
 21
112.754
 31
0.0
  0
LINE
  8
0
 62
     0
 10
2.00504
 20
112.754
 30
0.0
 11
2.27928
 21
112.908
 31
0.0
  0
LINE
  8
0
 62
     0
 10
2.27928
 20
112.908
 30
0.0
 11
2.56315
 21
113.039
 31
0.0
  0
LINE
  8
0
 62
     0
 10
2.56315
 20
113.039
 30
0.0
 11
2.85805
 21
113.148
 31
0.0
  0
LINE
  8
0
 62
     0
 10
2.85805
 20
113.148
 30
0.0
 11
3.16122
 21
113.232
 31
0.0
  0
LINE
  8
0
 62
     0
 10
3.16122
 20
113.232
 30
0.0
 11
3.46852
 21
113.294
 31
0.0
  0
LINE
  8
0
 62
     0
 10
3.46852
 20
113.294
 30
0.0
 11
3.78135
 21
113.331
 31
0.0
  0
LINE
  8
0
 62
     0
 10
3.78135
 20
113.331
 30
0.0
 11
4.09416
 21
113.344
 31
0.0
  0
LINE
  8
0
 62
     0
 10
4.09416
 20
113.344
 30
0.0
 11
242.696
 21
113.342
 31
0.0
  0
LINE
  8
0
 62
     0
 10
116.395
 20
25.6177
 30
0.0
 11
116.395
 21
24.6173
 31
0.0
  0
LINE
  8
0
 62
     0
 10
116.395
 20
24.6173
 30
0.0
 11
115.595
 21
24.6173
 31
0.0
  0
LINE
  8
0
 62
     0
 10
115.595
 20
24.6173
 30
0.0
 11
115.595
 21
21.5181
 31
0.0
  0
LINE
  8
0
 62
     0
 10
115.595
 20
21.5181
 30
0.0
 11
116.395
 21
21.5181
 31
0.0
  0
LINE
  8
0
 62
     0
 10
116.395
 20
21.5181
 30
0.0
 11
116.395
 21
20.9173
 31
0.0
  0
LINE
  8
0
 62
     0
 10
116.395
 20
20.9173
 30
0.0
 11
114.869
 21
20.9173
 31
0.0
  0
LINE
  8
0
 62
     0
 10
114.869
 20
20.9173
 30
0.0
 11
114.869
 21
24.1474
 31
0.0
  0
LINE
  8
0
 62
     0
 10
114.869
 20
24.1474
 30
0.0
 11
108.119
 21
24.1474
 31
0.0
  0
LINE
  8
0
 62
     0
 10
108.119
 20
24.1474
 30
0.0
 11
108.119
 21
20.9173
 31
0.0
  0
LINE
  8
0
 62
     0
 10
108.119
 20
20.9173
 30
0.0
 11
107.296
 21
20.9173
 31
0.0
  0
LINE
  8
0
 62
     0
 10
107.296
 20
20.9173
 30
0.0
 11
107.296
 21
18.1171
 31
0.0
  0
LINE
  8
0
 62
     0
 10
107.296
 20
18.1171
 30
0.0
 11
108.119
 21
18.1171
 31
0.0
  0
LINE
  8
0
 62
     0
 10
108.119
 20
18.1171
 30
0.0
 11
108.119
 21
11.8484
 31
0.0
  0
LINE
  8
0
 62
     0
 10
108.119
 20
11.8484
 30
0.0
 11
109.845
 21
11.8484
 31
0.0
  0
LINE
  8
0
 62
     0
 10
109.845
 20
11.8484
 30
0.0
 11
109.845
 21
10.6481
 31
0.0
  0
LINE
  8
0
 62
     0
 10
109.845
 20
10.6481
 30
0.0
 11
113.145
 21
10.6481
 31
0.0
  0
LINE
  8
0
 62
     0
 10
113.145
 20
10.6481
 30
0.0
 11
113.145
 21
11.8484
 31
0.0
  0
LINE
  8
0
 62
     0
 10
113.145
 20
11.8484
 30
0.0
 11
114.869
 21
11.8484
 31
0.0
  0
LINE
  8
0
 62
     0
 10
114.869
 20
11.8484
 30
0.0
 11
114.869
 21
16.3187
 31
0.0
  0
LINE
  8
0
 62
     0
 10
114.869
 20
16.3187
 30
0.0
 11
116.395
 21
16.3187
 31
0.0
  0
LINE
  8
0
 62
     0
 10
116.395
 20
16.3187
 30
0.0
 11
116.395
 21
15.7179
 31
0.0
  0
LINE
  8
0
 62
     0
 10
116.395
 20
15.7179
 30
0.0
 11
115.595
 21
15.7179
 31
0.0
  0
LINE
  8
0
 62
     0
 10
115.595
 20
15.7179
 30
0.0
 11
115.595
 21
12.6173
 31
0.0
  0
LINE
  8
0
 62
     0
 10
115.595
 20
12.6173
 30
0.0
 11
116.395
 21
12.6173
 31
0.0
  0
LINE
  8
0
 62
     0
 10
116.395
 20
12.6173
 30
0.0
 11
116.395
 21
11.6182
 31
0.0
  0
LINE
  8
0
 62
     0
 10
116.395
 20
11.6182
 30
0.0
 11
130.394
 21
11.6182
 31
0.0
  0
LINE
  8
0
 62
     0
 10
130.394
 20
11.6182
 30
0.0
 11
130.394
 21
12.6173
 31
0.0
  0
LINE
  8
0
 62
     0
 10
130.394
 20
12.6173
 30
0.0
 11
131.195
 21
12.6173
 31
0.0
  0
LINE
  8
0
 62
     0
 10
131.195
 20
12.6173
 30
0.0
 11
131.195
 21
15.7179
 31
0.0
  0
LINE
  8
0
 62
     0
 10
131.195
 20
15.7179
 30
0.0
 11
130.394
 21
15.7179
 31
0.0
  0
LINE
  8
0
 62
     0
 10
130.394
 20
15.7179
 30
0.0
 11
130.394
 21
16.3187
 31
0.0
  0
LINE
  8
0
 62
     0
 10
130.394
 20
16.3187
 30
0.0
 11
131.919
 21
16.3187
 31
0.0
  0
LINE
  8
0
 62
     0
 10
131.919
 20
16.3187
 30
0.0
 11
131.919
 21
11.8484
 31
0.0
  0
LINE
  8
0
 62
     0
 10
131.919
 20
11.8484
 30
0.0
 11
133.645
 21
11.8484
 31
0.0
  0
LINE
  8
0
 62
     0
 10
133.645
 20
11.8484
 30
0.0
 11
133.645
 21
10.6481
 31
0.0
  0
LINE
  8
0
 62
     0
 10
133.645
 20
10.6481
 30
0.0
 11
136.945
 21
10.6481
 31
0.0
  0
LINE
  8
0
 62
     0
 10
136.945
 20
10.6481
 30
0.0
 11
136.945
 21
11.8484
 31
0.0
  0
LINE
  8
0
 62
     0
 10
136.945
 20
11.8484
 30
0.0
 11
138.669
 21
11.8484
 31
0.0
  0
LINE
  8
0
 62
     0
 10
138.669
 20
11.8484
 30
0.0
 11
138.669
 21
18.1171
 31
0.0
  0
LINE
  8
0
 62
     0
 10
138.669
 20
18.1171
 30
0.0
 11
139.495
 21
18.1171
 31
0.0
  0
LINE
  8
0
 62
     0
 10
139.495
 20
18.1171
 30
0.0
 11
139.495
 21
20.9173
 31
0.0
  0
LINE
  8
0
 62
     0
 10
139.495
 20
20.9173
 30
0.0
 11
138.669
 21
20.9173
 31
0.0
  0
LINE
  8
0
 62
     0
 10
138.669
 20
20.9173
 30
0.0
 11
138.669
 21
24.1474
 31
0.0
  0
LINE
  8
0
 62
     0
 10
138.669
 20
24.1474
 30
0.0
 11
131.919
 21
24.1474
 31
0.0
  0
LINE
  8
0
 62
     0
 10
131.919
 20
24.1474
 30
0.0
 11
131.919
 21
20.9173
 31
0.0
  0
LINE
  8
0
 62
     0
 10
131.919
 20
20.9173
 30
0.0
 11
130.394
 21
20.9173
 31
0.0
  0
LINE
  8
0
 62
     0
 10
130.394
 20
20.9173
 30
0.0
 11
130.394
 21
21.5181
 31
0.0
  0
LINE
  8
0
 62
     0
 10
130.394
 20
21.5181
 30
0.0
 11
131.195
 21
21.5181
 31
0.0
  0
LINE
  8
0
 62
     0
 10
131.195
 20
21.5181
 30
0.0
 11
131.195
 21
24.6173
 31
0.0
  0
LINE
  8
0
 62
     0
 10
131.195
 20
24.6173
 30
0.0
 11
130.394
 21
24.6173
 31
0.0
  0
LINE
  8
0
 62
     0
 10
130.394
 20
24.6173
 30
0.0
 11
130.394
 21
25.6177
 31
0.0
  0
LINE
  8
0
 62
     0
 10
130.394
 20
25.6177
 30
0.0
 11
116.395
 21
25.6177
 31
0.0
  0
LINE
  8
0
 62
     0
 10
11.6196
 20
25.6177
 30
0.0
 11
11.6196
 21
24.6173
 31
0.0
  0
LINE
  8
0
 62
     0
 10
11.6196
 20
24.6173
 30
0.0
 11
10.819
 21
24.6173
 31
0.0
  0
LINE
  8
0
 62
     0
 10
10.819
 20
24.6173
 30
0.0
 11
10.819
 21
21.5181
 31
0.0
  0
LINE
  8
0
 62
     0
 10
10.819
 20
21.5181
 30
0.0
 11
11.6196
 21
21.5181
 31
0.0
  0
LINE
  8
0
 62
     0
 10
11.6196
 20
21.5181
 30
0.0
 11
11.6196
 21
15.7179
 31
0.0
  0
LINE
  8
0
 62
     0
 10
11.6196
 20
15.7179
 30
0.0
 11
10.819
 21
15.7179
 31
0.0
  0
LINE
  8
0
 62
     0
 10
10.819
 20
15.7179
 30
0.0
 11
10.819
 21
12.6173
 31
0.0
  0
LINE
  8
0
 62
     0
 10
10.819
 20
12.6173
 30
0.0
 11
11.6196
 21
12.6173
 31
0.0
  0
LINE
  8
0
 62
     0
 10
11.6196
 20
12.6173
 30
0.0
 11
11.6196
 21
11.6182
 31
0.0
  0
LINE
  8
0
 62
     0
 10
11.6196
 20
11.6182
 30
0.0
 11
25.6191
 21
11.6182
 31
0.0
  0
LINE
  8
0
 62
     0
 10
25.6191
 20
11.6182
 30
0.0
 11
25.6191
 21
12.6173
 31
0.0
  0
LINE
  8
0
 62
     0
 10
25.6191
 20
12.6173
 30
0.0
 11
26.4197
 21
12.6173
 31
0.0
  0
LINE
  8
0
 62
     0
 10
26.4197
 20
12.6173
 30
0.0
 11
26.4197
 21
15.7179
 31
0.0
  0
LINE
  8
0
 62
     0
 10
26.4197
 20
15.7179
 30
0.0
 11
25.6191
 21
15.7179
 31
0.0
  0
LINE
  8
0
 62
     0
 10
25.6191
 20
15.7179
 30
0.0
 11
25.6191
 21
21.5181
 31
0.0
  0
LINE
  8
0
 62
     0
 10
25.6191
 20
21.5181
 30
0.0
 11
26.4197
 21
21.5181
 31
0.0
  0
LINE
  8
0
 62
     0
 10
26.4197
 20
21.5181
 30
0.0
 11
26.4197
 21
24.6173
 31
0.0
  0
LINE
  8
0
 62
     0
 10
26.4197
 20
24.6173
 30
0.0
 11
25.6191
 21
24.6173
 31
0.0
  0
LINE
  8
0
 62
     0
 10
25.6191
 20
24.6173
 30
0.0
 11
25.6191
 21
25.6177
 31
0.0
  0
LINE
  8
0
 62
     0
 10
25.6191
 20
25.6177
 30
0.0
 11
11.6196
 21
25.6177
 31
0.0
  0
LINE
  8
0
 62
     0
 10
30.6696
 20
25.6177
 30
0.0
 11
30.6696
 21
24.6173
 31
0.0
  0
LINE
  8
0
 62
     0
 10
30.6696
 20
24.6173
 30
0.0
 11
29.8704
 21
24.6173
 31
0.0
  0
LINE
  8
0
 62
     0
 10
29.8704
 20
24.6173
 30
0.0
 11
29.8704
 21
21.5181
 31
0.0
  0
LINE
  8
0
 62
     0
 10
29.8704
 20
21.5181
 30
0.0
 11
30.6696
 21
21.5181
 31
0.0
  0
LINE
  8
0
 62
     0
 10
30.6696
 20
21.5181
 30
0.0
 11
30.6696
 21
15.7179
 31
0.0
  0
LINE
  8
0
 62
     0
 10
30.6696
 20
15.7179
 30
0.0
 11
29.8704
 21
15.7179
 31
0.0
  0
LINE
  8
0
 62
     0
 10
29.8704
 20
15.7179
 30
0.0
 11
29.8704
 21
12.6173
 31
0.0
  0
LINE
  8
0
 62
     0
 10
29.8704
 20
12.6173
 30
0.0
 11
30.6696
 21
12.6173
 31
0.0
  0
LINE
  8
0
 62
     0
 10
30.6696
 20
12.6173
 30
0.0
 11
30.6696
 21
11.6182
 31
0.0
  0
LINE
  8
0
 62
     0
 10
30.6696
 20
11.6182
 30
0.0
 11
44.6691
 21
11.6182
 31
0.0
  0
LINE
  8
0
 62
     0
 10
44.6691
 20
11.6182
 30
0.0
 11
44.6691
 21
12.6173
 31
0.0
  0
LINE
  8
0
 62
     0
 10
44.6691
 20
12.6173
 30
0.0
 11
45.4699
 21
12.6173
 31
0.0
  0
LINE
  8
0
 62
     0
 10
45.4699
 20
12.6173
 30
0.0
 11
45.4699
 21
15.7179
 31
0.0
  0
LINE
  8
0
 62
     0
 10
45.4699
 20
15.7179
 30
0.0
 11
44.6691
 21
15.7179
 31
0.0
  0
LINE
  8
0
 62
     0
 10
44.6691
 20
15.7179
 30
0.0
 11
44.6691
 21
21.5181
 31
0.0
  0
LINE
  8
0
 62
     0
 10
44.6691
 20
21.5181
 30
0.0
 11
45.4699
 21
21.5181
 31
0.0
  0
LINE
  8
0
 62
     0
 10
45.4699
 20
21.5181
 30
0.0
 11
45.4699
 21
24.6173
 31
0.0
  0
LINE
  8
0
 62
     0
 10
45.4699
 20
24.6173
 30
0.0
 11
44.6691
 21
24.6173
 31
0.0
  0
LINE
  8
0
 62
     0
 10
44.6691
 20
24.6173
 30
0.0
 11
44.6691
 21
25.6177
 31
0.0
  0
LINE
  8
0
 62
     0
 10
44.6691
 20
25.6177
 30
0.0
 11
30.6696
 21
25.6177
 31
0.0
  0
LINE
  8
0
 62
     0
 10
49.7198
 20
25.6177
 30
0.0
 11
49.7198
 21
24.6173
 31
0.0
  0
LINE
  8
0
 62
     0
 10
49.7198
 20
24.6173
 30
0.0
 11
48.9204
 21
24.6173
 31
0.0
  0
LINE
  8
0
 62
     0
 10
48.9204
 20
24.6173
 30
0.0
 11
48.9204
 21
21.5181
 31
0.0
  0
LINE
  8
0
 62
     0
 10
48.9204
 20
21.5181
 30
0.0
 11
49.7198
 21
21.5181
 31
0.0
  0
LINE
  8
0
 62
     0
 10
49.7198
 20
21.5181
 30
0.0
 11
49.7198
 21
15.7179
 31
0.0
  0
LINE
  8
0
 62
     0
 10
49.7198
 20
15.7179
 30
0.0
 11
48.9204
 21
15.7179
 31
0.0
  0
LINE
  8
0
 62
     0
 10
48.9204
 20
15.7179
 30
0.0
 11
48.9204
 21
12.6173
 31
0.0
  0
LINE
  8
0
 62
     0
 10
48.9204
 20
12.6173
 30
0.0
 11
49.7198
 21
12.6173
 31
0.0
  0
LINE
  8
0
 62
     0
 10
49.7198
 20
12.6173
 30
0.0
 11
49.7198
 21
11.6182
 31
0.0
  0
LINE
  8
0
 62
     0
 10
49.7198
 20
11.6182
 30
0.0
 11
63.7191
 21
11.6182
 31
0.0
  0
LINE
  8
0
 62
     0
 10
63.7191
 20
11.6182
 30
0.0
 11
63.7191
 21
12.6173
 31
0.0
  0
LINE
  8
0
 62
     0
 10
63.7191
 20
12.6173
 30
0.0
 11
64.5199
 21
12.6173
 31
0.0
  0
LINE
  8
0
 62
     0
 10
64.5199
 20
12.6173
 30
0.0
 11
64.5199
 21
15.7179
 31
0.0
  0
LINE
  8
0
 62
     0
 10
64.5199
 20
15.7179
 30
0.0
 11
63.7191
 21
15.7179
 31
0.0
  0
LINE
  8
0
 62
     0
 10
63.7191
 20
15.7179
 30
0.0
 11
63.7191
 21
21.5181
 31
0.0
  0
LINE
  8
0
 62
     0
 10
63.7191
 20
21.5181
 30
0.0
 11
64.5199
 21
21.5181
 31
0.0
  0
LINE
  8
0
 62
     0
 10
64.5199
 20
21.5181
 30
0.0
 11
64.5199
 21
24.6173
 31
0.0
  0
LINE
  8
0
 62
     0
 10
64.5199
 20
24.6173
 30
0.0
 11
63.7191
 21
24.6173
 31
0.0
  0
LINE
  8
0
 62
     0
 10
63.7191
 20
24.6173
 30
0.0
 11
63.7191
 21
25.6177
 31
0.0
  0
LINE
  8
0
 62
     0
 10
63.7191
 20
25.6177
 30
0.0
 11
49.7198
 21
25.6177
 31
0.0
  0
LINE
  8
0
 62
     0
 10
68.7698
 20
25.6177
 30
0.0
 11
68.7698
 21
24.6173
 31
0.0
  0
LINE
  8
0
 62
     0
 10
68.7698
 20
24.6173
 30
0.0
 11
67.9704
 21
24.6173
 31
0.0
  0
LINE
  8
0
 62
     0
 10
67.9704
 20
24.6173
 30
0.0
 11
67.9704
 21
21.5181
 31
0.0
  0
LINE
  8
0
 62
     0
 10
67.9704
 20
21.5181
 30
0.0
 11
68.7698
 21
21.5181
 31
0.0
  0
LINE
  8
0
 62
     0
 10
68.7698
 20
21.5181
 30
0.0
 11
68.7698
 21
15.7179
 31
0.0
  0
LINE
  8
0
 62
     0
 10
68.7698
 20
15.7179
 30
0.0
 11
67.9704
 21
15.7179
 31
0.0
  0
LINE
  8
0
 62
     0
 10
67.9704
 20
15.7179
 30
0.0
 11
67.9704
 21
12.6173
 31
0.0
  0
LINE
  8
0
 62
     0
 10
67.9704
 20
12.6173
 30
0.0
 11
68.7698
 21
12.6173
 31
0.0
  0
LINE
  8
0
 62
     0
 10
68.7698
 20
12.6173
 30
0.0
 11
68.7698
 21
11.6182
 31
0.0
  0
LINE
  8
0
 62
     0
 10
68.7698
 20
11.6182
 30
0.0
 11
82.7691
 21
11.6182
 31
0.0
  0
LINE
  8
0
 62
     0
 10
82.7691
 20
11.6182
 30
0.0
 11
82.7691
 21
12.6173
 31
0.0
  0
LINE
  8
0
 62
     0
 10
82.7691
 20
12.6173
 30
0.0
 11
83.5699
 21
12.6173
 31
0.0
  0
LINE
  8
0
 62
     0
 10
83.5699
 20
12.6173
 30
0.0
 11
83.5699
 21
15.7179
 31
0.0
  0
LINE
  8
0
 62
     0
 10
83.5699
 20
15.7179
 30
0.0
 11
82.7691
 21
15.7179
 31
0.0
  0
LINE
  8
0
 62
     0
 10
82.7691
 20
15.7179
 30
0.0
 11
82.7691
 21
21.5181
 31
0.0
  0
LINE
  8
0
 62
     0
 10
82.7691
 20
21.5181
 30
0.0
 11
83.5699
 21
21.5181
 31
0.0
  0
LINE
  8
0
 62
     0
 10
83.5699
 20
21.5181
 30
0.0
 11
83.5699
 21
24.6173
 31
0.0
  0
LINE
  8
0
 62
     0
 10
83.5699
 20
24.6173
 30
0.0
 11
82.7691
 21
24.6173
 31
0.0
  0
LINE
  8
0
 62
     0
 10
82.7691
 20
24.6173
 30
0.0
 11
82.7691
 21
25.6177
 31
0.0
  0
LINE
  8
0
 62
     0
 10
82.7691
 20
25.6177
 30
0.0
 11
68.7698
 21
25.6177
 31
0.0
  0
LINE
  8
0
 62
     0
 10
87.8198
 20
25.6177
 30
0.0
 11
87.8198
 21
24.6173
 31
0.0
  0
LINE
  8
0
 62
     0
 10
87.8198
 20
24.6173
 30
0.0
 11
87.0204
 21
24.6173
 31
0.0
  0
LINE
  8
0
 62
     0
 10
87.0204
 20
24.6173
 30
0.0
 11
87.0204
 21
21.5181
 31
0.0
  0
LINE
  8
0
 62
     0
 10
87.0204
 20
21.5181
 30
0.0
 11
87.8198
 21
21.5181
 31
0.0
  0
LINE
  8
0
 62
     0
 10
87.8198
 20
21.5181
 30
0.0
 11
87.8198
 21
15.7179
 31
0.0
  0
LINE
  8
0
 62
     0
 10
87.8198
 20
15.7179
 30
0.0
 11
87.0204
 21
15.7179
 31
0.0
  0
LINE
  8
0
 62
     0
 10
87.0204
 20
15.7179
 30
0.0
 11
87.0204
 21
12.6173
 31
0.0
  0
LINE
  8
0
 62
     0
 10
87.0204
 20
12.6173
 30
0.0
 11
87.8198
 21
12.6173
 31
0.0
  0
LINE
  8
0
 62
     0
 10
87.8198
 20
12.6173
 30
0.0
 11
87.8198
 21
11.6182
 31
0.0
  0
LINE
  8
0
 62
     0
 10
87.8198
 20
11.6182
 30
0.0
 11
101.819
 21
11.6182
 31
0.0
  0
LINE
  8
0
 62
     0
 10
101.819
 20
11.6182
 30
0.0
 11
101.819
 21
12.6173
 31
0.0
  0
LINE
  8
0
 62
     0
 10
101.819
 20
12.6173
 30
0.0
 11
102.618
 21
12.6173
 31
0.0
  0
LINE
  8
0
 62
     0
 10
102.618
 20
12.6173
 30
0.0
 11
102.618
 21
15.7179
 31
0.0
  0
LINE
  8
0
 62
     0
 10
102.618
 20
15.7179
 30
0.0
 11
101.819
 21
15.7179
 31
0.0
  0
LINE
  8
0
 62
     0
 10
101.819
 20
15.7179
 30
0.0
 11
101.819
 21
21.5181
 31
0.0
  0
LINE
  8
0
 62
     0
 10
101.819
 20
21.5181
 30
0.0
 11
102.618
 21
21.5181
 31
0.0
  0
LINE
  8
0
 62
     0
 10
102.618
 20
21.5181
 30
0.0
 11
102.618
 21
24.6173
 31
0.0
  0
LINE
  8
0
 62
     0
 10
102.618
 20
24.6173
 30
0.0
 11
101.819
 21
24.6173
 31
0.0
  0
LINE
  8
0
 62
     0
 10
101.819
 20
24.6173
 30
0.0
 11
101.819
 21
25.6177
 31
0.0
  0
LINE
  8
0
 62
     0
 10
101.819
 20
25.6177
 30
0.0
 11
87.8198
 21
25.6177
 31
0.0
  0
LINE
  8
0
 62
     0
 10
144.97
 20
25.6177
 30
0.0
 11
144.97
 21
24.6173
 31
0.0
  0
LINE
  8
0
 62
     0
 10
144.97
 20
24.6173
 30
0.0
 11
144.17
 21
24.6173
 31
0.0
  0
LINE
  8
0
 62
     0
 10
144.17
 20
24.6173
 30
0.0
 11
144.17
 21
21.5181
 31
0.0
  0
LINE
  8
0
 62
     0
 10
144.17
 20
21.5181
 30
0.0
 11
144.97
 21
21.5181
 31
0.0
  0
LINE
  8
0
 62
     0
 10
144.97
 20
21.5181
 30
0.0
 11
144.97
 21
15.7179
 31
0.0
  0
LINE
  8
0
 62
     0
 10
144.97
 20
15.7179
 30
0.0
 11
144.17
 21
15.7179
 31
0.0
  0
LINE
  8
0
 62
     0
 10
144.17
 20
15.7179
 30
0.0
 11
144.17
 21
12.6173
 31
0.0
  0
LINE
  8
0
 62
     0
 10
144.17
 20
12.6173
 30
0.0
 11
144.97
 21
12.6173
 31
0.0
  0
LINE
  8
0
 62
     0
 10
144.97
 20
12.6173
 30
0.0
 11
144.97
 21
11.6182
 31
0.0
  0
LINE
  8
0
 62
     0
 10
144.97
 20
11.6182
 30
0.0
 11
158.969
 21
11.6182
 31
0.0
  0
LINE
  8
0
 62
     0
 10
158.969
 20
11.6182
 30
0.0
 11
158.969
 21
12.6173
 31
0.0
  0
LINE
  8
0
 62
     0
 10
158.969
 20
12.6173
 30
0.0
 11
159.77
 21
12.6173
 31
0.0
  0
LINE
  8
0
 62
     0
 10
159.77
 20
12.6173
 30
0.0
 11
159.77
 21
15.7179
 31
0.0
  0
LINE
  8
0
 62
     0
 10
159.77
 20
15.7179
 30
0.0
 11
158.969
 21
15.7179
 31
0.0
  0
LINE
  8
0
 62
     0
 10
158.969
 20
15.7179
 30
0.0
 11
158.969
 21
21.5181
 31
0.0
  0
LINE
  8
0
 62
     0
 10
158.969
 20
21.5181
 30
0.0
 11
159.77
 21
21.5181
 31
0.0
  0
LINE
  8
0
 62
     0
 10
159.77
 20
21.5181
 30
0.0
 11
159.77
 21
24.6173
 31
0.0
  0
LINE
  8
0
 62
     0
 10
159.77
 20
24.6173
 30
0.0
 11
158.969
 21
24.6173
 31
0.0
  0
LINE
  8
0
 62
     0
 10
158.969
 20
24.6173
 30
0.0
 11
158.969
 21
25.6177
 31
0.0
  0
LINE
  8
0
 62
     0
 10
158.969
 20
25.6177
 30
0.0
 11
144.97
 21
25.6177
 31
0.0
  0
LINE
  8
0
 62
     0
 10
164.02
 20
25.6177
 30
0.0
 11
164.02
 21
24.6173
 31
0.0
  0
LINE
  8
0
 62
     0
 10
164.02
 20
24.6173
 30
0.0
 11
163.22
 21
24.6173
 31
0.0
  0
LINE
  8
0
 62
     0
 10
163.22
 20
24.6173
 30
0.0
 11
163.22
 21
21.5181
 31
0.0
  0
LINE
  8
0
 62
     0
 10
163.22
 20
21.5181
 30
0.0
 11
164.02
 21
21.5181
 31
0.0
  0
LINE
  8
0
 62
     0
 10
164.02
 20
21.5181
 30
0.0
 11
164.02
 21
15.7179
 31
0.0
  0
LINE
  8
0
 62
     0
 10
164.02
 20
15.7179
 30
0.0
 11
163.22
 21
15.7179
 31
0.0
  0
LINE
  8
0
 62
     0
 10
163.22
 20
15.7179
 30
0.0
 11
163.22
 21
12.6173
 31
0.0
  0
LINE
  8
0
 62
     0
 10
163.22
 20
12.6173
 30
0.0
 11
164.02
 21
12.6173
 31
0.0
  0
LINE
  8
0
 62
     0
 10
164.02
 20
12.6173
 30
0.0
 11
164.02
 21
11.6182
 31
0.0
  0
LINE
  8
0
 62
     0
 10
164.02
 20
11.6182
 30
0.0
 11
178.019
 21
11.6182
 31
0.0
  0
LINE
  8
0
 62
     0
 10
178.019
 20
11.6182
 30
0.0
 11
178.019
 21
12.6173
 31
0.0
  0
LINE
  8
0
 62
     0
 10
178.019
 20
12.6173
 30
0.0
 11
178.82
 21
12.6173
 31
0.0
  0
LINE
  8
0
 62
     0
 10
178.82
 20
12.6173
 30
0.0
 11
178.82
 21
15.7179
 31
0.0
  0
LINE
  8
0
 62
     0
 10
178.82
 20
15.7179
 30
0.0
 11
178.019
 21
15.7179
 31
0.0
  0
LINE
  8
0
 62
     0
 10
178.019
 20
15.7179
 30
0.0
 11
178.019
 21
21.5181
 31
0.0
  0
LINE
  8
0
 62
     0
 10
178.019
 20
21.5181
 30
0.0
 11
178.82
 21
21.5181
 31
0.0
  0
LINE
  8
0
 62
     0
 10
178.82
 20
21.5181
 30
0.0
 11
178.82
 21
24.6173
 31
0.0
  0
LINE
  8
0
 62
     0
 10
178.82
 20
24.6173
 30
0.0
 11
178.019
 21
24.6173
 31
0.0
  0
LINE
  8
0
 62
     0
 10
178.019
 20
24.6173
 30
0.0
 11
178.019
 21
25.6177
 31
0.0
  0
LINE
  8
0
 62
     0
 10
178.019
 20
25.6177
 30
0.0
 11
164.02
 21
25.6177
 31
0.0
  0
LINE
  8
0
 62
     0
 10
183.07
 20
25.6177
 30
0.0
 11
183.07
 21
24.6173
 31
0.0
  0
LINE
  8
0
 62
     0
 10
183.07
 20
24.6173
 30
0.0
 11
182.27
 21
24.6173
 31
0.0
  0
LINE
  8
0
 62
     0
 10
182.27
 20
24.6173
 30
0.0
 11
182.27
 21
21.5181
 31
0.0
  0
LINE
  8
0
 62
     0
 10
182.27
 20
21.5181
 30
0.0
 11
183.07
 21
21.5181
 31
0.0
  0
LINE
  8
0
 62
     0
 10
183.07
 20
21.5181
 30
0.0
 11
183.07
 21
15.7179
 31
0.0
  0
LINE
  8
0
 62
     0
 10
183.07
 20
15.7179
 30
0.0
 11
182.27
 21
15.7179
 31
0.0
  0
LINE
  8
0
 62
     0
 10
182.27
 20
15.7179
 30
0.0
 11
182.27
 21
12.6173
 31
0.0
  0
LINE
  8
0
 62
     0
 10
182.27
 20
12.6173
 30
0.0
 11
183.07
 21
12.6173
 31
0.0
  0
LINE
  8
0
 62
     0
 10
183.07
 20
12.6173
 30
0.0
 11
183.07
 21
11.6182
 31
0.0
  0
LINE
  8
0
 62
     0
 10
183.07
 20
11.6182
 30
0.0
 11
197.069
 21
11.6182
 31
0.0
  0
LINE
  8
0
 62
     0
 10
197.069
 20
11.6182
 30
0.0
 11
197.069
 21
12.6173
 31
0.0
  0
LINE
  8
0
 62
     0
 10
197.069
 20
12.6173
 30
0.0
 11
197.87
 21
12.6173
 31
0.0
  0
LINE
  8
0
 62
     0
 10
197.87
 20
12.6173
 30
0.0
 11
197.87
 21
15.7179
 31
0.0
  0
LINE
  8
0
 62
     0
 10
197.87
 20
15.7179
 30
0.0
 11
197.069
 21
15.7179
 31
0.0
  0
LINE
  8
0
 62
     0
 10
197.069
 20
15.7179
 30
0.0
 11
197.069
 21
21.5181
 31
0.0
  0
LINE
  8
0
 62
     0
 10
197.069
 20
21.5181
 30
0.0
 11
197.87
 21
21.5181
 31
0.0
  0
LINE
  8
0
 62
     0
 10
197.87
 20
21.5181
 30
0.0
 11
197.87
 21
24.6173
 31
0.0
  0
LINE
  8
0
 62
     0
 10
197.87
 20
24.6173
 30
0.0
 11
197.069
 21
24.6173
 31
0.0
  0
LINE
  8
0
 62
     0
 10
197.069
 20
24.6173
 30
0.0
 11
197.069
 21
25.6177
 31
0.0
  0
LINE
  8
0
 62
     0
 10
197.069
 20
25.6177
 30
0.0
 11
183.07
 21
25.6177
 31
0.0
  0
LINE
  8
0
 62
     0
 10
202.12
 20
25.6177
 30
0.0
 11
202.12
 21
24.6173
 31
0.0
  0
LINE
  8
0
 62
     0
 10
202.12
 20
24.6173
 30
0.0
 11
201.32
 21
24.6173
 31
0.0
  0
LINE
  8
0
 62
     0
 10
201.32
 20
24.6173
 30
0.0
 11
201.32
 21
21.5181
 31
0.0
  0
LINE
  8
0
 62
     0
 10
201.32
 20
21.5181
 30
0.0
 11
202.12
 21
21.5181
 31
0.0
  0
LINE
  8
0
 62
     0
 10
202.12
 20
21.5181
 30
0.0
 11
202.12
 21
15.7179
 31
0.0
  0
LINE
  8
0
 62
     0
 10
202.12
 20
15.7179
 30
0.0
 11
201.32
 21
15.7179
 31
0.0
  0
LINE
  8
0
 62
     0
 10
201.32
 20
15.7179
 30
0.0
 11
201.32
 21
12.6173
 31
0.0
  0
LINE
  8
0
 62
     0
 10
201.32
 20
12.6173
 30
0.0
 11
202.12
 21
12.6173
 31
0.0
  0
LINE
  8
0
 62
     0
 10
202.12
 20
12.6173
 30
0.0
 11
202.12
 21
11.6182
 31
0.0
  0
LINE
  8
0
 62
     0
 10
202.12
 20
11.6182
 30
0.0
 11
216.119
 21
11.6182
 31
0.0
  0
LINE
  8
0
 62
     0
 10
216.119
 20
11.6182
 30
0.0
 11
216.119
 21
12.6173
 31
0.0
  0
LINE
  8
0
 62
     0
 10
216.119
 20
12.6173
 30
0.0
 11
216.92
 21
12.6173
 31
0.0
  0
LINE
  8
0
 62
     0
 10
216.92
 20
12.6173
 30
0.0
 11
216.92
 21
15.7179
 31
0.0
  0
LINE
  8
0
 62
     0
 10
216.92
 20
15.7179
 30
0.0
 11
216.119
 21
15.7179
 31
0.0
  0
LINE
  8
0
 62
     0
 10
216.119
 20
15.7179
 30
0.0
 11
216.119
 21
21.5181
 31
0.0
  0
LINE
  8
0
 62
     0
 10
216.119
 20
21.5181
 30
0.0
 11
216.92
 21
21.5181
 31
0.0
  0
LINE
  8
0
 62
     0
 10
216.92
 20
21.5181
 30
0.0
 11
216.92
 21
24.6173
 31
0.0
  0
LINE
  8
0
 62
     0
 10
216.92
 20
24.6173
 30
0.0
 11
216.119
 21
24.6173
 31
0.0
  0
LINE
  8
0
 62
     0
 10
216.119
 20
24.6173
 30
0.0
 11
216.119
 21
25.6177
 31
0.0
  0
LINE
  8
0
 62
     0
 10
216.119
 20
25.6177
 30
0.0
 11
202.12
 21
25.6177
 31
0.0
  0
LINE
  8
0
 62
     0
 10
221.17
 20
25.6177
 30
0.0
 11
221.17
 21
24.6173
 31
0.0
  0
LINE
  8
0
 62
     0
 10
221.17
 20
24.6173
 30
0.0
 11
220.37
 21
24.6173
 31
0.0
  0
LINE
  8
0
 62
     0
 10
220.37
 20
24.6173
 30
0.0
 11
220.37
 21
21.5181
 31
0.0
  0
LINE
  8
0
 62
     0
 10
220.37
 20
21.5181
 30
0.0
 11
221.17
 21
21.5181
 31
0.0
  0
LINE
  8
0
 62
     0
 10
221.17
 20
21.5181
 30
0.0
 11
221.17
 21
15.7179
 31
0.0
  0
LINE
  8
0
 62
     0
 10
221.17
 20
15.7179
 30
0.0
 11
220.37
 21
15.7179
 31
0.0
  0
LINE
  8
0
 62
     0
 10
220.37
 20
15.7179
 30
0.0
 11
220.37
 21
12.6173
 31
0.0
  0
LINE
  8
0
 62
     0
 10
220.37
 20
12.6173
 30
0.0
 11
221.17
 21
12.6173
 31
0.0
  0
LINE
  8
0
 62
     0
 10
221.17
 20
12.6173
 30
0.0
 11
221.17
 21
11.6182
 31
0.0
  0
LINE
  8
0
 62
     0
 10
221.17
 20
11.6182
 30
0.0
 11
235.169
 21
11.6182
 31
0.0
  0
LINE
  8
0
 62
     0
 10
235.169
 20
11.6182
 30
0.0
 11
235.169
 21
12.6173
 31
0.0
  0
LINE
  8
0
 62
     0
 10
235.169
 20
12.6173
 30
0.0
 11
235.97
 21
12.6173
 31
0.0
  0
LINE
  8
0
 62
     0
 10
235.97
 20
12.6173
 30
0.0
 11
235.97
 21
15.7179
 31
0.0
  0
LINE
  8
0
 62
     0
 10
235.97
 20
15.7179
 30
0.0
 11
235.169
 21
15.7179
 31
0.0
  0
LINE
  8
0
 62
     0
 10
235.169
 20
15.7179
 30
0.0
 11
235.169
 21
21.5181
 31
0.0
  0
LINE
  8
0
 62
     0
 10
235.169
 20
21.5181
 30
0.0
 11
235.97
 21
21.5181
 31
0.0
  0
LINE
  8
0
 62
     0
 10
235.97
 20
21.5181
 30
0.0
 11
235.97
 21
24.6173
 31
0.0
  0
LINE
  8
0
 62
     0
 10
235.97
 20
24.6173
 30
0.0
 11
235.169
 21
24.6173
 31
0.0
  0
LINE
  8
0
 62
     0
 10
235.169
 20
24.6173
 30
0.0
 11
235.169
 21
25.6177
 31
0.0
  0
LINE
  8
0
 62
     0
 10
235.169
 20
25.6177
 30
0.0
 11
221.17
 21
25.6177
 31
0.0
  0
LINE
  8
0
 62
     0
 10
11.6196
 20
44.6677
 30
0.0
 11
11.6196
 21
43.6672
 31
0.0
  0
LINE
  8
0
 62
     0
 10
11.6196
 20
43.6672
 30
0.0
 11
10.819
 21
43.6672
 31
0.0
  0
LINE
  8
0
 62
     0
 10
10.819
 20
43.6672
 30
0.0
 11
10.819
 21
40.568
 31
0.0
  0
LINE
  8
0
 62
     0
 10
10.819
 20
40.568
 30
0.0
 11
11.6196
 21
40.568
 31
0.0
  0
LINE
  8
0
 62
     0
 10
11.6196
 20
40.568
 30
0.0
 11
11.6196
 21
34.7679
 31
0.0
  0
LINE
  8
0
 62
     0
 10
11.6196
 20
34.7679
 30
0.0
 11
10.819
 21
34.7679
 31
0.0
  0
LINE
  8
0
 62
     0
 10
10.819
 20
34.7679
 30
0.0
 11
10.819
 21
31.6673
 31
0.0
  0
LINE
  8
0
 62
     0
 10
10.819
 20
31.6673
 30
0.0
 11
11.6196
 21
31.6673
 31
0.0
  0
LINE
  8
0
 62
     0
 10
11.6196
 20
31.6673
 30
0.0
 11
11.6196
 21
30.6682
 31
0.0
  0
LINE
  8
0
 62
     0
 10
11.6196
 20
30.6682
 30
0.0
 11
25.6191
 21
30.6682
 31
0.0
  0
LINE
  8
0
 62
     0
 10
25.6191
 20
30.6682
 30
0.0
 11
25.6191
 21
31.6673
 31
0.0
  0
LINE
  8
0
 62
     0
 10
25.6191
 20
31.6673
 30
0.0
 11
26.4197
 21
31.6673
 31
0.0
  0
LINE
  8
0
 62
     0
 10
26.4197
 20
31.6673
 30
0.0
 11
26.4197
 21
34.7679
 31
0.0
  0
LINE
  8
0
 62
     0
 10
26.4197
 20
34.7679
 30
0.0
 11
25.6191
 21
34.7679
 31
0.0
  0
LINE
  8
0
 62
     0
 10
25.6191
 20
34.7679
 30
0.0
 11
25.6191
 21
40.568
 31
0.0
  0
LINE
  8
0
 62
     0
 10
25.6191
 20
40.568
 30
0.0
 11
26.4197
 21
40.568
 31
0.0
  0
LINE
  8
0
 62
     0
 10
26.4197
 20
40.568
 30
0.0
 11
26.4197
 21
43.6672
 31
0.0
  0
LINE
  8
0
 62
     0
 10
26.4197
 20
43.6672
 30
0.0
 11
25.6191
 21
43.6672
 31
0.0
  0
LINE
  8
0
 62
     0
 10
25.6191
 20
43.6672
 30
0.0
 11
25.6191
 21
44.6677
 31
0.0
  0
LINE
  8
0
 62
     0
 10
25.6191
 20
44.6677
 30
0.0
 11
11.6196
 21
44.6677
 31
0.0
  0
LINE
  8
0
 62
     0
 10
30.6696
 20
44.6677
 30
0.0
 11
30.6696
 21
43.6672
 31
0.0
  0
LINE
  8
0
 62
     0
 10
30.6696
 20
43.6672
 30
0.0
 11
29.8704
 21
43.6672
 31
0.0
  0
LINE
  8
0
 62
     0
 10
29.8704
 20
43.6672
 30
0.0
 11
29.8704
 21
40.568
 31
0.0
  0
LINE
  8
0
 62
     0
 10
29.8704
 20
40.568
 30
0.0
 11
30.6696
 21
40.568
 31
0.0
  0
LINE
  8
0
 62
     0
 10
30.6696
 20
40.568
 30
0.0
 11
30.6696
 21
34.7679
 31
0.0
  0
LINE
  8
0
 62
     0
 10
30.6696
 20
34.7679
 30
0.0
 11
29.8704
 21
34.7679
 31
0.0
  0
LINE
  8
0
 62
     0
 10
29.8704
 20
34.7679
 30
0.0
 11
29.8704
 21
31.6673
 31
0.0
  0
LINE
  8
0
 62
     0
 10
29.8704
 20
31.6673
 30
0.0
 11
30.6696
 21
31.6673
 31
0.0
  0
LINE
  8
0
 62
     0
 10
30.6696
 20
31.6673
 30
0.0
 11
30.6696
 21
30.6682
 31
0.0
  0
LINE
  8
0
 62
     0
 10
30.6696
 20
30.6682
 30
0.0
 11
44.6691
 21
30.6682
 31
0.0
  0
LINE
  8
0
 62
     0
 10
44.6691
 20
30.6682
 30
0.0
 11
44.6691
 21
31.6673
 31
0.0
  0
LINE
  8
0
 62
     0
 10
44.6691
 20
31.6673
 30
0.0
 11
45.4699
 21
31.6673
 31
0.0
  0
LINE
  8
0
 62
     0
 10
45.4699
 20
31.6673
 30
0.0
 11
45.4699
 21
34.7679
 31
0.0
  0
LINE
  8
0
 62
     0
 10
45.4699
 20
34.7679
 30
0.0
 11
44.6691
 21
34.7679
 31
0.0
  0
LINE
  8
0
 62
     0
 10
44.6691
 20
34.7679
 30
0.0
 11
44.6691
 21
40.568
 31
0.0
  0
LINE
  8
0
 62
     0
 10
44.6691
 20
40.568
 30
0.0
 11
45.4699
 21
40.568
 31
0.0
  0
LINE
  8
0
 62
     0
 10
45.4699
 20
40.568
 30
0.0
 11
45.4699
 21
43.6672
 31
0.0
  0
LINE
  8
0
 62
     0
 10
45.4699
 20
43.6672
 30
0.0
 11
44.6691
 21
43.6672
 31
0.0
  0
LINE
  8
0
 62
     0
 10
44.6691
 20
43.6672
 30
0.0
 11
44.6691
 21
44.6677
 31
0.0
  0
LINE
  8
0
 62
     0
 10
44.6691
 20
44.6677
 30
0.0
 11
30.6696
 21
44.6677
 31
0.0
  0
LINE
  8
0
 62
     0
 10
49.7198
 20
44.6677
 30
0.0
 11
49.7198
 21
43.6672
 31
0.0
  0
LINE
  8
0
 62
     0
 10
49.7198
 20
43.6672
 30
0.0
 11
48.9204
 21
43.6672
 31
0.0
  0
LINE
  8
0
 62
     0
 10
48.9204
 20
43.6672
 30
0.0
 11
48.9204
 21
40.568
 31
0.0
  0
LINE
  8
0
 62
     0
 10
48.9204
 20
40.568
 30
0.0
 11
49.7198
 21
40.568
 31
0.0
  0
LINE
  8
0
 62
     0
 10
49.7198
 20
40.568
 30
0.0
 11
49.7198
 21
34.7679
 31
0.0
  0
LINE
  8
0
 62
     0
 10
49.7198
 20
34.7679
 30
0.0
 11
48.9204
 21
34.7679
 31
0.0
  0
LINE
  8
0
 62
     0
 10
48.9204
 20
34.7679
 30
0.0
 11
48.9204
 21
31.6673
 31
0.0
  0
LINE
  8
0
 62
     0
 10
48.9204
 20
31.6673
 30
0.0
 11
49.7198
 21
31.6673
 31
0.0
  0
LINE
  8
0
 62
     0
 10
49.7198
 20
31.6673
 30
0.0
 11
49.7198
 21
30.6682
 31
0.0
  0
LINE
  8
0
 62
     0
 10
49.7198
 20
30.6682
 30
0.0
 11
63.7191
 21
30.6682
 31
0.0
  0
LINE
  8
0
 62
     0
 10
63.7191
 20
30.6682
 30
0.0
 11
63.7191
 21
31.6673
 31
0.0
  0
LINE
  8
0
 62
     0
 10
63.7191
 20
31.6673
 30
0.0
 11
64.5199
 21
31.6673
 31
0.0
  0
LINE
  8
0
 62
     0
 10
64.5199
 20
31.6673
 30
0.0
 11
64.5199
 21
34.7679
 31
0.0
  0
LINE
  8
0
 62
     0
 10
64.5199
 20
34.7679
 30
0.0
 11
63.7191
 21
34.7679
 31
0.0
  0
LINE
  8
0
 62
     0
 10
63.7191
 20
34.7679
 30
0.0
 11
63.7191
 21
40.568
 31
0.0
  0
LINE
  8
0
 62
     0
 10
63.7191
 20
40.568
 30
0.0
 11
64.5199
 21
40.568
 31
0.0
  0
LINE
  8
0
 62
     0
 10
64.5199
 20
40.568
 30
0.0
 11
64.5199
 21
43.6672
 31
0.0
  0
LINE
  8
0
 62
     0
 10
64.5199
 20
43.6672
 30
0.0
 11
63.7191
 21
43.6672
 31
0.0
  0
LINE
  8
0
 62
     0
 10
63.7191
 20
43.6672
 30
0.0
 11
63.7191
 21
44.6677
 31
0.0
  0
LINE
  8
0
 62
     0
 10
63.7191
 20
44.6677
 30
0.0
 11
49.7198
 21
44.6677
 31
0.0
  0
LINE
  8
0
 62
     0
 10
68.7698
 20
44.6677
 30
0.0
 11
68.7698
 21
43.6672
 31
0.0
  0
LINE
  8
0
 62
     0
 10
68.7698
 20
43.6672
 30
0.0
 11
67.9704
 21
43.6672
 31
0.0
  0
LINE
  8
0
 62
     0
 10
67.9704
 20
43.6672
 30
0.0
 11
67.9704
 21
40.568
 31
0.0
  0
LINE
  8
0
 62
     0
 10
67.9704
 20
40.568
 30
0.0
 11
68.7698
 21
40.568
 31
0.0
  0
LINE
  8
0
 62
     0
 10
68.7698
 20
40.568
 30
0.0
 11
68.7698
 21
34.7679
 31
0.0
  0
LINE
  8
0
 62
     0
 10
68.7698
 20
34.7679
 30
0.0
 11
67.9704
 21
34.7679
 31
0.0
  0
LINE
  8
0
 62
     0
 10
67.9704
 20
34.7679
 30
0.0
 11
67.9704
 21
31.6673
 31
0.0
  0
LINE
  8
0
 62
     0
 10
67.9704
 20
31.6673
 30
0.0
 11
68.7698
 21
31.6673
 31
0.0
  0
LINE
  8
0
 62
     0
 10
68.7698
 20
31.6673
 30
0.0
 11
68.7698
 21
30.6682
 31
0.0
  0
LINE
  8
0
 62
     0
 10
68.7698
 20
30.6682
 30
0.0
 11
82.7691
 21
30.6682
 31
0.0
  0
LINE
  8
0
 62
     0
 10
82.7691
 20
30.6682
 30
0.0
 11
82.7691
 21
31.6673
 31
0.0
  0
LINE
  8
0
 62
     0
 10
82.7691
 20
31.6673
 30
0.0
 11
83.5699
 21
31.6673
 31
0.0
  0
LINE
  8
0
 62
     0
 10
83.5699
 20
31.6673
 30
0.0
 11
83.5699
 21
34.7679
 31
0.0
  0
LINE
  8
0
 62
     0
 10
83.5699
 20
34.7679
 30
0.0
 11
82.7691
 21
34.7679
 31
0.0
  0
LINE
  8
0
 62
     0
 10
82.7691
 20
34.7679
 30
0.0
 11
82.7691
 21
40.568
 31
0.0
  0
LINE
  8
0
 62
     0
 10
82.7691
 20
40.568
 30
0.0
 11
83.5699
 21
40.568
 31
0.0
  0
LINE
  8
0
 62
     0
 10
83.5699
 20
40.568
 30
0.0
 11
83.5699
 21
43.6672
 31
0.0
  0
LINE
  8
0
 62
     0
 10
83.5699
 20
43.6672
 30
0.0
 11
82.7691
 21
43.6672
 31
0.0
  0
LINE
  8
0
 62
     0
 10
82.7691
 20
43.6672
 30
0.0
 11
82.7691
 21
44.6677
 31
0.0
  0
LINE
  8
0
 62
     0
 10
82.7691
 20
44.6677
 30
0.0
 11
68.7698
 21
44.6677
 31
0.0
  0
LINE
  8
0
 62
     0
 10
87.8198
 20
44.6677
 30
0.0
 11
87.8198
 21
43.6672
 31
0.0
  0
LINE
  8
0
 62
     0
 10
87.8198
 20
43.6672
 30
0.0
 11
87.0204
 21
43.6672
 31
0.0
  0
LINE
  8
0
 62
     0
 10
87.0204
 20
43.6672
 30
0.0
 11
87.0204
 21
40.568
 31
0.0
  0
LINE
  8
0
 62
     0
 10
87.0204
 20
40.568
 30
0.0
 11
87.8198
 21
40.568
 31
0.0
  0
LINE
  8
0
 62
     0
 10
87.8198
 20
40.568
 30
0.0
 11
87.8198
 21
34.7679
 31
0.0
  0
LINE
  8
0
 62
     0
 10
87.8198
 20
34.7679
 30
0.0
 11
87.0204
 21
34.7679
 31
0.0
  0
LINE
  8
0
 62
     0
 10
87.0204
 20
34.7679
 30
0.0
 11
87.0204
 21
31.6673
 31
0.0
  0
LINE
  8
0
 62
     0
 10
87.0204
 20
31.6673
 30
0.0
 11
87.8198
 21
31.6673
 31
0.0
  0
LINE
  8
0
 62
     0
 10
87.8198
 20
31.6673
 30
0.0
 11
87.8198
 21
30.6682
 31
0.0
  0
LINE
  8
0
 62
     0
 10
87.8198
 20
30.6682
 30
0.0
 11
101.819
 21
30.6682
 31
0.0
  0
LINE
  8
0
 62
     0
 10
101.819
 20
30.6682
 30
0.0
 11
101.819
 21
31.6673
 31
0.0
  0
LINE
  8
0
 62
     0
 10
101.819
 20
31.6673
 30
0.0
 11
102.618
 21
31.6673
 31
0.0
  0
LINE
  8
0
 62
     0
 10
102.618
 20
31.6673
 30
0.0
 11
102.618
 21
34.7679
 31
0.0
  0
LINE
  8
0
 62
     0
 10
102.618
 20
34.7679
 30
0.0
 11
101.819
 21
34.7679
 31
0.0
  0
LINE
  8
0
 62
     0
 10
101.819
 20
34.7679
 30
0.0
 11
101.819
 21
40.568
 31
0.0
  0
LINE
  8
0
 62
     0
 10
101.819
 20
40.568
 30
0.0
 11
102.618
 21
40.568
 31
0.0
  0
LINE
  8
0
 62
     0
 10
102.618
 20
40.568
 30
0.0
 11
102.618
 21
43.6672
 31
0.0
  0
LINE
  8
0
 62
     0
 10
102.618
 20
43.6672
 30
0.0
 11
101.819
 21
43.6672
 31
0.0
  0
LINE
  8
0
 62
     0
 10
101.819
 20
43.6672
 30
0.0
 11
101.819
 21
44.6677
 31
0.0
  0
LINE
  8
0
 62
     0
 10
101.819
 20
44.6677
 30
0.0
 11
87.8198
 21
44.6677
 31
0.0
  0
LINE
  8
0
 62
     0
 10
106.868
 20
44.6677
 30
0.0
 11
106.868
 21
43.6672
 31
0.0
  0
LINE
  8
0
 62
     0
 10
106.868
 20
43.6672
 30
0.0
 11
106.07
 21
43.6672
 31
0.0
  0
LINE
  8
0
 62
     0
 10
106.07
 20
43.6672
 30
0.0
 11
106.07
 21
40.568
 31
0.0
  0
LINE
  8
0
 62
     0
 10
106.07
 20
40.568
 30
0.0
 11
106.868
 21
40.568
 31
0.0
  0
LINE
  8
0
 62
     0
 10
106.868
 20
40.568
 30
0.0
 11
106.868
 21
34.7679
 31
0.0
  0
LINE
  8
0
 62
     0
 10
106.868
 20
34.7679
 30
0.0
 11
106.07
 21
34.7679
 31
0.0
  0
LINE
  8
0
 62
     0
 10
106.07
 20
34.7679
 30
0.0
 11
106.07
 21
31.6673
 31
0.0
  0
LINE
  8
0
 62
     0
 10
106.07
 20
31.6673
 30
0.0
 11
106.868
 21
31.6673
 31
0.0
  0
LINE
  8
0
 62
     0
 10
106.868
 20
31.6673
 30
0.0
 11
106.868
 21
30.6682
 31
0.0
  0
LINE
  8
0
 62
     0
 10
106.868
 20
30.6682
 30
0.0
 11
120.869
 21
30.6682
 31
0.0
  0
LINE
  8
0
 62
     0
 10
120.869
 20
30.6682
 30
0.0
 11
120.869
 21
31.6673
 31
0.0
  0
LINE
  8
0
 62
     0
 10
120.869
 20
31.6673
 30
0.0
 11
121.668
 21
31.6673
 31
0.0
  0
LINE
  8
0
 62
     0
 10
121.668
 20
31.6673
 30
0.0
 11
121.668
 21
34.7679
 31
0.0
  0
LINE
  8
0
 62
     0
 10
121.668
 20
34.7679
 30
0.0
 11
120.869
 21
34.7679
 31
0.0
  0
LINE
  8
0
 62
     0
 10
120.869
 20
34.7679
 30
0.0
 11
120.869
 21
40.568
 31
0.0
  0
LINE
  8
0
 62
     0
 10
120.869
 20
40.568
 30
0.0
 11
121.668
 21
40.568
 31
0.0
  0
LINE
  8
0
 62
     0
 10
121.668
 20
40.568
 30
0.0
 11
121.668
 21
43.6672
 31
0.0
  0
LINE
  8
0
 62
     0
 10
121.668
 20
43.6672
 30
0.0
 11
120.869
 21
43.6672
 31
0.0
  0
LINE
  8
0
 62
     0
 10
120.869
 20
43.6672
 30
0.0
 11
120.869
 21
44.6677
 31
0.0
  0
LINE
  8
0
 62
     0
 10
120.869
 20
44.6677
 30
0.0
 11
106.868
 21
44.6677
 31
0.0
  0
LINE
  8
0
 62
     0
 10
125.918
 20
44.6677
 30
0.0
 11
125.918
 21
43.6672
 31
0.0
  0
LINE
  8
0
 62
     0
 10
125.918
 20
43.6672
 30
0.0
 11
125.119
 21
43.6672
 31
0.0
  0
LINE
  8
0
 62
     0
 10
125.119
 20
43.6672
 30
0.0
 11
125.119
 21
40.568
 31
0.0
  0
LINE
  8
0
 62
     0
 10
125.119
 20
40.568
 30
0.0
 11
125.918
 21
40.568
 31
0.0
  0
LINE
  8
0
 62
     0
 10
125.918
 20
40.568
 30
0.0
 11
125.918
 21
34.7679
 31
0.0
  0
LINE
  8
0
 62
     0
 10
125.918
 20
34.7679
 30
0.0
 11
125.119
 21
34.7679
 31
0.0
  0
LINE
  8
0
 62
     0
 10
125.119
 20
34.7679
 30
0.0
 11
125.119
 21
31.6673
 31
0.0
  0
LINE
  8
0
 62
     0
 10
125.119
 20
31.6673
 30
0.0
 11
125.918
 21
31.6673
 31
0.0
  0
LINE
  8
0
 62
     0
 10
125.918
 20
31.6673
 30
0.0
 11
125.918
 21
30.6682
 31
0.0
  0
LINE
  8
0
 62
     0
 10
125.918
 20
30.6682
 30
0.0
 11
139.919
 21
30.6682
 31
0.0
  0
LINE
  8
0
 62
     0
 10
139.919
 20
30.6682
 30
0.0
 11
139.919
 21
31.6673
 31
0.0
  0
LINE
  8
0
 62
     0
 10
139.919
 20
31.6673
 30
0.0
 11
140.72
 21
31.6673
 31
0.0
  0
LINE
  8
0
 62
     0
 10
140.72
 20
31.6673
 30
0.0
 11
140.72
 21
34.7679
 31
0.0
  0
LINE
  8
0
 62
     0
 10
140.72
 20
34.7679
 30
0.0
 11
139.919
 21
34.7679
 31
0.0
  0
LINE
  8
0
 62
     0
 10
139.919
 20
34.7679
 30
0.0
 11
139.919
 21
40.568
 31
0.0
  0
LINE
  8
0
 62
     0
 10
139.919
 20
40.568
 30
0.0
 11
140.72
 21
40.568
 31
0.0
  0
LINE
  8
0
 62
     0
 10
140.72
 20
40.568
 30
0.0
 11
140.72
 21
43.6672
 31
0.0
  0
LINE
  8
0
 62
     0
 10
140.72
 20
43.6672
 30
0.0
 11
139.919
 21
43.6672
 31
0.0
  0
LINE
  8
0
 62
     0
 10
139.919
 20
43.6672
 30
0.0
 11
139.919
 21
44.6677
 31
0.0
  0
LINE
  8
0
 62
     0
 10
139.919
 20
44.6677
 30
0.0
 11
125.918
 21
44.6677
 31
0.0
  0
LINE
  8
0
 62
     0
 10
144.97
 20
44.6677
 30
0.0
 11
144.97
 21
43.6672
 31
0.0
  0
LINE
  8
0
 62
     0
 10
144.97
 20
43.6672
 30
0.0
 11
144.17
 21
43.6672
 31
0.0
  0
LINE
  8
0
 62
     0
 10
144.17
 20
43.6672
 30
0.0
 11
144.17
 21
40.568
 31
0.0
  0
LINE
  8
0
 62
     0
 10
144.17
 20
40.568
 30
0.0
 11
144.97
 21
40.568
 31
0.0
  0
LINE
  8
0
 62
     0
 10
144.97
 20
40.568
 30
0.0
 11
144.97
 21
34.7679
 31
0.0
  0
LINE
  8
0
 62
     0
 10
144.97
 20
34.7679
 30
0.0
 11
144.17
 21
34.7679
 31
0.0
  0
LINE
  8
0
 62
     0
 10
144.17
 20
34.7679
 30
0.0
 11
144.17
 21
31.6673
 31
0.0
  0
LINE
  8
0
 62
     0
 10
144.17
 20
31.6673
 30
0.0
 11
144.97
 21
31.6673
 31
0.0
  0
LINE
  8
0
 62
     0
 10
144.97
 20
31.6673
 30
0.0
 11
144.97
 21
30.6682
 31
0.0
  0
LINE
  8
0
 62
     0
 10
144.97
 20
30.6682
 30
0.0
 11
158.969
 21
30.6682
 31
0.0
  0
LINE
  8
0
 62
     0
 10
158.969
 20
30.6682
 30
0.0
 11
158.969
 21
31.6673
 31
0.0
  0
LINE
  8
0
 62
     0
 10
158.969
 20
31.6673
 30
0.0
 11
159.77
 21
31.6673
 31
0.0
  0
LINE
  8
0
 62
     0
 10
159.77
 20
31.6673
 30
0.0
 11
159.77
 21
34.7679
 31
0.0
  0
LINE
  8
0
 62
     0
 10
159.77
 20
34.7679
 30
0.0
 11
158.969
 21
34.7679
 31
0.0
  0
LINE
  8
0
 62
     0
 10
158.969
 20
34.7679
 30
0.0
 11
158.969
 21
40.568
 31
0.0
  0
LINE
  8
0
 62
     0
 10
158.969
 20
40.568
 30
0.0
 11
159.77
 21
40.568
 31
0.0
  0
LINE
  8
0
 62
     0
 10
159.77
 20
40.568
 30
0.0
 11
159.77
 21
43.6672
 31
0.0
  0
LINE
  8
0
 62
     0
 10
159.77
 20
43.6672
 30
0.0
 11
158.969
 21
43.6672
 31
0.0
  0
LINE
  8
0
 62
     0
 10
158.969
 20
43.6672
 30
0.0
 11
158.969
 21
44.6677
 31
0.0
  0
LINE
  8
0
 62
     0
 10
158.969
 20
44.6677
 30
0.0
 11
144.97
 21
44.6677
 31
0.0
  0
LINE
  8
0
 62
     0
 10
164.02
 20
44.6677
 30
0.0
 11
164.02
 21
43.6672
 31
0.0
  0
LINE
  8
0
 62
     0
 10
164.02
 20
43.6672
 30
0.0
 11
163.22
 21
43.6672
 31
0.0
  0
LINE
  8
0
 62
     0
 10
163.22
 20
43.6672
 30
0.0
 11
163.22
 21
40.568
 31
0.0
  0
LINE
  8
0
 62
     0
 10
163.22
 20
40.568
 30
0.0
 11
164.02
 21
40.568
 31
0.0
  0
LINE
  8
0
 62
     0
 10
164.02
 20
40.568
 30
0.0
 11
164.02
 21
34.7679
 31
0.0
  0
LINE
  8
0
 62
     0
 10
164.02
 20
34.7679
 30
0.0
 11
163.22
 21
34.7679
 31
0.0
  0
LINE
  8
0
 62
     0
 10
163.22
 20
34.7679
 30
0.0
 11
163.22
 21
31.6673
 31
0.0
  0
LINE
  8
0
 62
     0
 10
163.22
 20
31.6673
 30
0.0
 11
164.02
 21
31.6673
 31
0.0
  0
LINE
  8
0
 62
     0
 10
164.02
 20
31.6673
 30
0.0
 11
164.02
 21
30.6682
 31
0.0
  0
LINE
  8
0
 62
     0
 10
164.02
 20
30.6682
 30
0.0
 11
178.019
 21
30.6682
 31
0.0
  0
LINE
  8
0
 62
     0
 10
178.019
 20
30.6682
 30
0.0
 11
178.019
 21
31.6673
 31
0.0
  0
LINE
  8
0
 62
     0
 10
178.019
 20
31.6673
 30
0.0
 11
178.82
 21
31.6673
 31
0.0
  0
LINE
  8
0
 62
     0
 10
178.82
 20
31.6673
 30
0.0
 11
178.82
 21
34.7679
 31
0.0
  0
LINE
  8
0
 62
     0
 10
178.82
 20
34.7679
 30
0.0
 11
178.019
 21
34.7679
 31
0.0
  0
LINE
  8
0
 62
     0
 10
178.019
 20
34.7679
 30
0.0
 11
178.019
 21
40.568
 31
0.0
  0
LINE
  8
0
 62
     0
 10
178.019
 20
40.568
 30
0.0
 11
178.82
 21
40.568
 31
0.0
  0
LINE
  8
0
 62
     0
 10
178.82
 20
40.568
 30
0.0
 11
178.82
 21
43.6672
 31
0.0
  0
LINE
  8
0
 62
     0
 10
178.82
 20
43.6672
 30
0.0
 11
178.019
 21
43.6672
 31
0.0
  0
LINE
  8
0
 62
     0
 10
178.019
 20
43.6672
 30
0.0
 11
178.019
 21
44.6677
 31
0.0
  0
LINE
  8
0
 62
     0
 10
178.019
 20
44.6677
 30
0.0
 11
164.02
 21
44.6677
 31
0.0
  0
LINE
  8
0
 62
     0
 10
183.07
 20
44.6677
 30
0.0
 11
183.07
 21
43.6672
 31
0.0
  0
LINE
  8
0
 62
     0
 10
183.07
 20
43.6672
 30
0.0
 11
182.27
 21
43.6672
 31
0.0
  0
LINE
  8
0
 62
     0
 10
182.27
 20
43.6672
 30
0.0
 11
182.27
 21
40.568
 31
0.0
  0
LINE
  8
0
 62
     0
 10
182.27
 20
40.568
 30
0.0
 11
183.07
 21
40.568
 31
0.0
  0
LINE
  8
0
 62
     0
 10
183.07
 20
40.568
 30
0.0
 11
183.07
 21
34.7679
 31
0.0
  0
LINE
  8
0
 62
     0
 10
183.07
 20
34.7679
 30
0.0
 11
182.27
 21
34.7679
 31
0.0
  0
LINE
  8
0
 62
     0
 10
182.27
 20
34.7679
 30
0.0
 11
182.27
 21
31.6673
 31
0.0
  0
LINE
  8
0
 62
     0
 10
182.27
 20
31.6673
 30
0.0
 11
183.07
 21
31.6673
 31
0.0
  0
LINE
  8
0
 62
     0
 10
183.07
 20
31.6673
 30
0.0
 11
183.07
 21
30.6682
 31
0.0
  0
LINE
  8
0
 62
     0
 10
183.07
 20
30.6682
 30
0.0
 11
197.069
 21
30.6682
 31
0.0
  0
LINE
  8
0
 62
     0
 10
197.069
 20
30.6682
 30
0.0
 11
197.069
 21
31.6673
 31
0.0
  0
LINE
  8
0
 62
     0
 10
197.069
 20
31.6673
 30
0.0
 11
197.87
 21
31.6673
 31
0.0
  0
LINE
  8
0
 62
     0
 10
197.87
 20
31.6673
 30
0.0
 11
197.87
 21
34.7679
 31
0.0
  0
LINE
  8
0
 62
     0
 10
197.87
 20
34.7679
 30
0.0
 11
197.069
 21
34.7679
 31
0.0
  0
LINE
  8
0
 62
     0
 10
197.069
 20
34.7679
 30
0.0
 11
197.069
 21
40.568
 31
0.0
  0
LINE
  8
0
 62
     0
 10
197.069
 20
40.568
 30
0.0
 11
197.87
 21
40.568
 31
0.0
  0
LINE
  8
0
 62
     0
 10
197.87
 20
40.568
 30
0.0
 11
197.87
 21
43.6672
 31
0.0
  0
LINE
  8
0
 62
     0
 10
197.87
 20
43.6672
 30
0.0
 11
197.069
 21
43.6672
 31
0.0
  0
LINE
  8
0
 62
     0
 10
197.069
 20
43.6672
 30
0.0
 11
197.069
 21
44.6677
 31
0.0
  0
LINE
  8
0
 62
     0
 10
197.069
 20
44.6677
 30
0.0
 11
183.07
 21
44.6677
 31
0.0
  0
LINE
  8
0
 62
     0
 10
202.12
 20
44.6677
 30
0.0
 11
202.12
 21
43.6672
 31
0.0
  0
LINE
  8
0
 62
     0
 10
202.12
 20
43.6672
 30
0.0
 11
201.32
 21
43.6672
 31
0.0
  0
LINE
  8
0
 62
     0
 10
201.32
 20
43.6672
 30
0.0
 11
201.32
 21
40.568
 31
0.0
  0
LINE
  8
0
 62
     0
 10
201.32
 20
40.568
 30
0.0
 11
202.12
 21
40.568
 31
0.0
  0
LINE
  8
0
 62
     0
 10
202.12
 20
40.568
 30
0.0
 11
202.12
 21
34.7679
 31
0.0
  0
LINE
  8
0
 62
     0
 10
202.12
 20
34.7679
 30
0.0
 11
201.32
 21
34.7679
 31
0.0
  0
LINE
  8
0
 62
     0
 10
201.32
 20
34.7679
 30
0.0
 11
201.32
 21
31.6673
 31
0.0
  0
LINE
  8
0
 62
     0
 10
201.32
 20
31.6673
 30
0.0
 11
202.12
 21
31.6673
 31
0.0
  0
LINE
  8
0
 62
     0
 10
202.12
 20
31.6673
 30
0.0
 11
202.12
 21
30.6682
 31
0.0
  0
LINE
  8
0
 62
     0
 10
202.12
 20
30.6682
 30
0.0
 11
216.119
 21
30.6682
 31
0.0
  0
LINE
  8
0
 62
     0
 10
216.119
 20
30.6682
 30
0.0
 11
216.119
 21
31.6673
 31
0.0
  0
LINE
  8
0
 62
     0
 10
216.119
 20
31.6673
 30
0.0
 11
216.92
 21
31.6673
 31
0.0
  0
LINE
  8
0
 62
     0
 10
216.92
 20
31.6673
 30
0.0
 11
216.92
 21
34.7679
 31
0.0
  0
LINE
  8
0
 62
     0
 10
216.92
 20
34.7679
 30
0.0
 11
216.119
 21
34.7679
 31
0.0
  0
LINE
  8
0
 62
     0
 10
216.119
 20
34.7679
 30
0.0
 11
216.119
 21
40.568
 31
0.0
  0
LINE
  8
0
 62
     0
 10
216.119
 20
40.568
 30
0.0
 11
216.92
 21
40.568
 31
0.0
  0
LINE
  8
0
 62
     0
 10
216.92
 20
40.568
 30
0.0
 11
216.92
 21
43.6672
 31
0.0
  0
LINE
  8
0
 62
     0
 10
216.92
 20
43.6672
 30
0.0
 11
216.119
 21
43.6672
 31
0.0
  0
LINE
  8
0
 62
     0
 10
216.119
 20
43.6672
 30
0.0
 11
216.119
 21
44.6677
 31
0.0
  0
LINE
  8
0
 62
     0
 10
216.119
 20
44.6677
 30
0.0
 11
202.12
 21
44.6677
 31
0.0
  0
LINE
  8
0
 62
     0
 10
221.17
 20
44.6677
 30
0.0
 11
221.17
 21
43.6672
 31
0.0
  0
LINE
  8
0
 62
     0
 10
221.17
 20
43.6672
 30
0.0
 11
220.37
 21
43.6672
 31
0.0
  0
LINE
  8
0
 62
     0
 10
220.37
 20
43.6672
 30
0.0
 11
220.37
 21
40.568
 31
0.0
  0
LINE
  8
0
 62
     0
 10
220.37
 20
40.568
 30
0.0
 11
221.17
 21
40.568
 31
0.0
  0
LINE
  8
0
 62
     0
 10
221.17
 20
40.568
 30
0.0
 11
221.17
 21
34.7679
 31
0.0
  0
LINE
  8
0
 62
     0
 10
221.17
 20
34.7679
 30
0.0
 11
220.37
 21
34.7679
 31
0.0
  0
LINE
  8
0
 62
     0
 10
220.37
 20
34.7679
 30
0.0
 11
220.37
 21
31.6673
 31
0.0
  0
LINE
  8
0
 62
     0
 10
220.37
 20
31.6673
 30
0.0
 11
221.17
 21
31.6673
 31
0.0
  0
LINE
  8
0
 62
     0
 10
221.17
 20
31.6673
 30
0.0
 11
221.17
 21
30.6682
 31
0.0
  0
LINE
  8
0
 62
     0
 10
221.17
 20
30.6682
 30
0.0
 11
235.169
 21
30.6682
 31
0.0
  0
LINE
  8
0
 62
     0
 10
235.169
 20
30.6682
 30
0.0
 11
235.169
 21
31.6673
 31
0.0
  0
LINE
  8
0
 62
     0
 10
235.169
 20
31.6673
 30
0.0
 11
235.97
 21
31.6673
 31
0.0
  0
LINE
  8
0
 62
     0
 10
235.97
 20
31.6673
 30
0.0
 11
235.97
 21
34.7679
 31
0.0
  0
LINE
  8
0
 62
     0
 10
235.97
 20
34.7679
 30
0.0
 11
235.169
 21
34.7679
 31
0.0
  0
LINE
  8
0
 62
     0
 10
235.169
 20
34.7679
 30
0.0
 11
235.169
 21
40.568
 31
0.0
  0
LINE
  8
0
 62
     0
 10
235.169
 20
40.568
 30
0.0
 11
235.97
 21
40.568
 31
0.0
  0
LINE
  8
0
 62
     0
 10
235.97
 20
40.568
 30
0.0
 11
235.97
 21
43.6672
 31
0.0
  0
LINE
  8
0
 62
     0
 10
235.97
 20
43.6672
 30
0.0
 11
235.169
 21
43.6672
 31
0.0
  0
LINE
  8
0
 62
     0
 10
235.169
 20
43.6672
 30
0.0
 11
235.169
 21
44.6677
 31
0.0
  0
LINE
  8
0
 62
     0
 10
235.169
 20
44.6677
 30
0.0
 11
221.17
 21
44.6677
 31
0.0
  0
LINE
  8
0
 62
     0
 10
11.6196
 20
63.7177
 30
0.0
 11
11.6196
 21
62.7172
 31
0.0
  0
LINE
  8
0
 62
     0
 10
11.6196
 20
62.7172
 30
0.0
 11
10.819
 21
62.7172
 31
0.0
  0
LINE
  8
0
 62
     0
 10
10.819
 20
62.7172
 30
0.0
 11
10.819
 21
59.618
 31
0.0
  0
LINE
  8
0
 62
     0
 10
10.819
 20
59.618
 30
0.0
 11
11.6196
 21
59.618
 31
0.0
  0
LINE
  8
0
 62
     0
 10
11.6196
 20
59.618
 30
0.0
 11
11.6196
 21
53.818
 31
0.0
  0
LINE
  8
0
 62
     0
 10
11.6196
 20
53.818
 30
0.0
 11
10.819
 21
53.818
 31
0.0
  0
LINE
  8
0
 62
     0
 10
10.819
 20
53.818
 30
0.0
 11
10.819
 21
50.7175
 31
0.0
  0
LINE
  8
0
 62
     0
 10
10.819
 20
50.7175
 30
0.0
 11
11.6196
 21
50.7175
 31
0.0
  0
LINE
  8
0
 62
     0
 10
11.6196
 20
50.7175
 30
0.0
 11
11.6196
 21
49.7184
 31
0.0
  0
LINE
  8
0
 62
     0
 10
11.6196
 20
49.7184
 30
0.0
 11
25.6191
 21
49.7184
 31
0.0
  0
LINE
  8
0
 62
     0
 10
25.6191
 20
49.7184
 30
0.0
 11
25.6191
 21
50.7175
 31
0.0
  0
LINE
  8
0
 62
     0
 10
25.6191
 20
50.7175
 30
0.0
 11
26.4197
 21
50.7175
 31
0.0
  0
LINE
  8
0
 62
     0
 10
26.4197
 20
50.7175
 30
0.0
 11
26.4197
 21
53.818
 31
0.0
  0
LINE
  8
0
 62
     0
 10
26.4197
 20
53.818
 30
0.0
 11
25.6191
 21
53.818
 31
0.0
  0
LINE
  8
0
 62
     0
 10
25.6191
 20
53.818
 30
0.0
 11
25.6191
 21
59.618
 31
0.0
  0
LINE
  8
0
 62
     0
 10
25.6191
 20
59.618
 30
0.0
 11
26.4197
 21
59.618
 31
0.0
  0
LINE
  8
0
 62
     0
 10
26.4197
 20
59.618
 30
0.0
 11
26.4197
 21
62.7172
 31
0.0
  0
LINE
  8
0
 62
     0
 10
26.4197
 20
62.7172
 30
0.0
 11
25.6191
 21
62.7172
 31
0.0
  0
LINE
  8
0
 62
     0
 10
25.6191
 20
62.7172
 30
0.0
 11
25.6191
 21
63.7177
 31
0.0
  0
LINE
  8
0
 62
     0
 10
25.6191
 20
63.7177
 30
0.0
 11
11.6196
 21
63.7177
 31
0.0
  0
LINE
  8
0
 62
     0
 10
30.6696
 20
63.7177
 30
0.0
 11
30.6696
 21
62.7172
 31
0.0
  0
LINE
  8
0
 62
     0
 10
30.6696
 20
62.7172
 30
0.0
 11
29.8704
 21
62.7172
 31
0.0
  0
LINE
  8
0
 62
     0
 10
29.8704
 20
62.7172
 30
0.0
 11
29.8704
 21
59.618
 31
0.0
  0
LINE
  8
0
 62
     0
 10
29.8704
 20
59.618
 30
0.0
 11
30.6696
 21
59.618
 31
0.0
  0
LINE
  8
0
 62
     0
 10
30.6696
 20
59.618
 30
0.0
 11
30.6696
 21
53.818
 31
0.0
  0
LINE
  8
0
 62
     0
 10
30.6696
 20
53.818
 30
0.0
 11
29.8704
 21
53.818
 31
0.0
  0
LINE
  8
0
 62
     0
 10
29.8704
 20
53.818
 30
0.0
 11
29.8704
 21
50.7175
 31
0.0
  0
LINE
  8
0
 62
     0
 10
29.8704
 20
50.7175
 30
0.0
 11
30.6696
 21
50.7175
 31
0.0
  0
LINE
  8
0
 62
     0
 10
30.6696
 20
50.7175
 30
0.0
 11
30.6696
 21
49.7184
 31
0.0
  0
LINE
  8
0
 62
     0
 10
30.6696
 20
49.7184
 30
0.0
 11
44.6691
 21
49.7184
 31
0.0
  0
LINE
  8
0
 62
     0
 10
44.6691
 20
49.7184
 30
0.0
 11
44.6691
 21
50.7175
 31
0.0
  0
LINE
  8
0
 62
     0
 10
44.6691
 20
50.7175
 30
0.0
 11
45.4699
 21
50.7175
 31
0.0
  0
LINE
  8
0
 62
     0
 10
45.4699
 20
50.7175
 30
0.0
 11
45.4699
 21
53.818
 31
0.0
  0
LINE
  8
0
 62
     0
 10
45.4699
 20
53.818
 30
0.0
 11
44.6691
 21
53.818
 31
0.0
  0
LINE
  8
0
 62
     0
 10
44.6691
 20
53.818
 30
0.0
 11
44.6691
 21
59.618
 31
0.0
  0
LINE
  8
0
 62
     0
 10
44.6691
 20
59.618
 30
0.0
 11
45.4699
 21
59.618
 31
0.0
  0
LINE
  8
0
 62
     0
 10
45.4699
 20
59.618
 30
0.0
 11
45.4699
 21
62.7172
 31
0.0
  0
LINE
  8
0
 62
     0
 10
45.4699
 20
62.7172
 30
0.0
 11
44.6691
 21
62.7172
 31
0.0
  0
LINE
  8
0
 62
     0
 10
44.6691
 20
62.7172
 30
0.0
 11
44.6691
 21
63.7177
 31
0.0
  0
LINE
  8
0
 62
     0
 10
44.6691
 20
63.7177
 30
0.0
 11
30.6696
 21
63.7177
 31
0.0
  0
LINE
  8
0
 62
     0
 10
49.7198
 20
63.7177
 30
0.0
 11
49.7198
 21
62.7172
 31
0.0
  0
LINE
  8
0
 62
     0
 10
49.7198
 20
62.7172
 30
0.0
 11
48.9204
 21
62.7172
 31
0.0
  0
LINE
  8
0
 62
     0
 10
48.9204
 20
62.7172
 30
0.0
 11
48.9204
 21
59.618
 31
0.0
  0
LINE
  8
0
 62
     0
 10
48.9204
 20
59.618
 30
0.0
 11
49.7198
 21
59.618
 31
0.0
  0
LINE
  8
0
 62
     0
 10
49.7198
 20
59.618
 30
0.0
 11
49.7198
 21
53.818
 31
0.0
  0
LINE
  8
0
 62
     0
 10
49.7198
 20
53.818
 30
0.0
 11
48.9204
 21
53.818
 31
0.0
  0
LINE
  8
0
 62
     0
 10
48.9204
 20
53.818
 30
0.0
 11
48.9204
 21
50.7175
 31
0.0
  0
LINE
  8
0
 62
     0
 10
48.9204
 20
50.7175
 30
0.0
 11
49.7198
 21
50.7175
 31
0.0
  0
LINE
  8
0
 62
     0
 10
49.7198
 20
50.7175
 30
0.0
 11
49.7198
 21
49.7184
 31
0.0
  0
LINE
  8
0
 62
     0
 10
49.7198
 20
49.7184
 30
0.0
 11
63.7191
 21
49.7184
 31
0.0
  0
LINE
  8
0
 62
     0
 10
63.7191
 20
49.7184
 30
0.0
 11
63.7191
 21
50.7175
 31
0.0
  0
LINE
  8
0
 62
     0
 10
63.7191
 20
50.7175
 30
0.0
 11
64.5199
 21
50.7175
 31
0.0
  0
LINE
  8
0
 62
     0
 10
64.5199
 20
50.7175
 30
0.0
 11
64.5199
 21
53.818
 31
0.0
  0
LINE
  8
0
 62
     0
 10
64.5199
 20
53.818
 30
0.0
 11
63.7191
 21
53.818
 31
0.0
  0
LINE
  8
0
 62
     0
 10
63.7191
 20
53.818
 30
0.0
 11
63.7191
 21
59.618
 31
0.0
  0
LINE
  8
0
 62
     0
 10
63.7191
 20
59.618
 30
0.0
 11
64.5199
 21
59.618
 31
0.0
  0
LINE
  8
0
 62
     0
 10
64.5199
 20
59.618
 30
0.0
 11
64.5199
 21
62.7172
 31
0.0
  0
LINE
  8
0
 62
     0
 10
64.5199
 20
62.7172
 30
0.0
 11
63.7191
 21
62.7172
 31
0.0
  0
LINE
  8
0
 62
     0
 10
63.7191
 20
62.7172
 30
0.0
 11
63.7191
 21
63.7177
 31
0.0
  0
LINE
  8
0
 62
     0
 10
63.7191
 20
63.7177
 30
0.0
 11
49.7198
 21
63.7177
 31
0.0
  0
LINE
  8
0
 62
     0
 10
68.7698
 20
63.7177
 30
0.0
 11
68.7698
 21
62.7172
 31
0.0
  0
LINE
  8
0
 62
     0
 10
68.7698
 20
62.7172
 30
0.0
 11
67.9704
 21
62.7172
 31
0.0
  0
LINE
  8
0
 62
     0
 10
67.9704
 20
62.7172
 30
0.0
 11
67.9704
 21
59.618
 31
0.0
  0
LINE
  8
0
 62
     0
 10
67.9704
 20
59.618
 30
0.0
 11
68.7698
 21
59.618
 31
0.0
  0
LINE
  8
0
 62
     0
 10
68.7698
 20
59.618
 30
0.0
 11
68.7698
 21
53.818
 31
0.0
  0
LINE
  8
0
 62
     0
 10
68.7698
 20
53.818
 30
0.0
 11
67.9704
 21
53.818
 31
0.0
  0
LINE
  8
0
 62
     0
 10
67.9704
 20
53.818
 30
0.0
 11
67.9704
 21
50.7175
 31
0.0
  0
LINE
  8
0
 62
     0
 10
67.9704
 20
50.7175
 30
0.0
 11
68.7698
 21
50.7175
 31
0.0
  0
LINE
  8
0
 62
     0
 10
68.7698
 20
50.7175
 30
0.0
 11
68.7698
 21
49.7184
 31
0.0
  0
LINE
  8
0
 62
     0
 10
68.7698
 20
49.7184
 30
0.0
 11
82.7691
 21
49.7184
 31
0.0
  0
LINE
  8
0
 62
     0
 10
82.7691
 20
49.7184
 30
0.0
 11
82.7691
 21
50.7175
 31
0.0
  0
LINE
  8
0
 62
     0
 10
82.7691
 20
50.7175
 30
0.0
 11
83.5699
 21
50.7175
 31
0.0
  0
LINE
  8
0
 62
     0
 10
83.5699
 20
50.7175
 30
0.0
 11
83.5699
 21
53.818
 31
0.0
  0
LINE
  8
0
 62
     0
 10
83.5699
 20
53.818
 30
0.0
 11
82.7691
 21
53.818
 31
0.0
  0
LINE
  8
0
 62
     0
 10
82.7691
 20
53.818
 30
0.0
 11
82.7691
 21
59.618
 31
0.0
  0
LINE
  8
0
 62
     0
 10
82.7691
 20
59.618
 30
0.0
 11
83.5699
 21
59.618
 31
0.0
  0
LINE
  8
0
 62
     0
 10
83.5699
 20
59.618
 30
0.0
 11
83.5699
 21
62.7172
 31
0.0
  0
LINE
  8
0
 62
     0
 10
83.5699
 20
62.7172
 30
0.0
 11
82.7691
 21
62.7172
 31
0.0
  0
LINE
  8
0
 62
     0
 10
82.7691
 20
62.7172
 30
0.0
 11
82.7691
 21
63.7177
 31
0.0
  0
LINE
  8
0
 62
     0
 10
82.7691
 20
63.7177
 30
0.0
 11
68.7698
 21
63.7177
 31
0.0
  0
LINE
  8
0
 62
     0
 10
87.8198
 20
63.7177
 30
0.0
 11
87.8198
 21
62.7172
 31
0.0
  0
LINE
  8
0
 62
     0
 10
87.8198
 20
62.7172
 30
0.0
 11
87.0204
 21
62.7172
 31
0.0
  0
LINE
  8
0
 62
     0
 10
87.0204
 20
62.7172
 30
0.0
 11
87.0204
 21
59.618
 31
0.0
  0
LINE
  8
0
 62
     0
 10
87.0204
 20
59.618
 30
0.0
 11
87.8198
 21
59.618
 31
0.0
  0
LINE
  8
0
 62
     0
 10
87.8198
 20
59.618
 30
0.0
 11
87.8198
 21
53.818
 31
0.0
  0
LINE
  8
0
 62
     0
 10
87.8198
 20
53.818
 30
0.0
 11
87.0204
 21
53.818
 31
0.0
  0
LINE
  8
0
 62
     0
 10
87.0204
 20
53.818
 30
0.0
 11
87.0204
 21
50.7175
 31
0.0
  0
LINE
  8
0
 62
     0
 10
87.0204
 20
50.7175
 30
0.0
 11
87.8198
 21
50.7175
 31
0.0
  0
LINE
  8
0
 62
     0
 10
87.8198
 20
50.7175
 30
0.0
 11
87.8198
 21
49.7184
 31
0.0
  0
LINE
  8
0
 62
     0
 10
87.8198
 20
49.7184
 30
0.0
 11
101.819
 21
49.7184
 31
0.0
  0
LINE
  8
0
 62
     0
 10
101.819
 20
49.7184
 30
0.0
 11
101.819
 21
50.7175
 31
0.0
  0
LINE
  8
0
 62
     0
 10
101.819
 20
50.7175
 30
0.0
 11
102.618
 21
50.7175
 31
0.0
  0
LINE
  8
0
 62
     0
 10
102.618
 20
50.7175
 30
0.0
 11
102.618
 21
53.818
 31
0.0
  0
LINE
  8
0
 62
     0
 10
102.618
 20
53.818
 30
0.0
 11
101.819
 21
53.818
 31
0.0
  0
LINE
  8
0
 62
     0
 10
101.819
 20
53.818
 30
0.0
 11
101.819
 21
59.618
 31
0.0
  0
LINE
  8
0
 62
     0
 10
101.819
 20
59.618
 30
0.0
 11
102.618
 21
59.618
 31
0.0
  0
LINE
  8
0
 62
     0
 10
102.618
 20
59.618
 30
0.0
 11
102.618
 21
62.7172
 31
0.0
  0
LINE
  8
0
 62
     0
 10
102.618
 20
62.7172
 30
0.0
 11
101.819
 21
62.7172
 31
0.0
  0
LINE
  8
0
 62
     0
 10
101.819
 20
62.7172
 30
0.0
 11
101.819
 21
63.7177
 31
0.0
  0
LINE
  8
0
 62
     0
 10
101.819
 20
63.7177
 30
0.0
 11
87.8198
 21
63.7177
 31
0.0
  0
LINE
  8
0
 62
     0
 10
106.868
 20
63.7177
 30
0.0
 11
106.868
 21
62.7172
 31
0.0
  0
LINE
  8
0
 62
     0
 10
106.868
 20
62.7172
 30
0.0
 11
106.07
 21
62.7172
 31
0.0
  0
LINE
  8
0
 62
     0
 10
106.07
 20
62.7172
 30
0.0
 11
106.07
 21
59.618
 31
0.0
  0
LINE
  8
0
 62
     0
 10
106.07
 20
59.618
 30
0.0
 11
106.868
 21
59.618
 31
0.0
  0
LINE
  8
0
 62
     0
 10
106.868
 20
59.618
 30
0.0
 11
106.868
 21
53.818
 31
0.0
  0
LINE
  8
0
 62
     0
 10
106.868
 20
53.818
 30
0.0
 11
106.07
 21
53.818
 31
0.0
  0
LINE
  8
0
 62
     0
 10
106.07
 20
53.818
 30
0.0
 11
106.07
 21
50.7175
 31
0.0
  0
LINE
  8
0
 62
     0
 10
106.07
 20
50.7175
 30
0.0
 11
106.868
 21
50.7175
 31
0.0
  0
LINE
  8
0
 62
     0
 10
106.868
 20
50.7175
 30
0.0
 11
106.868
 21
49.7184
 31
0.0
  0
LINE
  8
0
 62
     0
 10
106.868
 20
49.7184
 30
0.0
 11
120.869
 21
49.7184
 31
0.0
  0
LINE
  8
0
 62
     0
 10
120.869
 20
49.7184
 30
0.0
 11
120.869
 21
50.7175
 31
0.0
  0
LINE
  8
0
 62
     0
 10
120.869
 20
50.7175
 30
0.0
 11
121.668
 21
50.7175
 31
0.0
  0
LINE
  8
0
 62
     0
 10
121.668
 20
50.7175
 30
0.0
 11
121.668
 21
53.818
 31
0.0
  0
LINE
  8
0
 62
     0
 10
121.668
 20
53.818
 30
0.0
 11
120.869
 21
53.818
 31
0.0
  0
LINE
  8
0
 62
     0
 10
120.869
 20
53.818
 30
0.0
 11
120.869
 21
59.618
 31
0.0
  0
LINE
  8
0
 62
     0
 10
120.869
 20
59.618
 30
0.0
 11
121.668
 21
59.618
 31
0.0
  0
LINE
  8
0
 62
     0
 10
121.668
 20
59.618
 30
0.0
 11
121.668
 21
62.7172
 31
0.0
  0
LINE
  8
0
 62
     0
 10
121.668
 20
62.7172
 30
0.0
 11
120.869
 21
62.7172
 31
0.0
  0
LINE
  8
0
 62
     0
 10
120.869
 20
62.7172
 30
0.0
 11
120.869
 21
63.7177
 31
0.0
  0
LINE
  8
0
 62
     0
 10
120.869
 20
63.7177
 30
0.0
 11
106.868
 21
63.7177
 31
0.0
  0
LINE
  8
0
 62
     0
 10
125.918
 20
63.7177
 30
0.0
 11
125.918
 21
62.7172
 31
0.0
  0
LINE
  8
0
 62
     0
 10
125.918
 20
62.7172
 30
0.0
 11
125.119
 21
62.7172
 31
0.0
  0
LINE
  8
0
 62
     0
 10
125.119
 20
62.7172
 30
0.0
 11
125.119
 21
59.618
 31
0.0
  0
LINE
  8
0
 62
     0
 10
125.119
 20
59.618
 30
0.0
 11
125.918
 21
59.618
 31
0.0
  0
LINE
  8
0
 62
     0
 10
125.918
 20
59.618
 30
0.0
 11
125.918
 21
53.818
 31
0.0
  0
LINE
  8
0
 62
     0
 10
125.918
 20
53.818
 30
0.0
 11
125.119
 21
53.818
 31
0.0
  0
LINE
  8
0
 62
     0
 10
125.119
 20
53.818
 30
0.0
 11
125.119
 21
50.7175
 31
0.0
  0
LINE
  8
0
 62
     0
 10
125.119
 20
50.7175
 30
0.0
 11
125.918
 21
50.7175
 31
0.0
  0
LINE
  8
0
 62
     0
 10
125.918
 20
50.7175
 30
0.0
 11
125.918
 21
49.7184
 31
0.0
  0
LINE
  8
0
 62
     0
 10
125.918
 20
49.7184
 30
0.0
 11
139.919
 21
49.7184
 31
0.0
  0
LINE
  8
0
 62
     0
 10
139.919
 20
49.7184
 30
0.0
 11
139.919
 21
50.7175
 31
0.0
  0
LINE
  8
0
 62
     0
 10
139.919
 20
50.7175
 30
0.0
 11
140.72
 21
50.7175
 31
0.0
  0
LINE
  8
0
 62
     0
 10
140.72
 20
50.7175
 30
0.0
 11
140.72
 21
53.818
 31
0.0
  0
LINE
  8
0
 62
     0
 10
140.72
 20
53.818
 30
0.0
 11
139.919
 21
53.818
 31
0.0
  0
LINE
  8
0
 62
     0
 10
139.919
 20
53.818
 30
0.0
 11
139.919
 21
59.618
 31
0.0
  0
LINE
  8
0
 62
     0
 10
139.919
 20
59.618
 30
0.0
 11
140.72
 21
59.618
 31
0.0
  0
LINE
  8
0
 62
     0
 10
140.72
 20
59.618
 30
0.0
 11
140.72
 21
62.7172
 31
0.0
  0
LINE
  8
0
 62
     0
 10
140.72
 20
62.7172
 30
0.0
 11
139.919
 21
62.7172
 31
0.0
  0
LINE
  8
0
 62
     0
 10
139.919
 20
62.7172
 30
0.0
 11
139.919
 21
63.7177
 31
0.0
  0
LINE
  8
0
 62
     0
 10
139.919
 20
63.7177
 30
0.0
 11
125.918
 21
63.7177
 31
0.0
  0
LINE
  8
0
 62
     0
 10
144.97
 20
63.7177
 30
0.0
 11
144.97
 21
62.7172
 31
0.0
  0
LINE
  8
0
 62
     0
 10
144.97
 20
62.7172
 30
0.0
 11
144.17
 21
62.7172
 31
0.0
  0
LINE
  8
0
 62
     0
 10
144.17
 20
62.7172
 30
0.0
 11
144.17
 21
59.618
 31
0.0
  0
LINE
  8
0
 62
     0
 10
144.17
 20
59.618
 30
0.0
 11
144.97
 21
59.618
 31
0.0
  0
LINE
  8
0
 62
     0
 10
144.97
 20
59.618
 30
0.0
 11
144.97
 21
53.818
 31
0.0
  0
LINE
  8
0
 62
     0
 10
144.97
 20
53.818
 30
0.0
 11
144.17
 21
53.818
 31
0.0
  0
LINE
  8
0
 62
     0
 10
144.17
 20
53.818
 30
0.0
 11
144.17
 21
50.7175
 31
0.0
  0
LINE
  8
0
 62
     0
 10
144.17
 20
50.7175
 30
0.0
 11
144.97
 21
50.7175
 31
0.0
  0
LINE
  8
0
 62
     0
 10
144.97
 20
50.7175
 30
0.0
 11
144.97
 21
49.7184
 31
0.0
  0
LINE
  8
0
 62
     0
 10
144.97
 20
49.7184
 30
0.0
 11
158.969
 21
49.7184
 31
0.0
  0
LINE
  8
0
 62
     0
 10
158.969
 20
49.7184
 30
0.0
 11
158.969
 21
50.7175
 31
0.0
  0
LINE
  8
0
 62
     0
 10
158.969
 20
50.7175
 30
0.0
 11
159.77
 21
50.7175
 31
0.0
  0
LINE
  8
0
 62
     0
 10
159.77
 20
50.7175
 30
0.0
 11
159.77
 21
53.818
 31
0.0
  0
LINE
  8
0
 62
     0
 10
159.77
 20
53.818
 30
0.0
 11
158.969
 21
53.818
 31
0.0
  0
LINE
  8
0
 62
     0
 10
158.969
 20
53.818
 30
0.0
 11
158.969
 21
59.618
 31
0.0
  0
LINE
  8
0
 62
     0
 10
158.969
 20
59.618
 30
0.0
 11
159.77
 21
59.618
 31
0.0
  0
LINE
  8
0
 62
     0
 10
159.77
 20
59.618
 30
0.0
 11
159.77
 21
62.7172
 31
0.0
  0
LINE
  8
0
 62
     0
 10
159.77
 20
62.7172
 30
0.0
 11
158.969
 21
62.7172
 31
0.0
  0
LINE
  8
0
 62
     0
 10
158.969
 20
62.7172
 30
0.0
 11
158.969
 21
63.7177
 31
0.0
  0
LINE
  8
0
 62
     0
 10
158.969
 20
63.7177
 30
0.0
 11
144.97
 21
63.7177
 31
0.0
  0
LINE
  8
0
 62
     0
 10
164.02
 20
63.7177
 30
0.0
 11
164.02
 21
62.7172
 31
0.0
  0
LINE
  8
0
 62
     0
 10
164.02
 20
62.7172
 30
0.0
 11
163.22
 21
62.7172
 31
0.0
  0
LINE
  8
0
 62
     0
 10
163.22
 20
62.7172
 30
0.0
 11
163.22
 21
59.618
 31
0.0
  0
LINE
  8
0
 62
     0
 10
163.22
 20
59.618
 30
0.0
 11
164.02
 21
59.618
 31
0.0
  0
LINE
  8
0
 62
     0
 10
164.02
 20
59.618
 30
0.0
 11
164.02
 21
53.818
 31
0.0
  0
LINE
  8
0
 62
     0
 10
164.02
 20
53.818
 30
0.0
 11
163.22
 21
53.818
 31
0.0
  0
LINE
  8
0
 62
     0
 10
163.22
 20
53.818
 30
0.0
 11
163.22
 21
50.7175
 31
0.0
  0
LINE
  8
0
 62
     0
 10
163.22
 20
50.7175
 30
0.0
 11
164.02
 21
50.7175
 31
0.0
  0
LINE
  8
0
 62
     0
 10
164.02
 20
50.7175
 30
0.0
 11
164.02
 21
49.7184
 31
0.0
  0
LINE
  8
0
 62
     0
 10
164.02
 20
49.7184
 30
0.0
 11
178.019
 21
49.7184
 31
0.0
  0
LINE
  8
0
 62
     0
 10
178.019
 20
49.7184
 30
0.0
 11
178.019
 21
50.7175
 31
0.0
  0
LINE
  8
0
 62
     0
 10
178.019
 20
50.7175
 30
0.0
 11
178.82
 21
50.7175
 31
0.0
  0
LINE
  8
0
 62
     0
 10
178.82
 20
50.7175
 30
0.0
 11
178.82
 21
53.818
 31
0.0
  0
LINE
  8
0
 62
     0
 10
178.82
 20
53.818
 30
0.0
 11
178.019
 21
53.818
 31
0.0
  0
LINE
  8
0
 62
     0
 10
178.019
 20
53.818
 30
0.0
 11
178.019
 21
59.618
 31
0.0
  0
LINE
  8
0
 62
     0
 10
178.019
 20
59.618
 30
0.0
 11
178.82
 21
59.618
 31
0.0
  0
LINE
  8
0
 62
     0
 10
178.82
 20
59.618
 30
0.0
 11
178.82
 21
62.7172
 31
0.0
  0
LINE
  8
0
 62
     0
 10
178.82
 20
62.7172
 30
0.0
 11
178.019
 21
62.7172
 31
0.0
  0
LINE
  8
0
 62
     0
 10
178.019
 20
62.7172
 30
0.0
 11
178.019
 21
63.7177
 31
0.0
  0
LINE
  8
0
 62
     0
 10
178.019
 20
63.7177
 30
0.0
 11
164.02
 21
63.7177
 31
0.0
  0
LINE
  8
0
 62
     0
 10
183.07
 20
63.7177
 30
0.0
 11
183.07
 21
62.7172
 31
0.0
  0
LINE
  8
0
 62
     0
 10
183.07
 20
62.7172
 30
0.0
 11
182.27
 21
62.7172
 31
0.0
  0
LINE
  8
0
 62
     0
 10
182.27
 20
62.7172
 30
0.0
 11
182.27
 21
59.618
 31
0.0
  0
LINE
  8
0
 62
     0
 10
182.27
 20
59.618
 30
0.0
 11
183.07
 21
59.618
 31
0.0
  0
LINE
  8
0
 62
     0
 10
183.07
 20
59.618
 30
0.0
 11
183.07
 21
53.818
 31
0.0
  0
LINE
  8
0
 62
     0
 10
183.07
 20
53.818
 30
0.0
 11
182.27
 21
53.818
 31
0.0
  0
LINE
  8
0
 62
     0
 10
182.27
 20
53.818
 30
0.0
 11
182.27
 21
50.7175
 31
0.0
  0
LINE
  8
0
 62
     0
 10
182.27
 20
50.7175
 30
0.0
 11
183.07
 21
50.7175
 31
0.0
  0
LINE
  8
0
 62
     0
 10
183.07
 20
50.7175
 30
0.0
 11
183.07
 21
49.7184
 31
0.0
  0
LINE
  8
0
 62
     0
 10
183.07
 20
49.7184
 30
0.0
 11
197.069
 21
49.7184
 31
0.0
  0
LINE
  8
0
 62
     0
 10
197.069
 20
49.7184
 30
0.0
 11
197.069
 21
50.7175
 31
0.0
  0
LINE
  8
0
 62
     0
 10
197.069
 20
50.7175
 30
0.0
 11
197.87
 21
50.7175
 31
0.0
  0
LINE
  8
0
 62
     0
 10
197.87
 20
50.7175
 30
0.0
 11
197.87
 21
53.818
 31
0.0
  0
LINE
  8
0
 62
     0
 10
197.87
 20
53.818
 30
0.0
 11
197.069
 21
53.818
 31
0.0
  0
LINE
  8
0
 62
     0
 10
197.069
 20
53.818
 30
0.0
 11
197.069
 21
59.618
 31
0.0
  0
LINE
  8
0
 62
     0
 10
197.069
 20
59.618
 30
0.0
 11
197.87
 21
59.618
 31
0.0
  0
LINE
  8
0
 62
     0
 10
197.87
 20
59.618
 30
0.0
 11
197.87
 21
62.7172
 31
0.0
  0
LINE
  8
0
 62
     0
 10
197.87
 20
62.7172
 30
0.0
 11
197.069
 21
62.7172
 31
0.0
  0
LINE
  8
0
 62
     0
 10
197.069
 20
62.7172
 30
0.0
 11
197.069
 21
63.7177
 31
0.0
  0
LINE
  8
0
 62
     0
 10
197.069
 20
63.7177
 30
0.0
 11
183.07
 21
63.7177
 31
0.0
  0
LINE
  8
0
 62
     0
 10
202.12
 20
63.7177
 30
0.0
 11
202.12
 21
62.7172
 31
0.0
  0
LINE
  8
0
 62
     0
 10
202.12
 20
62.7172
 30
0.0
 11
201.32
 21
62.7172
 31
0.0
  0
LINE
  8
0
 62
     0
 10
201.32
 20
62.7172
 30
0.0
 11
201.32
 21
59.618
 31
0.0
  0
LINE
  8
0
 62
     0
 10
201.32
 20
59.618
 30
0.0
 11
202.12
 21
59.618
 31
0.0
  0
LINE
  8
0
 62
     0
 10
202.12
 20
59.618
 30
0.0
 11
202.12
 21
53.818
 31
0.0
  0
LINE
  8
0
 62
     0
 10
202.12
 20
53.818
 30
0.0
 11
201.32
 21
53.818
 31
0.0
  0
LINE
  8
0
 62
     0
 10
201.32
 20
53.818
 30
0.0
 11
201.32
 21
50.7175
 31
0.0
  0
LINE
  8
0
 62
     0
 10
201.32
 20
50.7175
 30
0.0
 11
202.12
 21
50.7175
 31
0.0
  0
LINE
  8
0
 62
     0
 10
202.12
 20
50.7175
 30
0.0
 11
202.12
 21
49.7184
 31
0.0
  0
LINE
  8
0
 62
     0
 10
202.12
 20
49.7184
 30
0.0
 11
216.119
 21
49.7184
 31
0.0
  0
LINE
  8
0
 62
     0
 10
216.119
 20
49.7184
 30
0.0
 11
216.119
 21
50.7175
 31
0.0
  0
LINE
  8
0
 62
     0
 10
216.119
 20
50.7175
 30
0.0
 11
216.92
 21
50.7175
 31
0.0
  0
LINE
  8
0
 62
     0
 10
216.92
 20
50.7175
 30
0.0
 11
216.92
 21
53.818
 31
0.0
  0
LINE
  8
0
 62
     0
 10
216.92
 20
53.818
 30
0.0
 11
216.119
 21
53.818
 31
0.0
  0
LINE
  8
0
 62
     0
 10
216.119
 20
53.818
 30
0.0
 11
216.119
 21
59.618
 31
0.0
  0
LINE
  8
0
 62
     0
 10
216.119
 20
59.618
 30
0.0
 11
216.92
 21
59.618
 31
0.0
  0
LINE
  8
0
 62
     0
 10
216.92
 20
59.618
 30
0.0
 11
216.92
 21
62.7172
 31
0.0
  0
LINE
  8
0
 62
     0
 10
216.92
 20
62.7172
 30
0.0
 11
216.119
 21
62.7172
 31
0.0
  0
LINE
  8
0
 62
     0
 10
216.119
 20
62.7172
 30
0.0
 11
216.119
 21
63.7177
 31
0.0
  0
LINE
  8
0
 62
     0
 10
216.119
 20
63.7177
 30
0.0
 11
202.12
 21
63.7177
 31
0.0
  0
LINE
  8
0
 62
     0
 10
221.17
 20
63.7177
 30
0.0
 11
221.17
 21
62.7172
 31
0.0
  0
LINE
  8
0
 62
     0
 10
221.17
 20
62.7172
 30
0.0
 11
220.37
 21
62.7172
 31
0.0
  0
LINE
  8
0
 62
     0
 10
220.37
 20
62.7172
 30
0.0
 11
220.37
 21
59.618
 31
0.0
  0
LINE
  8
0
 62
     0
 10
220.37
 20
59.618
 30
0.0
 11
221.17
 21
59.618
 31
0.0
  0
LINE
  8
0
 62
     0
 10
221.17
 20
59.618
 30
0.0
 11
221.17
 21
53.818
 31
0.0
  0
LINE
  8
0
 62
     0
 10
221.17
 20
53.818
 30
0.0
 11
220.37
 21
53.818
 31
0.0
  0
LINE
  8
0
 62
     0
 10
220.37
 20
53.818
 30
0.0
 11
220.37
 21
50.7175
 31
0.0
  0
LINE
  8
0
 62
     0
 10
220.37
 20
50.7175
 30
0.0
 11
221.17
 21
50.7175
 31
0.0
  0
LINE
  8
0
 62
     0
 10
221.17
 20
50.7175
 30
0.0
 11
221.17
 21
49.7184
 31
0.0
  0
LINE
  8
0
 62
     0
 10
221.17
 20
49.7184
 30
0.0
 11
235.169
 21
49.7184
 31
0.0
  0
LINE
  8
0
 62
     0
 10
235.169
 20
49.7184
 30
0.0
 11
235.169
 21
50.7175
 31
0.0
  0
LINE
  8
0
 62
     0
 10
235.169
 20
50.7175
 30
0.0
 11
235.97
 21
50.7175
 31
0.0
  0
LINE
  8
0
 62
     0
 10
235.97
 20
50.7175
 30
0.0
 11
235.97
 21
53.818
 31
0.0
  0
LINE
  8
0
 62
     0
 10
235.97
 20
53.818
 30
0.0
 11
235.169
 21
53.818
 31
0.0
  0
LINE
  8
0
 62
     0
 10
235.169
 20
53.818
 30
0.0
 11
235.169
 21
59.618
 31
0.0
  0
LINE
  8
0
 62
     0
 10
235.169
 20
59.618
 30
0.0
 11
235.97
 21
59.618
 31
0.0
  0
LINE
  8
0
 62
     0
 10
235.97
 20
59.618
 30
0.0
 11
235.97
 21
62.7172
 31
0.0
  0
LINE
  8
0
 62
     0
 10
235.97
 20
62.7172
 30
0.0
 11
235.169
 21
62.7172
 31
0.0
  0
LINE
  8
0
 62
     0
 10
235.169
 20
62.7172
 30
0.0
 11
235.169
 21
63.7177
 31
0.0
  0
LINE
  8
0
 62
     0
 10
235.169
 20
63.7177
 30
0.0
 11
221.17
 21
63.7177
 31
0.0
  0
LINE
  8
0
 62
     0
 10
11.6196
 20
82.7677
 30
0.0
 11
11.6196
 21
81.7672
 31
0.0
  0
LINE
  8
0
 62
     0
 10
11.6196
 20
81.7672
 30
0.0
 11
10.819
 21
81.7672
 31
0.0
  0
LINE
  8
0
 62
     0
 10
10.819
 20
81.7672
 30
0.0
 11
10.819
 21
78.668
 31
0.0
  0
LINE
  8
0
 62
     0
 10
10.819
 20
78.668
 30
0.0
 11
11.6196
 21
78.668
 31
0.0
  0
LINE
  8
0
 62
     0
 10
11.6196
 20
78.668
 30
0.0
 11
11.6196
 21
72.868
 31
0.0
  0
LINE
  8
0
 62
     0
 10
11.6196
 20
72.868
 30
0.0
 11
10.819
 21
72.868
 31
0.0
  0
LINE
  8
0
 62
     0
 10
10.819
 20
72.868
 30
0.0
 11
10.819
 21
69.7675
 31
0.0
  0
LINE
  8
0
 62
     0
 10
10.819
 20
69.7675
 30
0.0
 11
11.6196
 21
69.7675
 31
0.0
  0
LINE
  8
0
 62
     0
 10
11.6196
 20
69.7675
 30
0.0
 11
11.6196
 21
68.7684
 31
0.0
  0
LINE
  8
0
 62
     0
 10
11.6196
 20
68.7684
 30
0.0
 11
25.6191
 21
68.7684
 31
0.0
  0
LINE
  8
0
 62
     0
 10
25.6191
 20
68.7684
 30
0.0
 11
25.6191
 21
69.7675
 31
0.0
  0
LINE
  8
0
 62
     0
 10
25.6191
 20
69.7675
 30
0.0
 11
26.4197
 21
69.7675
 31
0.0
  0
LINE
  8
0
 62
     0
 10
26.4197
 20
69.7675
 30
0.0
 11
26.4197
 21
72.868
 31
0.0
  0
LINE
  8
0
 62
     0
 10
26.4197
 20
72.868
 30
0.0
 11
25.6191
 21
72.868
 31
0.0
  0
LINE
  8
0
 62
     0
 10
25.6191
 20
72.868
 30
0.0
 11
25.6191
 21
78.668
 31
0.0
  0
LINE
  8
0
 62
     0
 10
25.6191
 20
78.668
 30
0.0
 11
26.4197
 21
78.668
 31
0.0
  0
LINE
  8
0
 62
     0
 10
26.4197
 20
78.668
 30
0.0
 11
26.4197
 21
81.7672
 31
0.0
  0
LINE
  8
0
 62
     0
 10
26.4197
 20
81.7672
 30
0.0
 11
25.6191
 21
81.7672
 31
0.0
  0
LINE
  8
0
 62
     0
 10
25.6191
 20
81.7672
 30
0.0
 11
25.6191
 21
82.7677
 31
0.0
  0
LINE
  8
0
 62
     0
 10
25.6191
 20
82.7677
 30
0.0
 11
11.6196
 21
82.7677
 31
0.0
  0
LINE
  8
0
 62
     0
 10
30.6696
 20
82.7677
 30
0.0
 11
30.6696
 21
81.7672
 31
0.0
  0
LINE
  8
0
 62
     0
 10
30.6696
 20
81.7672
 30
0.0
 11
29.8704
 21
81.7672
 31
0.0
  0
LINE
  8
0
 62
     0
 10
29.8704
 20
81.7672
 30
0.0
 11
29.8704
 21
78.668
 31
0.0
  0
LINE
  8
0
 62
     0
 10
29.8704
 20
78.668
 30
0.0
 11
30.6696
 21
78.668
 31
0.0
  0
LINE
  8
0
 62
     0
 10
30.6696
 20
78.668
 30
0.0
 11
30.6696
 21
72.868
 31
0.0
  0
LINE
  8
0
 62
     0
 10
30.6696
 20
72.868
 30
0.0
 11
29.8704
 21
72.868
 31
0.0
  0
LINE
  8
0
 62
     0
 10
29.8704
 20
72.868
 30
0.0
 11
29.8704
 21
69.7675
 31
0.0
  0
LINE
  8
0
 62
     0
 10
29.8704
 20
69.7675
 30
0.0
 11
30.6696
 21
69.7675
 31
0.0
  0
LINE
  8
0
 62
     0
 10
30.6696
 20
69.7675
 30
0.0
 11
30.6696
 21
68.7684
 31
0.0
  0
LINE
  8
0
 62
     0
 10
30.6696
 20
68.7684
 30
0.0
 11
44.6691
 21
68.7684
 31
0.0
  0
LINE
  8
0
 62
     0
 10
44.6691
 20
68.7684
 30
0.0
 11
44.6691
 21
69.7675
 31
0.0
  0
LINE
  8
0
 62
     0
 10
44.6691
 20
69.7675
 30
0.0
 11
45.4699
 21
69.7675
 31
0.0
  0
LINE
  8
0
 62
     0
 10
45.4699
 20
69.7675
 30
0.0
 11
45.4699
 21
72.868
 31
0.0
  0
LINE
  8
0
 62
     0
 10
45.4699
 20
72.868
 30
0.0
 11
44.6691
 21
72.868
 31
0.0
  0
LINE
  8
0
 62
     0
 10
44.6691
 20
72.868
 30
0.0
 11
44.6691
 21
78.668
 31
0.0
  0
LINE
  8
0
 62
     0
 10
44.6691
 20
78.668
 30
0.0
 11
45.4699
 21
78.668
 31
0.0
  0
LINE
  8
0
 62
     0
 10
45.4699
 20
78.668
 30
0.0
 11
45.4699
 21
81.7672
 31
0.0
  0
LINE
  8
0
 62
     0
 10
45.4699
 20
81.7672
 30
0.0
 11
44.6691
 21
81.7672
 31
0.0
  0
LINE
  8
0
 62
     0
 10
44.6691
 20
81.7672
 30
0.0
 11
44.6691
 21
82.7677
 31
0.0
  0
LINE
  8
0
 62
     0
 10
44.6691
 20
82.7677
 30
0.0
 11
30.6696
 21
82.7677
 31
0.0
  0
LINE
  8
0
 62
     0
 10
49.7198
 20
82.7677
 30
0.0
 11
49.7198
 21
81.7672
 31
0.0
  0
LINE
  8
0
 62
     0
 10
49.7198
 20
81.7672
 30
0.0
 11
48.9204
 21
81.7672
 31
0.0
  0
LINE
  8
0
 62
     0
 10
48.9204
 20
81.7672
 30
0.0
 11
48.9204
 21
78.668
 31
0.0
  0
LINE
  8
0
 62
     0
 10
48.9204
 20
78.668
 30
0.0
 11
49.7198
 21
78.668
 31
0.0
  0
LINE
  8
0
 62
     0
 10
49.7198
 20
78.668
 30
0.0
 11
49.7198
 21
72.868
 31
0.0
  0
LINE
  8
0
 62
     0
 10
49.7198
 20
72.868
 30
0.0
 11
48.9204
 21
72.868
 31
0.0
  0
LINE
  8
0
 62
     0
 10
48.9204
 20
72.868
 30
0.0
 11
48.9204
 21
69.7675
 31
0.0
  0
LINE
  8
0
 62
     0
 10
48.9204
 20
69.7675
 30
0.0
 11
49.7198
 21
69.7675
 31
0.0
  0
LINE
  8
0
 62
     0
 10
49.7198
 20
69.7675
 30
0.0
 11
49.7198
 21
68.7684
 31
0.0
  0
LINE
  8
0
 62
     0
 10
49.7198
 20
68.7684
 30
0.0
 11
63.7191
 21
68.7684
 31
0.0
  0
LINE
  8
0
 62
     0
 10
63.7191
 20
68.7684
 30
0.0
 11
63.7191
 21
69.7675
 31
0.0
  0
LINE
  8
0
 62
     0
 10
63.7191
 20
69.7675
 30
0.0
 11
64.5199
 21
69.7675
 31
0.0
  0
LINE
  8
0
 62
     0
 10
64.5199
 20
69.7675
 30
0.0
 11
64.5199
 21
72.868
 31
0.0
  0
LINE
  8
0
 62
     0
 10
64.5199
 20
72.868
 30
0.0
 11
63.7191
 21
72.868
 31
0.0
  0
LINE
  8
0
 62
     0
 10
63.7191
 20
72.868
 30
0.0
 11
63.7191
 21
78.668
 31
0.0
  0
LINE
  8
0
 62
     0
 10
63.7191
 20
78.668
 30
0.0
 11
64.5199
 21
78.668
 31
0.0
  0
LINE
  8
0
 62
     0
 10
64.5199
 20
78.668
 30
0.0
 11
64.5199
 21
81.7672
 31
0.0
  0
LINE
  8
0
 62
     0
 10
64.5199
 20
81.7672
 30
0.0
 11
63.7191
 21
81.7672
 31
0.0
  0
LINE
  8
0
 62
     0
 10
63.7191
 20
81.7672
 30
0.0
 11
63.7191
 21
82.7677
 31
0.0
  0
LINE
  8
0
 62
     0
 10
63.7191
 20
82.7677
 30
0.0
 11
49.7198
 21
82.7677
 31
0.0
  0
LINE
  8
0
 62
     0
 10
68.7698
 20
82.7677
 30
0.0
 11
68.7698
 21
81.7672
 31
0.0
  0
LINE
  8
0
 62
     0
 10
68.7698
 20
81.7672
 30
0.0
 11
67.9704
 21
81.7672
 31
0.0
  0
LINE
  8
0
 62
     0
 10
67.9704
 20
81.7672
 30
0.0
 11
67.9704
 21
78.668
 31
0.0
  0
LINE
  8
0
 62
     0
 10
67.9704
 20
78.668
 30
0.0
 11
68.7698
 21
78.668
 31
0.0
  0
LINE
  8
0
 62
     0
 10
68.7698
 20
78.668
 30
0.0
 11
68.7698
 21
72.868
 31
0.0
  0
LINE
  8
0
 62
     0
 10
68.7698
 20
72.868
 30
0.0
 11
67.9704
 21
72.868
 31
0.0
  0
LINE
  8
0
 62
     0
 10
67.9704
 20
72.868
 30
0.0
 11
67.9704
 21
69.7675
 31
0.0
  0
LINE
  8
0
 62
     0
 10
67.9704
 20
69.7675
 30
0.0
 11
68.7698
 21
69.7675
 31
0.0
  0
LINE
  8
0
 62
     0
 10
68.7698
 20
69.7675
 30
0.0
 11
68.7698
 21
68.7684
 31
0.0
  0
LINE
  8
0
 62
     0
 10
68.7698
 20
68.7684
 30
0.0
 11
82.7691
 21
68.7684
 31
0.0
  0
LINE
  8
0
 62
     0
 10
82.7691
 20
68.7684
 30
0.0
 11
82.7691
 21
69.7675
 31
0.0
  0
LINE
  8
0
 62
     0
 10
82.7691
 20
69.7675
 30
0.0
 11
83.5699
 21
69.7675
 31
0.0
  0
LINE
  8
0
 62
     0
 10
83.5699
 20
69.7675
 30
0.0
 11
83.5699
 21
72.868
 31
0.0
  0
LINE
  8
0
 62
     0
 10
83.5699
 20
72.868
 30
0.0
 11
82.7691
 21
72.868
 31
0.0
  0
LINE
  8
0
 62
     0
 10
82.7691
 20
72.868
 30
0.0
 11
82.7691
 21
78.668
 31
0.0
  0
LINE
  8
0
 62
     0
 10
82.7691
 20
78.668
 30
0.0
 11
83.5699
 21
78.668
 31
0.0
  0
LINE
  8
0
 62
     0
 10
83.5699
 20
78.668
 30
0.0
 11
83.5699
 21
81.7672
 31
0.0
  0
LINE
  8
0
 62
     0
 10
83.5699
 20
81.7672
 30
0.0
 11
82.7691
 21
81.7672
 31
0.0
  0
LINE
  8
0
 62
     0
 10
82.7691
 20
81.7672
 30
0.0
 11
82.7691
 21
82.7677
 31
0.0
  0
LINE
  8
0
 62
     0
 10
82.7691
 20
82.7677
 30
0.0
 11
68.7698
 21
82.7677
 31
0.0
  0
LINE
  8
0
 62
     0
 10
87.8198
 20
82.7677
 30
0.0
 11
87.8198
 21
81.7672
 31
0.0
  0
LINE
  8
0
 62
     0
 10
87.8198
 20
81.7672
 30
0.0
 11
87.0204
 21
81.7672
 31
0.0
  0
LINE
  8
0
 62
     0
 10
87.0204
 20
81.7672
 30
0.0
 11
87.0204
 21
78.668
 31
0.0
  0
LINE
  8
0
 62
     0
 10
87.0204
 20
78.668
 30
0.0
 11
87.8198
 21
78.668
 31
0.0
  0
LINE
  8
0
 62
     0
 10
87.8198
 20
78.668
 30
0.0
 11
87.8198
 21
72.868
 31
0.0
  0
LINE
  8
0
 62
     0
 10
87.8198
 20
72.868
 30
0.0
 11
87.0204
 21
72.868
 31
0.0
  0
LINE
  8
0
 62
     0
 10
87.0204
 20
72.868
 30
0.0
 11
87.0204
 21
69.7675
 31
0.0
  0
LINE
  8
0
 62
     0
 10
87.0204
 20
69.7675
 30
0.0
 11
87.8198
 21
69.7675
 31
0.0
  0
LINE
  8
0
 62
     0
 10
87.8198
 20
69.7675
 30
0.0
 11
87.8198
 21
68.7684
 31
0.0
  0
LINE
  8
0
 62
     0
 10
87.8198
 20
68.7684
 30
0.0
 11
101.819
 21
68.7684
 31
0.0
  0
LINE
  8
0
 62
     0
 10
101.819
 20
68.7684
 30
0.0
 11
101.819
 21
69.7675
 31
0.0
  0
LINE
  8
0
 62
     0
 10
101.819
 20
69.7675
 30
0.0
 11
102.618
 21
69.7675
 31
0.0
  0
LINE
  8
0
 62
     0
 10
102.618
 20
69.7675
 30
0.0
 11
102.618
 21
72.868
 31
0.0
  0
LINE
  8
0
 62
     0
 10
102.618
 20
72.868
 30
0.0
 11
101.819
 21
72.868
 31
0.0
  0
LINE
  8
0
 62
     0
 10
101.819
 20
72.868
 30
0.0
 11
101.819
 21
78.668
 31
0.0
  0
LINE
  8
0
 62
     0
 10
101.819
 20
78.668
 30
0.0
 11
102.618
 21
78.668
 31
0.0
  0
LINE
  8
0
 62
     0
 10
102.618
 20
78.668
 30
0.0
 11
102.618
 21
81.7672
 31
0.0
  0
LINE
  8
0
 62
     0
 10
102.618
 20
81.7672
 30
0.0
 11
101.819
 21
81.7672
 31
0.0
  0
LINE
  8
0
 62
     0
 10
101.819
 20
81.7672
 30
0.0
 11
101.819
 21
82.7677
 31
0.0
  0
LINE
  8
0
 62
     0
 10
101.819
 20
82.7677
 30
0.0
 11
87.8198
 21
82.7677
 31
0.0
  0
LINE
  8
0
 62
     0
 10
106.868
 20
82.7677
 30
0.0
 11
106.868
 21
81.7672
 31
0.0
  0
LINE
  8
0
 62
     0
 10
106.868
 20
81.7672
 30
0.0
 11
106.07
 21
81.7672
 31
0.0
  0
LINE
  8
0
 62
     0
 10
106.07
 20
81.7672
 30
0.0
 11
106.07
 21
78.668
 31
0.0
  0
LINE
  8
0
 62
     0
 10
106.07
 20
78.668
 30
0.0
 11
106.868
 21
78.668
 31
0.0
  0
LINE
  8
0
 62
     0
 10
106.868
 20
78.668
 30
0.0
 11
106.868
 21
72.868
 31
0.0
  0
LINE
  8
0
 62
     0
 10
106.868
 20
72.868
 30
0.0
 11
106.07
 21
72.868
 31
0.0
  0
LINE
  8
0
 62
     0
 10
106.07
 20
72.868
 30
0.0
 11
106.07
 21
69.7675
 31
0.0
  0
LINE
  8
0
 62
     0
 10
106.07
 20
69.7675
 30
0.0
 11
106.868
 21
69.7675
 31
0.0
  0
LINE
  8
0
 62
     0
 10
106.868
 20
69.7675
 30
0.0
 11
106.868
 21
68.7684
 31
0.0
  0
LINE
  8
0
 62
     0
 10
106.868
 20
68.7684
 30
0.0
 11
120.869
 21
68.7684
 31
0.0
  0
LINE
  8
0
 62
     0
 10
120.869
 20
68.7684
 30
0.0
 11
120.869
 21
69.7675
 31
0.0
  0
LINE
  8
0
 62
     0
 10
120.869
 20
69.7675
 30
0.0
 11
121.668
 21
69.7675
 31
0.0
  0
LINE
  8
0
 62
     0
 10
121.668
 20
69.7675
 30
0.0
 11
121.668
 21
72.868
 31
0.0
  0
LINE
  8
0
 62
     0
 10
121.668
 20
72.868
 30
0.0
 11
120.869
 21
72.868
 31
0.0
  0
LINE
  8
0
 62
     0
 10
120.869
 20
72.868
 30
0.0
 11
120.869
 21
78.668
 31
0.0
  0
LINE
  8
0
 62
     0
 10
120.869
 20
78.668
 30
0.0
 11
121.668
 21
78.668
 31
0.0
  0
LINE
  8
0
 62
     0
 10
121.668
 20
78.668
 30
0.0
 11
121.668
 21
81.7672
 31
0.0
  0
LINE
  8
0
 62
     0
 10
121.668
 20
81.7672
 30
0.0
 11
120.869
 21
81.7672
 31
0.0
  0
LINE
  8
0
 62
     0
 10
120.869
 20
81.7672
 30
0.0
 11
120.869
 21
82.7677
 31
0.0
  0
LINE
  8
0
 62
     0
 10
120.869
 20
82.7677
 30
0.0
 11
106.868
 21
82.7677
 31
0.0
  0
LINE
  8
0
 62
     0
 10
125.918
 20
82.7677
 30
0.0
 11
125.918
 21
81.7672
 31
0.0
  0
LINE
  8
0
 62
     0
 10
125.918
 20
81.7672
 30
0.0
 11
125.119
 21
81.7672
 31
0.0
  0
LINE
  8
0
 62
     0
 10
125.119
 20
81.7672
 30
0.0
 11
125.119
 21
78.668
 31
0.0
  0
LINE
  8
0
 62
     0
 10
125.119
 20
78.668
 30
0.0
 11
125.918
 21
78.668
 31
0.0
  0
LINE
  8
0
 62
     0
 10
125.918
 20
78.668
 30
0.0
 11
125.918
 21
72.868
 31
0.0
  0
LINE
  8
0
 62
     0
 10
125.918
 20
72.868
 30
0.0
 11
125.119
 21
72.868
 31
0.0
  0
LINE
  8
0
 62
     0
 10
125.119
 20
72.868
 30
0.0
 11
125.119
 21
69.7675
 31
0.0
  0
LINE
  8
0
 62
     0
 10
125.119
 20
69.7675
 30
0.0
 11
125.918
 21
69.7675
 31
0.0
  0
LINE
  8
0
 62
     0
 10
125.918
 20
69.7675
 30
0.0
 11
125.918
 21
68.7684
 31
0.0
  0
LINE
  8
0
 62
     0
 10
125.918
 20
68.7684
 30
0.0
 11
139.919
 21
68.7684
 31
0.0
  0
LINE
  8
0
 62
     0
 10
139.919
 20
68.7684
 30
0.0
 11
139.919
 21
69.7675
 31
0.0
  0
LINE
  8
0
 62
     0
 10
139.919
 20
69.7675
 30
0.0
 11
140.72
 21
69.7675
 31
0.0
  0
LINE
  8
0
 62
     0
 10
140.72
 20
69.7675
 30
0.0
 11
140.72
 21
72.868
 31
0.0
  0
LINE
  8
0
 62
     0
 10
140.72
 20
72.868
 30
0.0
 11
139.919
 21
72.868
 31
0.0
  0
LINE
  8
0
 62
     0
 10
139.919
 20
72.868
 30
0.0
 11
139.919
 21
78.668
 31
0.0
  0
LINE
  8
0
 62
     0
 10
139.919
 20
78.668
 30
0.0
 11
140.72
 21
78.668
 31
0.0
  0
LINE
  8
0
 62
     0
 10
140.72
 20
78.668
 30
0.0
 11
140.72
 21
81.7672
 31
0.0
  0
LINE
  8
0
 62
     0
 10
140.72
 20
81.7672
 30
0.0
 11
139.919
 21
81.7672
 31
0.0
  0
LINE
  8
0
 62
     0
 10
139.919
 20
81.7672
 30
0.0
 11
139.919
 21
82.7677
 31
0.0
  0
LINE
  8
0
 62
     0
 10
139.919
 20
82.7677
 30
0.0
 11
125.918
 21
82.7677
 31
0.0
  0
LINE
  8
0
 62
     0
 10
144.97
 20
82.7677
 30
0.0
 11
144.97
 21
81.7672
 31
0.0
  0
LINE
  8
0
 62
     0
 10
144.97
 20
81.7672
 30
0.0
 11
144.17
 21
81.7672
 31
0.0
  0
LINE
  8
0
 62
     0
 10
144.17
 20
81.7672
 30
0.0
 11
144.17
 21
78.668
 31
0.0
  0
LINE
  8
0
 62
     0
 10
144.17
 20
78.668
 30
0.0
 11
144.97
 21
78.668
 31
0.0
  0
LINE
  8
0
 62
     0
 10
144.97
 20
78.668
 30
0.0
 11
144.97
 21
72.868
 31
0.0
  0
LINE
  8
0
 62
     0
 10
144.97
 20
72.868
 30
0.0
 11
144.17
 21
72.868
 31
0.0
  0
LINE
  8
0
 62
     0
 10
144.17
 20
72.868
 30
0.0
 11
144.17
 21
69.7675
 31
0.0
  0
LINE
  8
0
 62
     0
 10
144.17
 20
69.7675
 30
0.0
 11
144.97
 21
69.7675
 31
0.0
  0
LINE
  8
0
 62
     0
 10
144.97
 20
69.7675
 30
0.0
 11
144.97
 21
68.7684
 31
0.0
  0
LINE
  8
0
 62
     0
 10
144.97
 20
68.7684
 30
0.0
 11
158.969
 21
68.7684
 31
0.0
  0
LINE
  8
0
 62
     0
 10
158.969
 20
68.7684
 30
0.0
 11
158.969
 21
69.7675
 31
0.0
  0
LINE
  8
0
 62
     0
 10
158.969
 20
69.7675
 30
0.0
 11
159.77
 21
69.7675
 31
0.0
  0
LINE
  8
0
 62
     0
 10
159.77
 20
69.7675
 30
0.0
 11
159.77
 21
72.868
 31
0.0
  0
LINE
  8
0
 62
     0
 10
159.77
 20
72.868
 30
0.0
 11
158.969
 21
72.868
 31
0.0
  0
LINE
  8
0
 62
     0
 10
158.969
 20
72.868
 30
0.0
 11
158.969
 21
78.668
 31
0.0
  0
LINE
  8
0
 62
     0
 10
158.969
 20
78.668
 30
0.0
 11
159.77
 21
78.668
 31
0.0
  0
LINE
  8
0
 62
     0
 10
159.77
 20
78.668
 30
0.0
 11
159.77
 21
81.7672
 31
0.0
  0
LINE
  8
0
 62
     0
 10
159.77
 20
81.7672
 30
0.0
 11
158.969
 21
81.7672
 31
0.0
  0
LINE
  8
0
 62
     0
 10
158.969
 20
81.7672
 30
0.0
 11
158.969
 21
82.7677
 31
0.0
  0
LINE
  8
0
 62
     0
 10
158.969
 20
82.7677
 30
0.0
 11
144.97
 21
82.7677
 31
0.0
  0
LINE
  8
0
 62
     0
 10
164.02
 20
82.7677
 30
0.0
 11
164.02
 21
81.7672
 31
0.0
  0
LINE
  8
0
 62
     0
 10
164.02
 20
81.7672
 30
0.0
 11
163.22
 21
81.7672
 31
0.0
  0
LINE
  8
0
 62
     0
 10
163.22
 20
81.7672
 30
0.0
 11
163.22
 21
78.668
 31
0.0
  0
LINE
  8
0
 62
     0
 10
163.22
 20
78.668
 30
0.0
 11
164.02
 21
78.668
 31
0.0
  0
LINE
  8
0
 62
     0
 10
164.02
 20
78.668
 30
0.0
 11
164.02
 21
72.868
 31
0.0
  0
LINE
  8
0
 62
     0
 10
164.02
 20
72.868
 30
0.0
 11
163.22
 21
72.868
 31
0.0
  0
LINE
  8
0
 62
     0
 10
163.22
 20
72.868
 30
0.0
 11
163.22
 21
69.7675
 31
0.0
  0
LINE
  8
0
 62
     0
 10
163.22
 20
69.7675
 30
0.0
 11
164.02
 21
69.7675
 31
0.0
  0
LINE
  8
0
 62
     0
 10
164.02
 20
69.7675
 30
0.0
 11
164.02
 21
68.7684
 31
0.0
  0
LINE
  8
0
 62
     0
 10
164.02
 20
68.7684
 30
0.0
 11
178.019
 21
68.7684
 31
0.0
  0
LINE
  8
0
 62
     0
 10
178.019
 20
68.7684
 30
0.0
 11
178.019
 21
69.7675
 31
0.0
  0
LINE
  8
0
 62
     0
 10
178.019
 20
69.7675
 30
0.0
 11
178.82
 21
69.7675
 31
0.0
  0
LINE
  8
0
 62
     0
 10
178.82
 20
69.7675
 30
0.0
 11
178.82
 21
72.868
 31
0.0
  0
LINE
  8
0
 62
     0
 10
178.82
 20
72.868
 30
0.0
 11
178.019
 21
72.868
 31
0.0
  0
LINE
  8
0
 62
     0
 10
178.019
 20
72.868
 30
0.0
 11
178.019
 21
78.668
 31
0.0
  0
LINE
  8
0
 62
     0
 10
178.019
 20
78.668
 30
0.0
 11
178.82
 21
78.668
 31
0.0
  0
LINE
  8
0
 62
     0
 10
178.82
 20
78.668
 30
0.0
 11
178.82
 21
81.7672
 31
0.0
  0
LINE
  8
0
 62
     0
 10
178.82
 20
81.7672
 30
0.0
 11
178.019
 21
81.7672
 31
0.0
  0
LINE
  8
0
 62
     0
 10
178.019
 20
81.7672
 30
0.0
 11
178.019
 21
82.7677
 31
0.0
  0
LINE
  8
0
 62
     0
 10
178.019
 20
82.7677
 30
0.0
 11
164.02
 21
82.7677
 31
0.0
  0
LINE
  8
0
 62
     0
 10
183.07
 20
82.7677
 30
0.0
 11
183.07
 21
81.7672
 31
0.0
  0
LINE
  8
0
 62
     0
 10
183.07
 20
81.7672
 30
0.0
 11
182.27
 21
81.7672
 31
0.0
  0
LINE
  8
0
 62
     0
 10
182.27
 20
81.7672
 30
0.0
 11
182.27
 21
78.668
 31
0.0
  0
LINE
  8
0
 62
     0
 10
182.27
 20
78.668
 30
0.0
 11
183.07
 21
78.668
 31
0.0
  0
LINE
  8
0
 62
     0
 10
183.07
 20
78.668
 30
0.0
 11
183.07
 21
72.868
 31
0.0
  0
LINE
  8
0
 62
     0
 10
183.07
 20
72.868
 30
0.0
 11
182.27
 21
72.868
 31
0.0
  0
LINE
  8
0
 62
     0
 10
182.27
 20
72.868
 30
0.0
 11
182.27
 21
69.7675
 31
0.0
  0
LINE
  8
0
 62
     0
 10
182.27
 20
69.7675
 30
0.0
 11
183.07
 21
69.7675
 31
0.0
  0
LINE
  8
0
 62
     0
 10
183.07
 20
69.7675
 30
0.0
 11
183.07
 21
68.7684
 31
0.0
  0
LINE
  8
0
 62
     0
 10
183.07
 20
68.7684
 30
0.0
 11
197.069
 21
68.7684
 31
0.0
  0
LINE
  8
0
 62
     0
 10
197.069
 20
68.7684
 30
0.0
 11
197.069
 21
69.7675
 31
0.0
  0
LINE
  8
0
 62
     0
 10
197.069
 20
69.7675
 30
0.0
 11
197.87
 21
69.7675
 31
0.0
  0
LINE
  8
0
 62
     0
 10
197.87
 20
69.7675
 30
0.0
 11
197.87
 21
72.868
 31
0.0
  0
LINE
  8
0
 62
     0
 10
197.87
 20
72.868
 30
0.0
 11
197.069
 21
72.868
 31
0.0
  0
LINE
  8
0
 62
     0
 10
197.069
 20
72.868
 30
0.0
 11
197.069
 21
78.668
 31
0.0
  0
LINE
  8
0
 62
     0
 10
197.069
 20
78.668
 30
0.0
 11
197.87
 21
78.668
 31
0.0
  0
LINE
  8
0
 62
     0
 10
197.87
 20
78.668
 30
0.0
 11
197.87
 21
81.7672
 31
0.0
  0
LINE
  8
0
 62
     0
 10
197.87
 20
81.7672
 30
0.0
 11
197.069
 21
81.7672
 31
0.0
  0
LINE
  8
0
 62
     0
 10
197.069
 20
81.7672
 30
0.0
 11
197.069
 21
82.7677
 31
0.0
  0
LINE
  8
0
 62
     0
 10
197.069
 20
82.7677
 30
0.0
 11
183.07
 21
82.7677
 31
0.0
  0
LINE
  8
0
 62
     0
 10
202.12
 20
82.7677
 30
0.0
 11
202.12
 21
81.7672
 31
0.0
  0
LINE
  8
0
 62
     0
 10
202.12
 20
81.7672
 30
0.0
 11
201.32
 21
81.7672
 31
0.0
  0
LINE
  8
0
 62
     0
 10
201.32
 20
81.7672
 30
0.0
 11
201.32
 21
78.668
 31
0.0
  0
LINE
  8
0
 62
     0
 10
201.32
 20
78.668
 30
0.0
 11
202.12
 21
78.668
 31
0.0
  0
LINE
  8
0
 62
     0
 10
202.12
 20
78.668
 30
0.0
 11
202.12
 21
72.868
 31
0.0
  0
LINE
  8
0
 62
     0
 10
202.12
 20
72.868
 30
0.0
 11
201.32
 21
72.868
 31
0.0
  0
LINE
  8
0
 62
     0
 10
201.32
 20
72.868
 30
0.0
 11
201.32
 21
69.7675
 31
0.0
  0
LINE
  8
0
 62
     0
 10
201.32
 20
69.7675
 30
0.0
 11
202.12
 21
69.7675
 31
0.0
  0
LINE
  8
0
 62
     0
 10
202.12
 20
69.7675
 30
0.0
 11
202.12
 21
68.7684
 31
0.0
  0
LINE
  8
0
 62
     0
 10
202.12
 20
68.7684
 30
0.0
 11
216.119
 21
68.7684
 31
0.0
  0
LINE
  8
0
 62
     0
 10
216.119
 20
68.7684
 30
0.0
 11
216.119
 21
69.7675
 31
0.0
  0
LINE
  8
0
 62
     0
 10
216.119
 20
69.7675
 30
0.0
 11
216.92
 21
69.7675
 31
0.0
  0
LINE
  8
0
 62
     0
 10
216.92
 20
69.7675
 30
0.0
 11
216.92
 21
72.868
 31
0.0
  0
LINE
  8
0
 62
     0
 10
216.92
 20
72.868
 30
0.0
 11
216.119
 21
72.868
 31
0.0
  0
LINE
  8
0
 62
     0
 10
216.119
 20
72.868
 30
0.0
 11
216.119
 21
78.668
 31
0.0
  0
LINE
  8
0
 62
     0
 10
216.119
 20
78.668
 30
0.0
 11
216.92
 21
78.668
 31
0.0
  0
LINE
  8
0
 62
     0
 10
216.92
 20
78.668
 30
0.0
 11
216.92
 21
81.7672
 31
0.0
  0
LINE
  8
0
 62
     0
 10
216.92
 20
81.7672
 30
0.0
 11
216.119
 21
81.7672
 31
0.0
  0
LINE
  8
0
 62
     0
 10
216.119
 20
81.7672
 30
0.0
 11
216.119
 21
82.7677
 31
0.0
  0
LINE
  8
0
 62
     0
 10
216.119
 20
82.7677
 30
0.0
 11
202.12
 21
82.7677
 31
0.0
  0
LINE
  8
0
 62
     0
 10
221.17
 20
82.7677
 30
0.0
 11
221.17
 21
81.7672
 31
0.0
  0
LINE
  8
0
 62
     0
 10
221.17
 20
81.7672
 30
0.0
 11
220.37
 21
81.7672
 31
0.0
  0
LINE
  8
0
 62
     0
 10
220.37
 20
81.7672
 30
0.0
 11
220.37
 21
78.668
 31
0.0
  0
LINE
  8
0
 62
     0
 10
220.37
 20
78.668
 30
0.0
 11
221.17
 21
78.668
 31
0.0
  0
LINE
  8
0
 62
     0
 10
221.17
 20
78.668
 30
0.0
 11
221.17
 21
72.868
 31
0.0
  0
LINE
  8
0
 62
     0
 10
221.17
 20
72.868
 30
0.0
 11
220.37
 21
72.868
 31
0.0
  0
LINE
  8
0
 62
     0
 10
220.37
 20
72.868
 30
0.0
 11
220.37
 21
69.7675
 31
0.0
  0
LINE
  8
0
 62
     0
 10
220.37
 20
69.7675
 30
0.0
 11
221.17
 21
69.7675
 31
0.0
  0
LINE
  8
0
 62
     0
 10
221.17
 20
69.7675
 30
0.0
 11
221.17
 21
68.7684
 31
0.0
  0
LINE
  8
0
 62
     0
 10
221.17
 20
68.7684
 30
0.0
 11
235.169
 21
68.7684
 31
0.0
  0
LINE
  8
0
 62
     0
 10
235.169
 20
68.7684
 30
0.0
 11
235.169
 21
69.7675
 31
0.0
  0
LINE
  8
0
 62
     0
 10
235.169
 20
69.7675
 30
0.0
 11
235.97
 21
69.7675
 31
0.0
  0
LINE
  8
0
 62
     0
 10
235.97
 20
69.7675
 30
0.0
 11
235.97
 21
72.868
 31
0.0
  0
LINE
  8
0
 62
     0
 10
235.97
 20
72.868
 30
0.0
 11
235.169
 21
72.868
 31
0.0
  0
LINE
  8
0
 62
     0
 10
235.169
 20
72.868
 30
0.0
 11
235.169
 21
78.668
 31
0.0
  0
LINE
  8
0
 62
     0
 10
235.169
 20
78.668
 30
0.0
 11
235.97
 21
78.668
 31
0.0
  0
LINE
  8
0
 62
     0
 10
235.97
 20
78.668
 30
0.0
 11
235.97
 21
81.7672
 31
0.0
  0
LINE
  8
0
 62
     0
 10
235.97
 20
81.7672
 30
0.0
 11
235.169
 21
81.7672
 31
0.0
  0
LINE
  8
0
 62
     0
 10
235.169
 20
81.7672
 30
0.0
 11
235.169
 21
82.7677
 31
0.0
  0
LINE
  8
0
 62
     0
 10
235.169
 20
82.7677
 30
0.0
 11
221.17
 21
82.7677
 31
0.0
  0
LINE
  8
0
 62
     0
 10
11.6196
 20
101.818
 30
0.0
 11
11.6196
 21
100.817
 31
0.0
  0
LINE
  8
0
 62
     0
 10
11.6196
 20
100.817
 30
0.0
 11
10.819
 21
100.817
 31
0.0
  0
LINE
  8
0
 62
     0
 10
10.819
 20
100.817
 30
0.0
 11
10.819
 21
97.718
 31
0.0
  0
LINE
  8
0
 62
     0
 10
10.819
 20
97.718
 30
0.0
 11
11.6196
 21
97.718
 31
0.0
  0
LINE
  8
0
 62
     0
 10
11.6196
 20
97.718
 30
0.0
 11
11.6196
 21
91.9194
 31
0.0
  0
LINE
  8
0
 62
     0
 10
11.6196
 20
91.9194
 30
0.0
 11
10.819
 21
91.9194
 31
0.0
  0
LINE
  8
0
 62
     0
 10
10.819
 20
91.9194
 30
0.0
 11
10.819
 21
88.8175
 31
0.0
  0
LINE
  8
0
 62
     0
 10
10.819
 20
88.8175
 30
0.0
 11
11.6196
 21
88.8175
 31
0.0
  0
LINE
  8
0
 62
     0
 10
11.6196
 20
88.8175
 30
0.0
 11
11.6196
 21
87.8184
 31
0.0
  0
LINE
  8
0
 62
     0
 10
11.6196
 20
87.8184
 30
0.0
 11
25.6191
 21
87.8184
 31
0.0
  0
LINE
  8
0
 62
     0
 10
25.6191
 20
87.8184
 30
0.0
 11
25.6191
 21
88.8175
 31
0.0
  0
LINE
  8
0
 62
     0
 10
25.6191
 20
88.8175
 30
0.0
 11
26.4197
 21
88.8175
 31
0.0
  0
LINE
  8
0
 62
     0
 10
26.4197
 20
88.8175
 30
0.0
 11
26.4197
 21
91.9194
 31
0.0
  0
LINE
  8
0
 62
     0
 10
26.4197
 20
91.9194
 30
0.0
 11
25.6191
 21
91.9194
 31
0.0
  0
LINE
  8
0
 62
     0
 10
25.6191
 20
91.9194
 30
0.0
 11
25.6191
 21
97.718
 31
0.0
  0
LINE
  8
0
 62
     0
 10
25.6191
 20
97.718
 30
0.0
 11
26.4197
 21
97.718
 31
0.0
  0
LINE
  8
0
 62
     0
 10
26.4197
 20
97.718
 30
0.0
 11
26.4197
 21
100.817
 31
0.0
  0
LINE
  8
0
 62
     0
 10
26.4197
 20
100.817
 30
0.0
 11
25.6191
 21
100.817
 31
0.0
  0
LINE
  8
0
 62
     0
 10
25.6191
 20
100.817
 30
0.0
 11
25.6191
 21
101.818
 31
0.0
  0
LINE
  8
0
 62
     0
 10
25.6191
 20
101.818
 30
0.0
 11
11.6196
 21
101.818
 31
0.0
  0
LINE
  8
0
 62
     0
 10
30.6696
 20
101.818
 30
0.0
 11
30.6696
 21
100.817
 31
0.0
  0
LINE
  8
0
 62
     0
 10
30.6696
 20
100.817
 30
0.0
 11
29.8704
 21
100.817
 31
0.0
  0
LINE
  8
0
 62
     0
 10
29.8704
 20
100.817
 30
0.0
 11
29.8704
 21
97.718
 31
0.0
  0
LINE
  8
0
 62
     0
 10
29.8704
 20
97.718
 30
0.0
 11
30.6696
 21
97.718
 31
0.0
  0
LINE
  8
0
 62
     0
 10
30.6696
 20
97.718
 30
0.0
 11
30.6696
 21
91.9194
 31
0.0
  0
LINE
  8
0
 62
     0
 10
30.6696
 20
91.9194
 30
0.0
 11
29.8704
 21
91.9194
 31
0.0
  0
LINE
  8
0
 62
     0
 10
29.8704
 20
91.9194
 30
0.0
 11
29.8704
 21
88.8175
 31
0.0
  0
LINE
  8
0
 62
     0
 10
29.8704
 20
88.8175
 30
0.0
 11
30.6696
 21
88.8175
 31
0.0
  0
LINE
  8
0
 62
     0
 10
30.6696
 20
88.8175
 30
0.0
 11
30.6696
 21
87.8184
 31
0.0
  0
LINE
  8
0
 62
     0
 10
30.6696
 20
87.8184
 30
0.0
 11
44.6691
 21
87.8184
 31
0.0
  0
LINE
  8
0
 62
     0
 10
44.6691
 20
87.8184
 30
0.0
 11
44.6691
 21
88.8175
 31
0.0
  0
LINE
  8
0
 62
     0
 10
44.6691
 20
88.8175
 30
0.0
 11
45.4699
 21
88.8175
 31
0.0
  0
LINE
  8
0
 62
     0
 10
45.4699
 20
88.8175
 30
0.0
 11
45.4699
 21
91.9194
 31
0.0
  0
LINE
  8
0
 62
     0
 10
45.4699
 20
91.9194
 30
0.0
 11
44.6691
 21
91.9194
 31
0.0
  0
LINE
  8
0
 62
     0
 10
44.6691
 20
91.9194
 30
0.0
 11
44.6691
 21
97.718
 31
0.0
  0
LINE
  8
0
 62
     0
 10
44.6691
 20
97.718
 30
0.0
 11
45.4699
 21
97.718
 31
0.0
  0
LINE
  8
0
 62
     0
 10
45.4699
 20
97.718
 30
0.0
 11
45.4699
 21
100.817
 31
0.0
  0
LINE
  8
0
 62
     0
 10
45.4699
 20
100.817
 30
0.0
 11
44.6691
 21
100.817
 31
0.0
  0
LINE
  8
0
 62
     0
 10
44.6691
 20
100.817
 30
0.0
 11
44.6691
 21
101.818
 31
0.0
  0
LINE
  8
0
 62
     0
 10
44.6691
 20
101.818
 30
0.0
 11
30.6696
 21
101.818
 31
0.0
  0
LINE
  8
0
 62
     0
 10
49.7198
 20
101.818
 30
0.0
 11
49.7198
 21
100.817
 31
0.0
  0
LINE
  8
0
 62
     0
 10
49.7198
 20
100.817
 30
0.0
 11
48.9204
 21
100.817
 31
0.0
  0
LINE
  8
0
 62
     0
 10
48.9204
 20
100.817
 30
0.0
 11
48.9204
 21
97.718
 31
0.0
  0
LINE
  8
0
 62
     0
 10
48.9204
 20
97.718
 30
0.0
 11
49.7198
 21
97.718
 31
0.0
  0
LINE
  8
0
 62
     0
 10
49.7198
 20
97.718
 30
0.0
 11
49.7198
 21
91.9194
 31
0.0
  0
LINE
  8
0
 62
     0
 10
49.7198
 20
91.9194
 30
0.0
 11
48.9204
 21
91.9194
 31
0.0
  0
LINE
  8
0
 62
     0
 10
48.9204
 20
91.9194
 30
0.0
 11
48.9204
 21
88.8175
 31
0.0
  0
LINE
  8
0
 62
     0
 10
48.9204
 20
88.8175
 30
0.0
 11
49.7198
 21
88.8175
 31
0.0
  0
LINE
  8
0
 62
     0
 10
49.7198
 20
88.8175
 30
0.0
 11
49.7198
 21
87.8184
 31
0.0
  0
LINE
  8
0
 62
     0
 10
49.7198
 20
87.8184
 30
0.0
 11
63.7191
 21
87.8184
 31
0.0
  0
LINE
  8
0
 62
     0
 10
63.7191
 20
87.8184
 30
0.0
 11
63.7191
 21
88.8175
 31
0.0
  0
LINE
  8
0
 62
     0
 10
63.7191
 20
88.8175
 30
0.0
 11
64.5199
 21
88.8175
 31
0.0
  0
LINE
  8
0
 62
     0
 10
64.5199
 20
88.8175
 30
0.0
 11
64.5199
 21
91.9194
 31
0.0
  0
LINE
  8
0
 62
     0
 10
64.5199
 20
91.9194
 30
0.0
 11
63.7191
 21
91.9194
 31
0.0
  0
LINE
  8
0
 62
     0
 10
63.7191
 20
91.9194
 30
0.0
 11
63.7191
 21
97.718
 31
0.0
  0
LINE
  8
0
 62
     0
 10
63.7191
 20
97.718
 30
0.0
 11
64.5199
 21
97.718
 31
0.0
  0
LINE
  8
0
 62
     0
 10
64.5199
 20
97.718
 30
0.0
 11
64.5199
 21
100.817
 31
0.0
  0
LINE
  8
0
 62
     0
 10
64.5199
 20
100.817
 30
0.0
 11
63.7191
 21
100.817
 31
0.0
  0
LINE
  8
0
 62
     0
 10
63.7191
 20
100.817
 30
0.0
 11
63.7191
 21
101.818
 31
0.0
  0
LINE
  8
0
 62
     0
 10
63.7191
 20
101.818
 30
0.0
 11
49.7198
 21
101.818
 31
0.0
  0
LINE
  8
0
 62
     0
 10
68.7698
 20
101.818
 30
0.0
 11
68.7698
 21
100.817
 31
0.0
  0
LINE
  8
0
 62
     0
 10
68.7698
 20
100.817
 30
0.0
 11
67.9704
 21
100.817
 31
0.0
  0
LINE
  8
0
 62
     0
 10
67.9704
 20
100.817
 30
0.0
 11
67.9704
 21
97.718
 31
0.0
  0
LINE
  8
0
 62
     0
 10
67.9704
 20
97.718
 30
0.0
 11
68.7698
 21
97.718
 31
0.0
  0
LINE
  8
0
 62
     0
 10
68.7698
 20
97.718
 30
0.0
 11
68.7698
 21
91.9194
 31
0.0
  0
LINE
  8
0
 62
     0
 10
68.7698
 20
91.9194
 30
0.0
 11
67.9704
 21
91.9194
 31
0.0
  0
LINE
  8
0
 62
     0
 10
67.9704
 20
91.9194
 30
0.0
 11
67.9704
 21
88.8175
 31
0.0
  0
LINE
  8
0
 62
     0
 10
67.9704
 20
88.8175
 30
0.0
 11
68.7698
 21
88.8175
 31
0.0
  0
LINE
  8
0
 62
     0
 10
68.7698
 20
88.8175
 30
0.0
 11
68.7698
 21
87.8184
 31
0.0
  0
LINE
  8
0
 62
     0
 10
68.7698
 20
87.8184
 30
0.0
 11
82.7691
 21
87.8184
 31
0.0
  0
LINE
  8
0
 62
     0
 10
82.7691
 20
87.8184
 30
0.0
 11
82.7691
 21
88.8175
 31
0.0
  0
LINE
  8
0
 62
     0
 10
82.7691
 20
88.8175
 30
0.0
 11
83.5699
 21
88.8175
 31
0.0
  0
LINE
  8
0
 62
     0
 10
83.5699
 20
88.8175
 30
0.0
 11
83.5699
 21
91.9194
 31
0.0
  0
LINE
  8
0
 62
     0
 10
83.5699
 20
91.9194
 30
0.0
 11
82.7691
 21
91.9194
 31
0.0
  0
LINE
  8
0
 62
     0
 10
82.7691
 20
91.9194
 30
0.0
 11
82.7691
 21
97.718
 31
0.0
  0
LINE
  8
0
 62
     0
 10
82.7691
 20
97.718
 30
0.0
 11
83.5699
 21
97.718
 31
0.0
  0
LINE
  8
0
 62
     0
 10
83.5699
 20
97.718
 30
0.0
 11
83.5699
 21
100.817
 31
0.0
  0
LINE
  8
0
 62
     0
 10
83.5699
 20
100.817
 30
0.0
 11
82.7691
 21
100.817
 31
0.0
  0
LINE
  8
0
 62
     0
 10
82.7691
 20
100.817
 30
0.0
 11
82.7691
 21
101.818
 31
0.0
  0
LINE
  8
0
 62
     0
 10
82.7691
 20
101.818
 30
0.0
 11
68.7698
 21
101.818
 31
0.0
  0
LINE
  8
0
 62
     0
 10
87.8198
 20
101.818
 30
0.0
 11
87.8198
 21
100.817
 31
0.0
  0
LINE
  8
0
 62
     0
 10
87.8198
 20
100.817
 30
0.0
 11
87.0204
 21
100.817
 31
0.0
  0
LINE
  8
0
 62
     0
 10
87.0204
 20
100.817
 30
0.0
 11
87.0204
 21
97.718
 31
0.0
  0
LINE
  8
0
 62
     0
 10
87.0204
 20
97.718
 30
0.0
 11
87.8198
 21
97.718
 31
0.0
  0
LINE
  8
0
 62
     0
 10
87.8198
 20
97.718
 30
0.0
 11
87.8198
 21
91.9194
 31
0.0
  0
LINE
  8
0
 62
     0
 10
87.8198
 20
91.9194
 30
0.0
 11
87.0204
 21
91.9194
 31
0.0
  0
LINE
  8
0
 62
     0
 10
87.0204
 20
91.9194
 30
0.0
 11
87.0204
 21
88.8175
 31
0.0
  0
LINE
  8
0
 62
     0
 10
87.0204
 20
88.8175
 30
0.0
 11
87.8198
 21
88.8175
 31
0.0
  0
LINE
  8
0
 62
     0
 10
87.8198
 20
88.8175
 30
0.0
 11
87.8198
 21
87.8184
 31
0.0
  0
LINE
  8
0
 62
     0
 10
87.8198
 20
87.8184
 30
0.0
 11
101.819
 21
87.8184
 31
0.0
  0
LINE
  8
0
 62
     0
 10
101.819
 20
87.8184
 30
0.0
 11
101.819
 21
88.8175
 31
0.0
  0
LINE
  8
0
 62
     0
 10
101.819
 20
88.8175
 30
0.0
 11
102.618
 21
88.8175
 31
0.0
  0
LINE
  8
0
 62
     0
 10
102.618
 20
88.8175
 30
0.0
 11
102.618
 21
91.9194
 31
0.0
  0
LINE
  8
0
 62
     0
 10
102.618
 20
91.9194
 30
0.0
 11
101.819
 21
91.9194
 31
0.0
  0
LINE
  8
0
 62
     0
 10
101.819
 20
91.9194
 30
0.0
 11
101.819
 21
97.718
 31
0.0
  0
LINE
  8
0
 62
     0
 10
101.819
 20
97.718
 30
0.0
 11
102.618
 21
97.718
 31
0.0
  0
LINE
  8
0
 62
     0
 10
102.618
 20
97.718
 30
0.0
 11
102.618
 21
100.817
 31
0.0
  0
LINE
  8
0
 62
     0
 10
102.618
 20
100.817
 30
0.0
 11
101.819
 21
100.817
 31
0.0
  0
LINE
  8
0
 62
     0
 10
101.819
 20
100.817
 30
0.0
 11
101.819
 21
101.818
 31
0.0
  0
LINE
  8
0
 62
     0
 10
101.819
 20
101.818
 30
0.0
 11
87.8198
 21
101.818
 31
0.0
  0
LINE
  8
0
 62
     0
 10
106.868
 20
101.818
 30
0.0
 11
106.868
 21
100.817
 31
0.0
  0
LINE
  8
0
 62
     0
 10
106.868
 20
100.817
 30
0.0
 11
106.07
 21
100.817
 31
0.0
  0
LINE
  8
0
 62
     0
 10
106.07
 20
100.817
 30
0.0
 11
106.07
 21
97.718
 31
0.0
  0
LINE
  8
0
 62
     0
 10
106.07
 20
97.718
 30
0.0
 11
106.868
 21
97.718
 31
0.0
  0
LINE
  8
0
 62
     0
 10
106.868
 20
97.718
 30
0.0
 11
106.868
 21
91.9194
 31
0.0
  0
LINE
  8
0
 62
     0
 10
106.868
 20
91.9194
 30
0.0
 11
106.07
 21
91.9194
 31
0.0
  0
LINE
  8
0
 62
     0
 10
106.07
 20
91.9194
 30
0.0
 11
106.07
 21
88.8175
 31
0.0
  0
LINE
  8
0
 62
     0
 10
106.07
 20
88.8175
 30
0.0
 11
106.868
 21
88.8175
 31
0.0
  0
LINE
  8
0
 62
     0
 10
106.868
 20
88.8175
 30
0.0
 11
106.868
 21
87.8184
 31
0.0
  0
LINE
  8
0
 62
     0
 10
106.868
 20
87.8184
 30
0.0
 11
120.869
 21
87.8184
 31
0.0
  0
LINE
  8
0
 62
     0
 10
120.869
 20
87.8184
 30
0.0
 11
120.869
 21
88.8175
 31
0.0
  0
LINE
  8
0
 62
     0
 10
120.869
 20
88.8175
 30
0.0
 11
121.668
 21
88.8175
 31
0.0
  0
LINE
  8
0
 62
     0
 10
121.668
 20
88.8175
 30
0.0
 11
121.668
 21
91.9194
 31
0.0
  0
LINE
  8
0
 62
     0
 10
121.668
 20
91.9194
 30
0.0
 11
120.869
 21
91.9194
 31
0.0
  0
LINE
  8
0
 62
     0
 10
120.869
 20
91.9194
 30
0.0
 11
120.869
 21
97.718
 31
0.0
  0
LINE
  8
0
 62
     0
 10
120.869
 20
97.718
 30
0.0
 11
121.668
 21
97.718
 31
0.0
  0
LINE
  8
0
 62
     0
 10
121.668
 20
97.718
 30
0.0
 11
121.668
 21
100.817
 31
0.0
  0
LINE
  8
0
 62
     0
 10
121.668
 20
100.817
 30
0.0
 11
120.869
 21
100.817
 31
0.0
  0
LINE
  8
0
 62
     0
 10
120.869
 20
100.817
 30
0.0
 11
120.869
 21
101.818
 31
0.0
  0
LINE
  8
0
 62
     0
 10
120.869
 20
101.818
 30
0.0
 11
106.868
 21
101.818
 31
0.0
  0
LINE
  8
0
 62
     0
 10
125.918
 20
101.818
 30
0.0
 11
125.918
 21
100.817
 31
0.0
  0
LINE
  8
0
 62
     0
 10
125.918
 20
100.817
 30
0.0
 11
125.119
 21
100.817
 31
0.0
  0
LINE
  8
0
 62
     0
 10
125.119
 20
100.817
 30
0.0
 11
125.119
 21
97.718
 31
0.0
  0
LINE
  8
0
 62
     0
 10
125.119
 20
97.718
 30
0.0
 11
125.918
 21
97.718
 31
0.0
  0
LINE
  8
0
 62
     0
 10
125.918
 20
97.718
 30
0.0
 11
125.918
 21
91.9194
 31
0.0
  0
LINE
  8
0
 62
     0
 10
125.918
 20
91.9194
 30
0.0
 11
125.119
 21
91.9194
 31
0.0
  0
LINE
  8
0
 62
     0
 10
125.119
 20
91.9194
 30
0.0
 11
125.119
 21
88.8175
 31
0.0
  0
LINE
  8
0
 62
     0
 10
125.119
 20
88.8175
 30
0.0
 11
125.918
 21
88.8175
 31
0.0
  0
LINE
  8
0
 62
     0
 10
125.918
 20
88.8175
 30
0.0
 11
125.918
 21
87.8184
 31
0.0
  0
LINE
  8
0
 62
     0
 10
125.918
 20
87.8184
 30
0.0
 11
139.919
 21
87.8184
 31
0.0
  0
LINE
  8
0
 62
     0
 10
139.919
 20
87.8184
 30
0.0
 11
139.919
 21
88.8175
 31
0.0
  0
LINE
  8
0
 62
     0
 10
139.919
 20
88.8175
 30
0.0
 11
140.72
 21
88.8175
 31
0.0
  0
LINE
  8
0
 62
     0
 10
140.72
 20
88.8175
 30
0.0
 11
140.72
 21
91.9194
 31
0.0
  0
LINE
  8
0
 62
     0
 10
140.72
 20
91.9194
 30
0.0
 11
139.919
 21
91.9194
 31
0.0
  0
LINE
  8
0
 62
     0
 10
139.919
 20
91.9194
 30
0.0
 11
139.919
 21
97.718
 31
0.0
  0
LINE
  8
0
 62
     0
 10
139.919
 20
97.718
 30
0.0
 11
140.72
 21
97.718
 31
0.0
  0
LINE
  8
0
 62
     0
 10
140.72
 20
97.718
 30
0.0
 11
140.72
 21
100.817
 31
0.0
  0
LINE
  8
0
 62
     0
 10
140.72
 20
100.817
 30
0.0
 11
139.919
 21
100.817
 31
0.0
  0
LINE
  8
0
 62
     0
 10
139.919
 20
100.817
 30
0.0
 11
139.919
 21
101.818
 31
0.0
  0
LINE
  8
0
 62
     0
 10
139.919
 20
101.818
 30
0.0
 11
125.918
 21
101.818
 31
0.0
  0
LINE
  8
0
 62
     0
 10
144.97
 20
101.818
 30
0.0
 11
144.97
 21
100.817
 31
0.0
  0
LINE
  8
0
 62
     0
 10
144.97
 20
100.817
 30
0.0
 11
144.17
 21
100.817
 31
0.0
  0
LINE
  8
0
 62
     0
 10
144.17
 20
100.817
 30
0.0
 11
144.17
 21
97.718
 31
0.0
  0
LINE
  8
0
 62
     0
 10
144.17
 20
97.718
 30
0.0
 11
144.97
 21
97.718
 31
0.0
  0
LINE
  8
0
 62
     0
 10
144.97
 20
97.718
 30
0.0
 11
144.97
 21
91.9194
 31
0.0
  0
LINE
  8
0
 62
     0
 10
144.97
 20
91.9194
 30
0.0
 11
144.17
 21
91.9194
 31
0.0
  0
LINE
  8
0
 62
     0
 10
144.17
 20
91.9194
 30
0.0
 11
144.17
 21
88.8175
 31
0.0
  0
LINE
  8
0
 62
     0
 10
144.17
 20
88.8175
 30
0.0
 11
144.97
 21
88.8175
 31
0.0
  0
LINE
  8
0
 62
     0
 10
144.97
 20
88.8175
 30
0.0
 11
144.97
 21
87.8184
 31
0.0
  0
LINE
  8
0
 62
     0
 10
144.97
 20
87.8184
 30
0.0
 11
158.969
 21
87.8184
 31
0.0
  0
LINE
  8
0
 62
     0
 10
158.969
 20
87.8184
 30
0.0
 11
158.969
 21
88.8175
 31
0.0
  0
LINE
  8
0
 62
     0
 10
158.969
 20
88.8175
 30
0.0
 11
159.77
 21
88.8175
 31
0.0
  0
LINE
  8
0
 62
     0
 10
159.77
 20
88.8175
 30
0.0
 11
159.77
 21
91.9194
 31
0.0
  0
LINE
  8
0
 62
     0
 10
159.77
 20
91.9194
 30
0.0
 11
158.969
 21
91.9194
 31
0.0
  0
LINE
  8
0
 62
     0
 10
158.969
 20
91.9194
 30
0.0
 11
158.969
 21
97.718
 31
0.0
  0
LINE
  8
0
 62
     0
 10
158.969
 20
97.718
 30
0.0
 11
159.77
 21
97.718
 31
0.0
  0
LINE
  8
0
 62
     0
 10
159.77
 20
97.718
 30
0.0
 11
159.77
 21
100.817
 31
0.0
  0
LINE
  8
0
 62
     0
 10
159.77
 20
100.817
 30
0.0
 11
158.969
 21
100.817
 31
0.0
  0
LINE
  8
0
 62
     0
 10
158.969
 20
100.817
 30
0.0
 11
158.969
 21
101.818
 31
0.0
  0
LINE
  8
0
 62
     0
 10
158.969
 20
101.818
 30
0.0
 11
144.97
 21
101.818
 31
0.0
  0
LINE
  8
0
 62
     0
 10
164.02
 20
101.818
 30
0.0
 11
164.02
 21
100.817
 31
0.0
  0
LINE
  8
0
 62
     0
 10
164.02
 20
100.817
 30
0.0
 11
163.22
 21
100.817
 31
0.0
  0
LINE
  8
0
 62
     0
 10
163.22
 20
100.817
 30
0.0
 11
163.22
 21
97.718
 31
0.0
  0
LINE
  8
0
 62
     0
 10
163.22
 20
97.718
 30
0.0
 11
164.02
 21
97.718
 31
0.0
  0
LINE
  8
0
 62
     0
 10
164.02
 20
97.718
 30
0.0
 11
164.02
 21
91.9194
 31
0.0
  0
LINE
  8
0
 62
     0
 10
164.02
 20
91.9194
 30
0.0
 11
163.22
 21
91.9194
 31
0.0
  0
LINE
  8
0
 62
     0
 10
163.22
 20
91.9194
 30
0.0
 11
163.22
 21
88.8175
 31
0.0
  0
LINE
  8
0
 62
     0
 10
163.22
 20
88.8175
 30
0.0
 11
164.02
 21
88.8175
 31
0.0
  0
LINE
  8
0
 62
     0
 10
164.02
 20
88.8175
 30
0.0
 11
164.02
 21
87.8184
 31
0.0
  0
LINE
  8
0
 62
     0
 10
164.02
 20
87.8184
 30
0.0
 11
178.019
 21
87.8184
 31
0.0
  0
LINE
  8
0
 62
     0
 10
178.019
 20
87.8184
 30
0.0
 11
178.019
 21
88.8175
 31
0.0
  0
LINE
  8
0
 62
     0
 10
178.019
 20
88.8175
 30
0.0
 11
178.82
 21
88.8175
 31
0.0
  0
LINE
  8
0
 62
     0
 10
178.82
 20
88.8175
 30
0.0
 11
178.82
 21
91.9194
 31
0.0
  0
LINE
  8
0
 62
     0
 10
178.82
 20
91.9194
 30
0.0
 11
178.019
 21
91.9194
 31
0.0
  0
LINE
  8
0
 62
     0
 10
178.019
 20
91.9194
 30
0.0
 11
178.019
 21
97.718
 31
0.0
  0
LINE
  8
0
 62
     0
 10
178.019
 20
97.718
 30
0.0
 11
178.82
 21
97.718
 31
0.0
  0
LINE
  8
0
 62
     0
 10
178.82
 20
97.718
 30
0.0
 11
178.82
 21
100.817
 31
0.0
  0
LINE
  8
0
 62
     0
 10
178.82
 20
100.817
 30
0.0
 11
178.019
 21
100.817
 31
0.0
  0
LINE
  8
0
 62
     0
 10
178.019
 20
100.817
 30
0.0
 11
178.019
 21
101.818
 31
0.0
  0
LINE
  8
0
 62
     0
 10
178.019
 20
101.818
 30
0.0
 11
164.02
 21
101.818
 31
0.0
  0
LINE
  8
0
 62
     0
 10
183.07
 20
101.818
 30
0.0
 11
183.07
 21
100.817
 31
0.0
  0
LINE
  8
0
 62
     0
 10
183.07
 20
100.817
 30
0.0
 11
182.27
 21
100.817
 31
0.0
  0
LINE
  8
0
 62
     0
 10
182.27
 20
100.817
 30
0.0
 11
182.27
 21
97.718
 31
0.0
  0
LINE
  8
0
 62
     0
 10
182.27
 20
97.718
 30
0.0
 11
183.07
 21
97.718
 31
0.0
  0
LINE
  8
0
 62
     0
 10
183.07
 20
97.718
 30
0.0
 11
183.07
 21
91.9194
 31
0.0
  0
LINE
  8
0
 62
     0
 10
183.07
 20
91.9194
 30
0.0
 11
182.27
 21
91.9194
 31
0.0
  0
LINE
  8
0
 62
     0
 10
182.27
 20
91.9194
 30
0.0
 11
182.27
 21
88.8175
 31
0.0
  0
LINE
  8
0
 62
     0
 10
182.27
 20
88.8175
 30
0.0
 11
183.07
 21
88.8175
 31
0.0
  0
LINE
  8
0
 62
     0
 10
183.07
 20
88.8175
 30
0.0
 11
183.07
 21
87.8184
 31
0.0
  0
LINE
  8
0
 62
     0
 10
183.07
 20
87.8184
 30
0.0
 11
197.069
 21
87.8184
 31
0.0
  0
LINE
  8
0
 62
     0
 10
197.069
 20
87.8184
 30
0.0
 11
197.069
 21
88.8175
 31
0.0
  0
LINE
  8
0
 62
     0
 10
197.069
 20
88.8175
 30
0.0
 11
197.87
 21
88.8175
 31
0.0
  0
LINE
  8
0
 62
     0
 10
197.87
 20
88.8175
 30
0.0
 11
197.87
 21
91.9194
 31
0.0
  0
LINE
  8
0
 62
     0
 10
197.87
 20
91.9194
 30
0.0
 11
197.069
 21
91.9194
 31
0.0
  0
LINE
  8
0
 62
     0
 10
197.069
 20
91.9194
 30
0.0
 11
197.069
 21
97.718
 31
0.0
  0
LINE
  8
0
 62
     0
 10
197.069
 20
97.718
 30
0.0
 11
197.87
 21
97.718
 31
0.0
  0
LINE
  8
0
 62
     0
 10
197.87
 20
97.718
 30
0.0
 11
197.87
 21
100.817
 31
0.0
  0
LINE
  8
0
 62
     0
 10
197.87
 20
100.817
 30
0.0
 11
197.069
 21
100.817
 31
0.0
  0
LINE
  8
0
 62
     0
 10
197.069
 20
100.817
 30
0.0
 11
197.069
 21
101.818
 31
0.0
  0
LINE
  8
0
 62
     0
 10
197.069
 20
101.818
 30
0.0
 11
183.07
 21
101.818
 31
0.0
  0
LINE
  8
0
 62
     0
 10
202.12
 20
101.818
 30
0.0
 11
202.12
 21
100.817
 31
0.0
  0
LINE
  8
0
 62
     0
 10
202.12
 20
100.817
 30
0.0
 11
201.32
 21
100.817
 31
0.0
  0
LINE
  8
0
 62
     0
 10
201.32
 20
100.817
 30
0.0
 11
201.32
 21
97.718
 31
0.0
  0
LINE
  8
0
 62
     0
 10
201.32
 20
97.718
 30
0.0
 11
202.12
 21
97.718
 31
0.0
  0
LINE
  8
0
 62
     0
 10
202.12
 20
97.718
 30
0.0
 11
202.12
 21
91.9194
 31
0.0
  0
LINE
  8
0
 62
     0
 10
202.12
 20
91.9194
 30
0.0
 11
201.32
 21
91.9194
 31
0.0
  0
LINE
  8
0
 62
     0
 10
201.32
 20
91.9194
 30
0.0
 11
201.32
 21
88.8175
 31
0.0
  0
LINE
  8
0
 62
     0
 10
201.32
 20
88.8175
 30
0.0
 11
202.12
 21
88.8175
 31
0.0
  0
LINE
  8
0
 62
     0
 10
202.12
 20
88.8175
 30
0.0
 11
202.12
 21
87.8184
 31
0.0
  0
LINE
  8
0
 62
     0
 10
202.12
 20
87.8184
 30
0.0
 11
216.119
 21
87.8184
 31
0.0
  0
LINE
  8
0
 62
     0
 10
216.119
 20
87.8184
 30
0.0
 11
216.119
 21
88.8175
 31
0.0
  0
LINE
  8
0
 62
     0
 10
216.119
 20
88.8175
 30
0.0
 11
216.92
 21
88.8175
 31
0.0
  0
LINE
  8
0
 62
     0
 10
216.92
 20
88.8175
 30
0.0
 11
216.92
 21
91.9194
 31
0.0
  0
LINE
  8
0
 62
     0
 10
216.92
 20
91.9194
 30
0.0
 11
216.119
 21
91.9194
 31
0.0
  0
LINE
  8
0
 62
     0
 10
216.119
 20
91.9194
 30
0.0
 11
216.119
 21
97.718
 31
0.0
  0
LINE
  8
0
 62
     0
 10
216.119
 20
97.718
 30
0.0
 11
216.92
 21
97.718
 31
0.0
  0
LINE
  8
0
 62
     0
 10
216.92
 20
97.718
 30
0.0
 11
216.92
 21
100.817
 31
0.0
  0
LINE
  8
0
 62
     0
 10
216.92
 20
100.817
 30
0.0
 11
216.119
 21
100.817
 31
0.0
  0
LINE
  8
0
 62
     0
 10
216.119
 20
100.817
 30
0.0
 11
216.119
 21
101.818
 31
0.0
  0
LINE
  8
0
 62
     0
 10
216.119
 20
101.818
 30
0.0
 11
202.12
 21
101.818
 31
0.0
  0
LINE
  8
0
 62
     0
 10
221.17
 20
101.818
 30
0.0
 11
221.17
 21
100.817
 31
0.0
  0
LINE
  8
0
 62
     0
 10
221.17
 20
100.817
 30
0.0
 11
220.37
 21
100.817
 31
0.0
  0
LINE
  8
0
 62
     0
 10
220.37
 20
100.817
 30
0.0
 11
220.37
 21
97.718
 31
0.0
  0
LINE
  8
0
 62
     0
 10
220.37
 20
97.718
 30
0.0
 11
221.17
 21
97.718
 31
0.0
  0
LINE
  8
0
 62
     0
 10
221.17
 20
97.718
 30
0.0
 11
221.17
 21
91.9194
 31
0.0
  0
LINE
  8
0
 62
     0
 10
221.17
 20
91.9194
 30
0.0
 11
220.37
 21
91.9194
 31
0.0
  0
LINE
  8
0
 62
     0
 10
220.37
 20
91.9194
 30
0.0
 11
220.37
 21
88.8175
 31
0.0
  0
LINE
  8
0
 62
     0
 10
220.37
 20
88.8175
 30
0.0
 11
221.17
 21
88.8175
 31
0.0
  0
LINE
  8
0
 62
     0
 10
221.17
 20
88.8175
 30
0.0
 11
221.17
 21
87.8184
 31
0.0
  0
LINE
  8
0
 62
     0
 10
221.17
 20
87.8184
 30
0.0
 11
235.169
 21
87.8184
 31
0.0
  0
LINE
  8
0
 62
     0
 10
235.169
 20
87.8184
 30
0.0
 11
235.169
 21
88.8175
 31
0.0
  0
LINE
  8
0
 62
     0
 10
235.169
 20
88.8175
 30
0.0
 11
235.97
 21
88.8175
 31
0.0
  0
LINE
  8
0
 62
     0
 10
235.97
 20
88.8175
 30
0.0
 11
235.97
 21
91.9194
 31
0.0
  0
LINE
  8
0
 62
     0
 10
235.97
 20
91.9194
 30
0.0
 11
235.169
 21
91.9194
 31
0.0
  0
LINE
  8
0
 62
     0
 10
235.169
 20
91.9194
 30
0.0
 11
235.169
 21
97.718
 31
0.0
  0
LINE
  8
0
 62
     0
 10
235.169
 20
97.718
 30
0.0
 11
235.97
 21
97.718
 31
0.0
  0
LINE
  8
0
 62
     0
 10
235.97
 20
97.718
 30
0.0
 11
235.97
 21
100.817
 31
0.0
  0
LINE
  8
0
 62
     0
 10
235.97
 20
100.817
 30
0.0
 11
235.169
 21
100.817
 31
0.0
  0
LINE
  8
0
 62
     0
 10
235.169
 20
100.817
 30
0.0
 11
235.169
 21
101.818
 31
0.0
  0
LINE
  8
0
 62
     0
 10
235.169
 20
101.818
 30
0.0
 11
221.17
 21
101.818
 31
0.0
  0
ENDSEC
  0
EOF
