G04 #@! TF.GenerationSoftware,KiCad,Pcbnew,5.1.1*
G04 #@! TF.CreationDate,2019-04-22T18:18:19+02:00*
G04 #@! TF.ProjectId,pcb,7063622e-6b69-4636-9164-5f7063625858,rev?*
G04 #@! TF.SameCoordinates,Original*
G04 #@! TF.FileFunction,Copper,L1,Top*
G04 #@! TF.FilePolarity,Positive*
%FSLAX46Y46*%
G04 Gerber Fmt 4.6, Leading zero omitted, Abs format (unit mm)*
G04 Created by KiCad (PCBNEW 5.1.1) date 2019-04-22 18:18:19*
%MOMM*%
%LPD*%
G04 APERTURE LIST*
%ADD10C,0.100000*%
%ADD11C,1.150000*%
%ADD12C,2.000000*%
%ADD13C,0.650000*%
%ADD14O,0.800000X1.400000*%
%ADD15O,1.600000X1.600000*%
%ADD16R,1.600000X1.600000*%
%ADD17C,0.600000*%
%ADD18C,0.152400*%
G04 APERTURE END LIST*
D10*
G36*
X85564505Y-34614204D02*
G01*
X85588773Y-34617804D01*
X85612572Y-34623765D01*
X85635671Y-34632030D01*
X85657850Y-34642520D01*
X85678893Y-34655132D01*
X85698599Y-34669747D01*
X85716777Y-34686223D01*
X85733253Y-34704401D01*
X85747868Y-34724107D01*
X85760480Y-34745150D01*
X85770970Y-34767329D01*
X85779235Y-34790428D01*
X85785196Y-34814227D01*
X85788796Y-34838495D01*
X85790000Y-34862999D01*
X85790000Y-35513001D01*
X85788796Y-35537505D01*
X85785196Y-35561773D01*
X85779235Y-35585572D01*
X85770970Y-35608671D01*
X85760480Y-35630850D01*
X85747868Y-35651893D01*
X85733253Y-35671599D01*
X85716777Y-35689777D01*
X85698599Y-35706253D01*
X85678893Y-35720868D01*
X85657850Y-35733480D01*
X85635671Y-35743970D01*
X85612572Y-35752235D01*
X85588773Y-35758196D01*
X85564505Y-35761796D01*
X85540001Y-35763000D01*
X84639999Y-35763000D01*
X84615495Y-35761796D01*
X84591227Y-35758196D01*
X84567428Y-35752235D01*
X84544329Y-35743970D01*
X84522150Y-35733480D01*
X84501107Y-35720868D01*
X84481401Y-35706253D01*
X84463223Y-35689777D01*
X84446747Y-35671599D01*
X84432132Y-35651893D01*
X84419520Y-35630850D01*
X84409030Y-35608671D01*
X84400765Y-35585572D01*
X84394804Y-35561773D01*
X84391204Y-35537505D01*
X84390000Y-35513001D01*
X84390000Y-34862999D01*
X84391204Y-34838495D01*
X84394804Y-34814227D01*
X84400765Y-34790428D01*
X84409030Y-34767329D01*
X84419520Y-34745150D01*
X84432132Y-34724107D01*
X84446747Y-34704401D01*
X84463223Y-34686223D01*
X84481401Y-34669747D01*
X84501107Y-34655132D01*
X84522150Y-34642520D01*
X84544329Y-34632030D01*
X84567428Y-34623765D01*
X84591227Y-34617804D01*
X84615495Y-34614204D01*
X84639999Y-34613000D01*
X85540001Y-34613000D01*
X85564505Y-34614204D01*
X85564505Y-34614204D01*
G37*
D11*
X85090000Y-35188000D03*
D10*
G36*
X85564505Y-32564204D02*
G01*
X85588773Y-32567804D01*
X85612572Y-32573765D01*
X85635671Y-32582030D01*
X85657850Y-32592520D01*
X85678893Y-32605132D01*
X85698599Y-32619747D01*
X85716777Y-32636223D01*
X85733253Y-32654401D01*
X85747868Y-32674107D01*
X85760480Y-32695150D01*
X85770970Y-32717329D01*
X85779235Y-32740428D01*
X85785196Y-32764227D01*
X85788796Y-32788495D01*
X85790000Y-32812999D01*
X85790000Y-33463001D01*
X85788796Y-33487505D01*
X85785196Y-33511773D01*
X85779235Y-33535572D01*
X85770970Y-33558671D01*
X85760480Y-33580850D01*
X85747868Y-33601893D01*
X85733253Y-33621599D01*
X85716777Y-33639777D01*
X85698599Y-33656253D01*
X85678893Y-33670868D01*
X85657850Y-33683480D01*
X85635671Y-33693970D01*
X85612572Y-33702235D01*
X85588773Y-33708196D01*
X85564505Y-33711796D01*
X85540001Y-33713000D01*
X84639999Y-33713000D01*
X84615495Y-33711796D01*
X84591227Y-33708196D01*
X84567428Y-33702235D01*
X84544329Y-33693970D01*
X84522150Y-33683480D01*
X84501107Y-33670868D01*
X84481401Y-33656253D01*
X84463223Y-33639777D01*
X84446747Y-33621599D01*
X84432132Y-33601893D01*
X84419520Y-33580850D01*
X84409030Y-33558671D01*
X84400765Y-33535572D01*
X84394804Y-33511773D01*
X84391204Y-33487505D01*
X84390000Y-33463001D01*
X84390000Y-32812999D01*
X84391204Y-32788495D01*
X84394804Y-32764227D01*
X84400765Y-32740428D01*
X84409030Y-32717329D01*
X84419520Y-32695150D01*
X84432132Y-32674107D01*
X84446747Y-32654401D01*
X84463223Y-32636223D01*
X84481401Y-32619747D01*
X84501107Y-32605132D01*
X84522150Y-32592520D01*
X84544329Y-32582030D01*
X84567428Y-32573765D01*
X84591227Y-32567804D01*
X84615495Y-32564204D01*
X84639999Y-32563000D01*
X85540001Y-32563000D01*
X85564505Y-32564204D01*
X85564505Y-32564204D01*
G37*
D11*
X85090000Y-33138000D03*
D12*
X53825000Y-106680000D03*
X53825000Y-111180000D03*
X60325000Y-106680000D03*
X60325000Y-111180000D03*
D10*
G36*
X68049505Y-29146204D02*
G01*
X68073773Y-29149804D01*
X68097572Y-29155765D01*
X68120671Y-29164030D01*
X68142850Y-29174520D01*
X68163893Y-29187132D01*
X68183599Y-29201747D01*
X68201777Y-29218223D01*
X68218253Y-29236401D01*
X68232868Y-29256107D01*
X68245480Y-29277150D01*
X68255970Y-29299329D01*
X68264235Y-29322428D01*
X68270196Y-29346227D01*
X68273796Y-29370495D01*
X68275000Y-29394999D01*
X68275000Y-30295001D01*
X68273796Y-30319505D01*
X68270196Y-30343773D01*
X68264235Y-30367572D01*
X68255970Y-30390671D01*
X68245480Y-30412850D01*
X68232868Y-30433893D01*
X68218253Y-30453599D01*
X68201777Y-30471777D01*
X68183599Y-30488253D01*
X68163893Y-30502868D01*
X68142850Y-30515480D01*
X68120671Y-30525970D01*
X68097572Y-30534235D01*
X68073773Y-30540196D01*
X68049505Y-30543796D01*
X68025001Y-30545000D01*
X67374999Y-30545000D01*
X67350495Y-30543796D01*
X67326227Y-30540196D01*
X67302428Y-30534235D01*
X67279329Y-30525970D01*
X67257150Y-30515480D01*
X67236107Y-30502868D01*
X67216401Y-30488253D01*
X67198223Y-30471777D01*
X67181747Y-30453599D01*
X67167132Y-30433893D01*
X67154520Y-30412850D01*
X67144030Y-30390671D01*
X67135765Y-30367572D01*
X67129804Y-30343773D01*
X67126204Y-30319505D01*
X67125000Y-30295001D01*
X67125000Y-29394999D01*
X67126204Y-29370495D01*
X67129804Y-29346227D01*
X67135765Y-29322428D01*
X67144030Y-29299329D01*
X67154520Y-29277150D01*
X67167132Y-29256107D01*
X67181747Y-29236401D01*
X67198223Y-29218223D01*
X67216401Y-29201747D01*
X67236107Y-29187132D01*
X67257150Y-29174520D01*
X67279329Y-29164030D01*
X67302428Y-29155765D01*
X67326227Y-29149804D01*
X67350495Y-29146204D01*
X67374999Y-29145000D01*
X68025001Y-29145000D01*
X68049505Y-29146204D01*
X68049505Y-29146204D01*
G37*
D11*
X67700000Y-29845000D03*
D10*
G36*
X65999505Y-29146204D02*
G01*
X66023773Y-29149804D01*
X66047572Y-29155765D01*
X66070671Y-29164030D01*
X66092850Y-29174520D01*
X66113893Y-29187132D01*
X66133599Y-29201747D01*
X66151777Y-29218223D01*
X66168253Y-29236401D01*
X66182868Y-29256107D01*
X66195480Y-29277150D01*
X66205970Y-29299329D01*
X66214235Y-29322428D01*
X66220196Y-29346227D01*
X66223796Y-29370495D01*
X66225000Y-29394999D01*
X66225000Y-30295001D01*
X66223796Y-30319505D01*
X66220196Y-30343773D01*
X66214235Y-30367572D01*
X66205970Y-30390671D01*
X66195480Y-30412850D01*
X66182868Y-30433893D01*
X66168253Y-30453599D01*
X66151777Y-30471777D01*
X66133599Y-30488253D01*
X66113893Y-30502868D01*
X66092850Y-30515480D01*
X66070671Y-30525970D01*
X66047572Y-30534235D01*
X66023773Y-30540196D01*
X65999505Y-30543796D01*
X65975001Y-30545000D01*
X65324999Y-30545000D01*
X65300495Y-30543796D01*
X65276227Y-30540196D01*
X65252428Y-30534235D01*
X65229329Y-30525970D01*
X65207150Y-30515480D01*
X65186107Y-30502868D01*
X65166401Y-30488253D01*
X65148223Y-30471777D01*
X65131747Y-30453599D01*
X65117132Y-30433893D01*
X65104520Y-30412850D01*
X65094030Y-30390671D01*
X65085765Y-30367572D01*
X65079804Y-30343773D01*
X65076204Y-30319505D01*
X65075000Y-30295001D01*
X65075000Y-29394999D01*
X65076204Y-29370495D01*
X65079804Y-29346227D01*
X65085765Y-29322428D01*
X65094030Y-29299329D01*
X65104520Y-29277150D01*
X65117132Y-29256107D01*
X65131747Y-29236401D01*
X65148223Y-29218223D01*
X65166401Y-29201747D01*
X65186107Y-29187132D01*
X65207150Y-29174520D01*
X65229329Y-29164030D01*
X65252428Y-29155765D01*
X65276227Y-29149804D01*
X65300495Y-29146204D01*
X65324999Y-29145000D01*
X65975001Y-29145000D01*
X65999505Y-29146204D01*
X65999505Y-29146204D01*
G37*
D11*
X65650000Y-29845000D03*
D13*
X64275000Y-34760000D03*
X65075000Y-34760000D03*
X65875000Y-34760000D03*
X67475000Y-34760000D03*
X68275000Y-34760000D03*
X69075000Y-34760000D03*
X63875000Y-35460000D03*
X65475000Y-35460000D03*
X66275000Y-35460000D03*
X67075000Y-35460000D03*
X67875000Y-35460000D03*
X69475000Y-35460000D03*
D14*
X62185000Y-28910000D03*
X71165000Y-28910000D03*
X70805000Y-34860000D03*
X62545000Y-34860000D03*
D15*
X256540000Y-122555000D03*
D16*
X256540000Y-114935000D03*
D15*
X237490000Y-122555000D03*
D16*
X237490000Y-114935000D03*
D15*
X218440000Y-122555000D03*
D16*
X218440000Y-114935000D03*
D15*
X199390000Y-122555000D03*
D16*
X199390000Y-114935000D03*
D15*
X180340000Y-122555000D03*
D16*
X180340000Y-114935000D03*
D15*
X138430000Y-106045000D03*
D16*
X146050000Y-106045000D03*
D15*
X123190000Y-122555000D03*
D16*
X123190000Y-114935000D03*
D15*
X104140000Y-122555000D03*
D16*
X104140000Y-114935000D03*
D15*
X85090000Y-122555000D03*
D16*
X85090000Y-114935000D03*
D15*
X66040000Y-122555000D03*
D16*
X66040000Y-114935000D03*
D15*
X46990000Y-122555000D03*
D16*
X46990000Y-114935000D03*
D15*
X256540000Y-103505000D03*
D16*
X256540000Y-95885000D03*
D15*
X237490000Y-103505000D03*
D16*
X237490000Y-95885000D03*
D15*
X218440000Y-103505000D03*
D16*
X218440000Y-95885000D03*
D15*
X199390000Y-103505000D03*
D16*
X199390000Y-95885000D03*
D15*
X180340000Y-103505000D03*
D16*
X180340000Y-95885000D03*
D15*
X161290000Y-102235000D03*
D16*
X161290000Y-94615000D03*
D15*
X142240000Y-103505000D03*
D16*
X142240000Y-95885000D03*
D15*
X123190000Y-103505000D03*
D16*
X123190000Y-95885000D03*
D15*
X104140000Y-103505000D03*
D16*
X104140000Y-95885000D03*
D15*
X85090000Y-103505000D03*
D16*
X85090000Y-95885000D03*
D15*
X66040000Y-103505000D03*
D16*
X66040000Y-95885000D03*
D15*
X46990000Y-103505000D03*
D16*
X46990000Y-95885000D03*
D15*
X256540000Y-84455000D03*
D16*
X256540000Y-76835000D03*
D15*
X237490000Y-84455000D03*
D16*
X237490000Y-76835000D03*
D15*
X218440000Y-84455000D03*
D16*
X218440000Y-76835000D03*
D15*
X199390000Y-84455000D03*
D16*
X199390000Y-76835000D03*
D15*
X180340000Y-84455000D03*
D16*
X180340000Y-76835000D03*
D15*
X161290000Y-84455000D03*
D16*
X161290000Y-76835000D03*
D15*
X142240000Y-84455000D03*
D16*
X142240000Y-76835000D03*
D15*
X123190000Y-84455000D03*
D16*
X123190000Y-76835000D03*
D15*
X104140000Y-84455000D03*
D16*
X104140000Y-76835000D03*
D15*
X85090000Y-84455000D03*
D16*
X85090000Y-76835000D03*
D15*
X66040000Y-84455000D03*
D16*
X66040000Y-76835000D03*
D15*
X46990000Y-84455000D03*
D16*
X46990000Y-76835000D03*
D15*
X256540000Y-65405000D03*
D16*
X256540000Y-57785000D03*
D15*
X237490000Y-65405000D03*
D16*
X237490000Y-57785000D03*
D15*
X218440000Y-65405000D03*
D16*
X218440000Y-57785000D03*
D15*
X199390000Y-65405000D03*
D16*
X199390000Y-57785000D03*
D15*
X180340000Y-65405000D03*
D16*
X180340000Y-57785000D03*
D15*
X161290000Y-65405000D03*
D16*
X161290000Y-57785000D03*
D15*
X142240000Y-65405000D03*
D16*
X142240000Y-57785000D03*
D15*
X123190000Y-65405000D03*
D16*
X123190000Y-57785000D03*
D15*
X104140000Y-65405000D03*
D16*
X104140000Y-57785000D03*
D15*
X85090000Y-65405000D03*
D16*
X85090000Y-57785000D03*
D15*
X66040000Y-65405000D03*
D16*
X66040000Y-57785000D03*
D15*
X46990000Y-65405000D03*
D16*
X46990000Y-57785000D03*
D15*
X256540000Y-46355000D03*
D16*
X256540000Y-38735000D03*
D15*
X237490000Y-46355000D03*
D16*
X237490000Y-38735000D03*
D15*
X218440000Y-46355000D03*
D16*
X218440000Y-38735000D03*
D15*
X199390000Y-46355000D03*
D16*
X199390000Y-38735000D03*
D15*
X180340000Y-46355000D03*
D16*
X180340000Y-38735000D03*
D15*
X161290000Y-46355000D03*
D16*
X161290000Y-38735000D03*
D15*
X142240000Y-46355000D03*
D16*
X142240000Y-38735000D03*
D15*
X123190000Y-46355000D03*
D16*
X123190000Y-38735000D03*
D15*
X104140000Y-46355000D03*
D16*
X104140000Y-38735000D03*
D15*
X85090000Y-46355000D03*
D16*
X85090000Y-38735000D03*
D15*
X66040000Y-46990000D03*
D16*
X66040000Y-39370000D03*
D15*
X46990000Y-46355000D03*
D16*
X46990000Y-38735000D03*
D17*
X171069000Y-110744000D03*
X162395000Y-107150000D03*
X159360000Y-108560000D03*
X167195000Y-110935000D03*
X73025000Y-36195000D03*
X163995100Y-118808500D03*
X163195000Y-118808500D03*
X162394900Y-118808500D03*
X161594800Y-118808500D03*
X160794700Y-118808500D03*
X159994600Y-118808500D03*
X158826200Y-110947200D03*
X158826200Y-111760000D03*
X158826200Y-112572800D03*
X158826200Y-113360200D03*
X158826200Y-114173000D03*
X148717000Y-106045000D03*
X151765000Y-116205000D03*
X155575000Y-110490000D03*
X153670000Y-112395000D03*
X35560000Y-106680000D03*
X41275000Y-54610000D03*
X243205000Y-106680000D03*
X245110000Y-55700000D03*
X72390000Y-31115000D03*
X69850000Y-39370000D03*
X57785000Y-120650000D03*
X57785000Y-123825000D03*
X183515000Y-104775000D03*
X182880000Y-123190000D03*
X161594800Y-104749600D03*
X85725000Y-30480000D03*
X160794700Y-104749600D03*
X85725000Y-31750000D03*
X168894760Y-106898440D03*
X177165000Y-46355000D03*
X167195500Y-104782620D03*
X165735000Y-67945000D03*
X166392860Y-104782620D03*
X166392860Y-87017860D03*
X157480000Y-105918000D03*
X34925000Y-49530000D03*
X34925000Y-109220000D03*
X146050000Y-48260000D03*
X155575000Y-116205000D03*
X153035000Y-114935000D03*
D18*
X160985000Y-108560000D02*
X162395000Y-107150000D01*
X159360000Y-108560000D02*
X160985000Y-108560000D01*
X162395000Y-107150000D02*
X162395000Y-107785000D01*
X165545000Y-110935000D02*
X167195000Y-110935000D01*
X162395000Y-107785000D02*
X165545000Y-110935000D01*
X170878000Y-110935000D02*
X171069000Y-110744000D01*
X167195000Y-110935000D02*
X170878000Y-110935000D01*
X64715000Y-28910000D02*
X65650000Y-29845000D01*
X62185000Y-28910000D02*
X64715000Y-28910000D01*
X65650000Y-29845000D02*
X66920000Y-28575000D01*
X66920000Y-28575000D02*
X69850000Y-28575000D01*
X70277600Y-28575000D02*
X69850000Y-28575000D01*
X70612600Y-28910000D02*
X70277600Y-28575000D01*
X71165000Y-28910000D02*
X70612600Y-28910000D01*
X73025000Y-36195000D02*
X73025000Y-38735000D01*
X73025000Y-38735000D02*
X70485000Y-41275000D01*
X70485000Y-41275000D02*
X65405000Y-41275000D01*
X65405000Y-41275000D02*
X64135000Y-40005000D01*
X64135000Y-36800000D02*
X65475000Y-35460000D01*
X64135000Y-40005000D02*
X64135000Y-36800000D01*
X74032000Y-35188000D02*
X73025000Y-36195000D01*
X85090000Y-35188000D02*
X74032000Y-35188000D01*
X48895000Y-63500000D02*
X46990000Y-65405000D01*
X46990000Y-46355000D02*
X48895000Y-48260000D01*
X48895000Y-48260000D02*
X48895000Y-63500000D01*
X48895000Y-82550000D02*
X46990000Y-84455000D01*
X46990000Y-65405000D02*
X48895000Y-67310000D01*
X48895000Y-67310000D02*
X48895000Y-82550000D01*
X48895000Y-101600000D02*
X46990000Y-103505000D01*
X46990000Y-84455000D02*
X48895000Y-86360000D01*
X48895000Y-86360000D02*
X48895000Y-101600000D01*
X48895000Y-120650000D02*
X46990000Y-122555000D01*
X46990000Y-103505000D02*
X48895000Y-105410000D01*
X48895000Y-105410000D02*
X48895000Y-120650000D01*
X49110841Y-124675841D02*
X46990000Y-122555000D01*
X49161641Y-124675841D02*
X49110841Y-124675841D01*
X49885641Y-125399841D02*
X49161641Y-124675841D01*
X163695101Y-119108499D02*
X163695101Y-119372101D01*
X163995100Y-118808500D02*
X163695101Y-119108499D01*
X163695101Y-119372101D02*
X162691771Y-120375431D01*
X162691771Y-120375431D02*
X161091405Y-120375431D01*
X156066996Y-125399841D02*
X49885641Y-125399841D01*
X161091405Y-120375431D02*
X156066996Y-125399841D01*
X67945000Y-63500000D02*
X66040000Y-65405000D01*
X67945000Y-82550000D02*
X66040000Y-84455000D01*
X66040000Y-65405000D02*
X67945000Y-67310000D01*
X67945000Y-67310000D02*
X67945000Y-82550000D01*
X67945000Y-101600000D02*
X66040000Y-103505000D01*
X66040000Y-84455000D02*
X67945000Y-86360000D01*
X67945000Y-86360000D02*
X67945000Y-101600000D01*
X66040000Y-103505000D02*
X67945000Y-105410000D01*
X67945000Y-120650000D02*
X66040000Y-122555000D01*
X67945000Y-105410000D02*
X67945000Y-120650000D01*
X162478979Y-120096021D02*
X163195000Y-119380000D01*
X160975671Y-120096021D02*
X162478979Y-120096021D01*
X163195000Y-119380000D02*
X163195000Y-118808500D01*
X155951261Y-125120431D02*
X160975671Y-120096021D01*
X66040000Y-122555000D02*
X68605431Y-125120431D01*
X68605431Y-125120431D02*
X155951261Y-125120431D01*
X67945000Y-48895000D02*
X66040000Y-46990000D01*
X67945000Y-63500000D02*
X67945000Y-48895000D01*
X86995000Y-105410000D02*
X85090000Y-103505000D01*
X85090000Y-122555000D02*
X86995000Y-120650000D01*
X86995000Y-120650000D02*
X86995000Y-105410000D01*
X85090000Y-103505000D02*
X86995000Y-101600000D01*
X86995000Y-86360000D02*
X85090000Y-84455000D01*
X86995000Y-101600000D02*
X86995000Y-86360000D01*
X85090000Y-84455000D02*
X86995000Y-82550000D01*
X86995000Y-67310000D02*
X85090000Y-65405000D01*
X86995000Y-82550000D02*
X86995000Y-67310000D01*
X86995000Y-63500000D02*
X85090000Y-65405000D01*
X85090000Y-46355000D02*
X86995000Y-48260000D01*
X86995000Y-48260000D02*
X86995000Y-63500000D01*
X162394900Y-119392700D02*
X161970989Y-119816611D01*
X161970989Y-119816611D02*
X160859936Y-119816611D01*
X85889999Y-123354999D02*
X85090000Y-122555000D01*
X160859936Y-119816611D02*
X155835526Y-124841021D01*
X162394900Y-118808500D02*
X162394900Y-119392700D01*
X155835526Y-124841021D02*
X87376021Y-124841021D01*
X87376021Y-124841021D02*
X85889999Y-123354999D01*
X104140000Y-103505000D02*
X106045000Y-105410000D01*
X106045000Y-105410000D02*
X106045000Y-120650000D01*
X106045000Y-120650000D02*
X104140000Y-122555000D01*
X106045000Y-63500000D02*
X104140000Y-65405000D01*
X104140000Y-46355000D02*
X106045000Y-48260000D01*
X106045000Y-48260000D02*
X106045000Y-63500000D01*
X106045000Y-67310000D02*
X104140000Y-65405000D01*
X104140000Y-84455000D02*
X106045000Y-82550000D01*
X106045000Y-82550000D02*
X106045000Y-67310000D01*
X104140000Y-84455000D02*
X104939999Y-85254999D01*
X104939999Y-85254999D02*
X106045000Y-86360000D01*
X106045000Y-86360000D02*
X106045000Y-101600000D01*
X104140000Y-103505000D02*
X104939999Y-102705001D01*
X104939999Y-102705001D02*
X106045000Y-101600000D01*
X161594800Y-118808500D02*
X161594800Y-119232764D01*
X155719792Y-124561611D02*
X106146611Y-124561611D01*
X160744202Y-119537201D02*
X155719792Y-124561611D01*
X161437599Y-119537201D02*
X160744202Y-119537201D01*
X106146611Y-124561611D02*
X104140000Y-122555000D01*
X161594800Y-119156564D02*
X161594800Y-119380000D01*
X161594800Y-119380000D02*
X161437599Y-119537201D01*
X123190000Y-103505000D02*
X125095000Y-105410000D01*
X125095000Y-105410000D02*
X125095000Y-120650000D01*
X125095000Y-120650000D02*
X123190000Y-122555000D01*
X125095000Y-48260000D02*
X123190000Y-46355000D01*
X123190000Y-65405000D02*
X125095000Y-63500000D01*
X125095000Y-63500000D02*
X125095000Y-48260000D01*
X125095000Y-82550000D02*
X123190000Y-84455000D01*
X123190000Y-65405000D02*
X125095000Y-67310000D01*
X125095000Y-67310000D02*
X125095000Y-82550000D01*
X125095000Y-101600000D02*
X123190000Y-103505000D01*
X123190000Y-84455000D02*
X125095000Y-86360000D01*
X125095000Y-86360000D02*
X125095000Y-101600000D01*
X124917201Y-124282201D02*
X123190000Y-122555000D01*
X155604057Y-124282201D02*
X124917201Y-124282201D01*
X160769673Y-119257791D02*
X160628467Y-119257791D01*
X160628467Y-119257791D02*
X155604057Y-124282201D01*
X160794700Y-119232764D02*
X160769673Y-119257791D01*
X160794700Y-118808500D02*
X160794700Y-119232764D01*
X144145000Y-63500000D02*
X142240000Y-65405000D01*
X142240000Y-46355000D02*
X144145000Y-48260000D01*
X144145000Y-48260000D02*
X144145000Y-63500000D01*
X144145000Y-82550000D02*
X142240000Y-84455000D01*
X142240000Y-65405000D02*
X144145000Y-67310000D01*
X144145000Y-67310000D02*
X144145000Y-82550000D01*
X142240000Y-84455000D02*
X144145000Y-86360000D01*
X144145000Y-86360000D02*
X144145000Y-101600000D01*
X144145000Y-101600000D02*
X142240000Y-103505000D01*
X139700000Y-106045000D02*
X138430000Y-106045000D01*
X142240000Y-103505000D02*
X139700000Y-106045000D01*
X152463500Y-118808500D02*
X154876500Y-118808500D01*
X139700000Y-106045000D02*
X152463500Y-118808500D01*
X159994600Y-118808500D02*
X154876500Y-118808500D01*
X154876500Y-118808500D02*
X153670000Y-118808500D01*
X161290000Y-84455000D02*
X163195000Y-86360000D01*
X161290000Y-65405000D02*
X163195000Y-67310000D01*
X163195000Y-67310000D02*
X163195000Y-82550000D01*
X163195000Y-82550000D02*
X161290000Y-84455000D01*
X163195000Y-48260000D02*
X161290000Y-46355000D01*
X161290000Y-65405000D02*
X163195000Y-63500000D01*
X163195000Y-63500000D02*
X163195000Y-48260000D01*
X163195000Y-100330000D02*
X161290000Y-102235000D01*
X163195000Y-86360000D02*
X163195000Y-100330000D01*
X182245000Y-105410000D02*
X180340000Y-103505000D01*
X180340000Y-122555000D02*
X182245000Y-120650000D01*
X182245000Y-86360000D02*
X180340000Y-84455000D01*
X180340000Y-103505000D02*
X182245000Y-101600000D01*
X182245000Y-101600000D02*
X182245000Y-86360000D01*
X180340000Y-84455000D02*
X182245000Y-82550000D01*
X182245000Y-67310000D02*
X180340000Y-65405000D01*
X182245000Y-82550000D02*
X182245000Y-67310000D01*
X182245000Y-48260000D02*
X180340000Y-46355000D01*
X180340000Y-65405000D02*
X182245000Y-63500000D01*
X182245000Y-63500000D02*
X182245000Y-48260000D01*
X182245000Y-120650000D02*
X182245000Y-116205000D01*
X182245000Y-116205000D02*
X182245000Y-105410000D01*
X163970634Y-110947200D02*
X158826200Y-110947200D01*
X166396333Y-113372899D02*
X163970634Y-110947200D01*
X172377099Y-113372899D02*
X166396333Y-113372899D01*
X182245000Y-116205000D02*
X175209200Y-116205000D01*
X175209200Y-116205000D02*
X172377099Y-113372899D01*
X201295000Y-63500000D02*
X199390000Y-65405000D01*
X199390000Y-46355000D02*
X201295000Y-48260000D01*
X201295000Y-48260000D02*
X201295000Y-63500000D01*
X201295000Y-82550000D02*
X199390000Y-84455000D01*
X199390000Y-65405000D02*
X201295000Y-67310000D01*
X201295000Y-67310000D02*
X201295000Y-82550000D01*
X201295000Y-101600000D02*
X199390000Y-103505000D01*
X199390000Y-84455000D02*
X201295000Y-86360000D01*
X201295000Y-86360000D02*
X201295000Y-101600000D01*
X201295000Y-120650000D02*
X199390000Y-122555000D01*
X199390000Y-103505000D02*
X201295000Y-105410000D01*
X201295000Y-105410000D02*
X201295000Y-120650000D01*
X197967600Y-123977400D02*
X199390000Y-122555000D01*
X176605690Y-123977400D02*
X197967600Y-123977400D01*
X158826200Y-111760000D02*
X164388290Y-111760000D01*
X164388290Y-111760000D02*
X176605690Y-123977400D01*
X218440000Y-122555000D02*
X220345000Y-120650000D01*
X220345000Y-120650000D02*
X220345000Y-105410000D01*
X220345000Y-105410000D02*
X218440000Y-103505000D01*
X220345000Y-86360000D02*
X218440000Y-84455000D01*
X218440000Y-103505000D02*
X220345000Y-101600000D01*
X220345000Y-101600000D02*
X220345000Y-86360000D01*
X220345000Y-67310000D02*
X218440000Y-65405000D01*
X218440000Y-84455000D02*
X220345000Y-82550000D01*
X220345000Y-82550000D02*
X220345000Y-67310000D01*
X220345000Y-48260000D02*
X218440000Y-46355000D01*
X218440000Y-65405000D02*
X220345000Y-63500000D01*
X220345000Y-63500000D02*
X220345000Y-48260000D01*
X158826200Y-112572800D02*
X164805946Y-112572800D01*
X217640001Y-123354999D02*
X218440000Y-122555000D01*
X216738190Y-124256810D02*
X217640001Y-123354999D01*
X176489955Y-124256810D02*
X216738190Y-124256810D01*
X164805946Y-112572800D02*
X176489955Y-124256810D01*
X237490000Y-103505000D02*
X239395000Y-105410000D01*
X239395000Y-105410000D02*
X239395000Y-120650000D01*
X239395000Y-120650000D02*
X237490000Y-122555000D01*
X237490000Y-84455000D02*
X239395000Y-86360000D01*
X239395000Y-86360000D02*
X239395000Y-101600000D01*
X239395000Y-101600000D02*
X237490000Y-103505000D01*
X237490000Y-46355000D02*
X239395000Y-48260000D01*
X239395000Y-63500000D02*
X237490000Y-65405000D01*
X239395000Y-48260000D02*
X239395000Y-63500000D01*
X239395000Y-67310000D02*
X237490000Y-65405000D01*
X237490000Y-84455000D02*
X239395000Y-82550000D01*
X239395000Y-82550000D02*
X239395000Y-67310000D01*
X158826200Y-113360200D02*
X165198202Y-113360200D01*
X235508780Y-124536220D02*
X236690001Y-123354999D01*
X236690001Y-123354999D02*
X237490000Y-122555000D01*
X165198202Y-113360200D02*
X176374220Y-124536220D01*
X176374220Y-124536220D02*
X235508780Y-124536220D01*
X249756799Y-99877537D02*
X249756799Y-98242463D01*
X256540000Y-103505000D02*
X253798201Y-100763201D01*
X250642463Y-100763201D02*
X249756799Y-99877537D01*
X253798201Y-100763201D02*
X250642463Y-100763201D01*
X256540000Y-91459262D02*
X256540000Y-84455000D01*
X249756799Y-98242463D02*
X256540000Y-91459262D01*
X249756799Y-117292463D02*
X256540000Y-110509262D01*
X249756799Y-118927537D02*
X249756799Y-117292463D01*
X256540000Y-122555000D02*
X253798201Y-119813201D01*
X256540000Y-110509262D02*
X256540000Y-103505000D01*
X250642463Y-119813201D02*
X249756799Y-118927537D01*
X253798201Y-119813201D02*
X250642463Y-119813201D01*
X249756799Y-80827537D02*
X249756799Y-79173201D01*
X250642463Y-81713201D02*
X249756799Y-80827537D01*
X256540000Y-84455000D02*
X253798201Y-81713201D01*
X253798201Y-81713201D02*
X250642463Y-81713201D01*
X256540000Y-72390000D02*
X256540000Y-65405000D01*
X249756799Y-79173201D02*
X256540000Y-72390000D01*
X249756799Y-61777537D02*
X249756799Y-60123201D01*
X250642463Y-62663201D02*
X249756799Y-61777537D01*
X256540000Y-65405000D02*
X253798201Y-62663201D01*
X253798201Y-62663201D02*
X250642463Y-62663201D01*
X256540000Y-53340000D02*
X256540000Y-46355000D01*
X249756799Y-60123201D02*
X256540000Y-53340000D01*
X158826200Y-114173000D02*
X165615859Y-114173000D01*
X165615859Y-114173004D02*
X176258485Y-124815630D01*
X165615859Y-114173000D02*
X165615859Y-114173004D01*
X254279370Y-124815630D02*
X256540000Y-122555000D01*
X176258485Y-124815630D02*
X254279370Y-124815630D01*
X148717000Y-106045000D02*
X149479000Y-106045000D01*
X149479000Y-106045000D02*
X151765000Y-108331000D01*
X151765000Y-108331000D02*
X151765000Y-111125000D01*
X151765000Y-111125000D02*
X151765000Y-116205000D01*
X151765000Y-116205000D02*
X151765000Y-116205000D01*
X155575000Y-110490000D02*
X153670000Y-112395000D01*
X153670000Y-112395000D02*
X153670000Y-112395000D01*
X43815000Y-57150000D02*
X43815000Y-101580738D01*
X43815000Y-99675738D02*
X43815000Y-101600000D01*
X43815000Y-101600000D02*
X42545000Y-102870000D01*
X42545000Y-102870000D02*
X38100000Y-102870000D01*
X38100000Y-102870000D02*
X35560000Y-105410000D01*
X35560000Y-105410000D02*
X35560000Y-106680000D01*
X35560000Y-106680000D02*
X35560000Y-106680000D01*
X43815000Y-57150000D02*
X41275000Y-54610000D01*
X41275000Y-54610000D02*
X41275000Y-54610000D01*
X243205000Y-57605000D02*
X245110000Y-55700000D01*
X243205000Y-57605000D02*
X243205000Y-106680000D01*
X67475000Y-30070000D02*
X67700000Y-29845000D01*
X67475000Y-34760000D02*
X67475000Y-30070000D01*
X67075000Y-35460000D02*
X68445000Y-36830000D01*
X72390000Y-31115000D02*
X72390000Y-31115000D01*
X68445000Y-36830000D02*
X71120000Y-36830000D01*
X72390000Y-35560000D02*
X72390000Y-31115000D01*
X71120000Y-36830000D02*
X72390000Y-35560000D01*
X69850000Y-38100000D02*
X71120000Y-36830000D01*
X69850000Y-39370000D02*
X69850000Y-38100000D01*
X57785000Y-120650000D02*
X57785000Y-123825000D01*
X57785000Y-123825000D02*
X57785000Y-123825000D01*
X183515000Y-104775000D02*
X183515000Y-122555000D01*
X183515000Y-122555000D02*
X182880000Y-123190000D01*
X182880000Y-123190000D02*
X182880000Y-123190000D01*
X157608401Y-100763201D02*
X161594800Y-104749600D01*
X148156799Y-38146510D02*
X148156799Y-95528509D01*
X153391491Y-100763201D02*
X157608401Y-100763201D01*
X148156799Y-95528509D02*
X153391491Y-100763201D01*
X140490289Y-30480000D02*
X148156799Y-38146510D01*
X85725000Y-30480000D02*
X140490289Y-30480000D01*
X157087711Y-101042611D02*
X160794700Y-104749600D01*
X147877389Y-95644244D02*
X153275756Y-101042611D01*
X153275756Y-101042611D02*
X157087711Y-101042611D01*
X147877389Y-38262244D02*
X147877389Y-95644244D01*
X85725000Y-31750000D02*
X141365145Y-31750000D01*
X141365145Y-31750000D02*
X147877389Y-38262244D01*
X168894760Y-106898440D02*
X168894760Y-104790240D01*
X168894760Y-104790240D02*
X171450000Y-102235000D01*
X171450000Y-102235000D02*
X175260000Y-102235000D01*
X175260000Y-102235000D02*
X177165000Y-100330000D01*
X177165000Y-100330000D02*
X177165000Y-48895000D01*
X177165000Y-48895000D02*
X177165000Y-48895000D01*
X177165000Y-48895000D02*
X177165000Y-46355000D01*
X177165000Y-46355000D02*
X177165000Y-46355000D01*
X167195500Y-104782620D02*
X167195500Y-69405500D01*
X167195500Y-69405500D02*
X165735000Y-67945000D01*
X165735000Y-67945000D02*
X165735000Y-67945000D01*
X166392860Y-104782620D02*
X166392860Y-87017860D01*
X166392860Y-87017860D02*
X166392860Y-87017860D01*
X157480000Y-105918000D02*
X157480000Y-101830044D01*
X157480000Y-101830044D02*
X156971977Y-101322021D01*
X153160021Y-101322021D02*
X147597979Y-95759979D01*
X156971977Y-101322021D02*
X153160021Y-101322021D01*
X147597979Y-95759979D02*
X147597979Y-79607871D01*
X34925000Y-49530000D02*
X33655000Y-50800000D01*
X33655000Y-50800000D02*
X33655000Y-107950000D01*
X33655000Y-107950000D02*
X34925000Y-109220000D01*
X34925000Y-109220000D02*
X34925000Y-109220000D01*
X146962979Y-47347021D02*
X146050000Y-48260000D01*
X147597979Y-47347021D02*
X146962979Y-47347021D01*
X147597979Y-79607871D02*
X147597979Y-47347021D01*
X155575000Y-116205000D02*
X154305000Y-116205000D01*
X154305000Y-116205000D02*
X153035000Y-114935000D01*
X153035000Y-114935000D02*
X153035000Y-114935000D01*
X147597979Y-38377979D02*
X147597979Y-47347021D01*
X85090000Y-33138000D02*
X142358000Y-33138000D01*
X142358000Y-33138000D02*
X147597979Y-38377979D01*
M02*
