M48
; DRILL file {KiCad 5.1.2} date Do 02 Mai 2019 16:23:52 CEST
; FORMAT={-:-/ absolute / inch / decimal}
; #@! TF.CreationDate,2019-05-02T16:23:52+02:00
; #@! TF.GenerationSoftware,Kicad,Pcbnew,5.1.2
; #@! TF.FileFunction,NonPlated,1,2,NPTH
FMAT,2
INCH
T1C0.0256
T2C0.1181
T3C0.1200
T4C0.1570
%
G90
G05
T1
X2.4833Y-1.4217
T2
X7.4Y-2.5
X7.65Y-2.4
X1.4Y-4.0
X1.65Y-3.9
X1.4Y-1.75
X1.65Y-1.65
X8.9Y-2.5
X9.15Y-2.4
X2.15Y-3.25
X2.4Y-3.15
X7.4Y-4.0
X7.65Y-3.9
X5.15Y-3.25
X5.4Y-3.15
X5.15Y-2.5
X5.4Y-2.4
X8.15Y-1.75
X8.4Y-1.65
X3.65Y-1.75
X3.9Y-1.65
X4.4Y-4.75
X4.65Y-4.65
X1.4Y-3.25
X1.65Y-3.15
X3.65Y-4.75
X3.9Y-4.65
X5.9Y-2.5
X6.15Y-2.4
X6.65Y-3.25
X6.9Y-3.15
X8.15Y-2.5
X8.4Y-2.4
X2.15Y-1.75
X2.4Y-1.65
X8.9Y-4.0
X9.15Y-3.9
X6.65Y-1.75
X6.9Y-1.65
X8.9Y-1.75
X9.15Y-1.65
X4.4Y-4.0
X4.65Y-3.9
X5.15Y-1.75
X5.4Y-1.65
X6.65Y-4.75
X6.9Y-4.65
X4.4Y-1.75
X4.65Y-1.65
X9.65Y-4.0
X9.9Y-3.9
X6.65Y-2.5
X6.9Y-2.4
X2.15Y-4.0
X2.4Y-3.9
X8.15Y-4.0
X8.4Y-3.9
X9.65Y-1.75
X9.9Y-1.65
X7.4Y-4.75
X7.65Y-4.65
X2.15Y-4.75
X2.4Y-4.65
X9.65Y-4.75
X9.9Y-4.65
X2.15Y-2.5
X2.4Y-2.4
X8.9Y-4.75
X9.15Y-4.65
X1.4Y-2.5
X1.65Y-2.4
X5.9Y-1.75
X6.15Y-1.65
X3.65Y-4.0
X3.9Y-3.9
X2.9Y-4.0
X3.15Y-3.9
X9.65Y-2.5
X9.9Y-2.4
X8.15Y-3.25
X8.4Y-3.15
X2.9Y-3.25
X3.15Y-3.15
X3.65Y-3.25
X3.9Y-3.15
X2.9Y-2.5
X3.15Y-2.4
X9.65Y-3.25
X9.9Y-3.15
X4.4Y-2.5
X4.65Y-2.4
X8.9Y-3.25
X9.15Y-3.15
X2.9Y-4.75
X3.15Y-4.65
X7.4Y-1.75
X7.65Y-1.65
X6.65Y-4.0
X6.9Y-3.9
X5.9Y-4.0
X6.15Y-3.9
X1.4Y-4.75
X1.65Y-4.65
X2.9Y-1.75
X3.15Y-1.65
X4.4Y-3.25
X4.65Y-3.15
X8.15Y-4.75
X8.4Y-4.65
X7.4Y-3.25
X7.65Y-3.15
X3.65Y-2.5
X3.9Y-2.4
X5.525Y-4.75
X5.775Y-4.65
X5.9Y-3.25
X6.15Y-3.15
X5.15Y-4.0
X5.4Y-3.9
T3
X5.1565Y-4.825
X6.0935Y-4.825
T4
X7.5Y-4.55
X2.25Y-4.55
X9.75Y-4.55
X2.25Y-2.3
X9.0Y-4.55
X1.5Y-2.3
X6.0Y-1.55
X3.75Y-3.8
X3.0Y-3.8
X9.75Y-2.3
X8.25Y-3.05
X3.0Y-3.05
X3.75Y-3.05
X3.0Y-2.3
X9.75Y-3.05
X4.5Y-2.3
X9.0Y-3.05
X3.0Y-4.55
X7.5Y-1.55
X6.75Y-3.8
X6.0Y-3.8
X5.1565Y-4.225
X6.0935Y-4.225
X1.5Y-4.55
X3.0Y-1.55
X4.5Y-3.05
X8.25Y-4.55
X7.5Y-3.05
X3.75Y-2.3
X5.625Y-4.55
X6.0Y-3.05
X5.25Y-3.8
X7.5Y-2.3
X1.5Y-3.8
X1.5Y-1.55
X9.0Y-2.3
X2.25Y-3.05
X7.5Y-3.8
X5.25Y-3.05
X5.25Y-2.3
X8.25Y-1.55
X3.75Y-1.55
X4.5Y-4.55
X1.5Y-3.05
X3.75Y-4.55
X6.0Y-2.3
X6.75Y-3.05
X8.25Y-2.3
X2.25Y-1.55
X9.0Y-3.8
X6.75Y-1.55
X9.0Y-1.55
X4.5Y-3.8
X5.25Y-1.55
X6.75Y-4.55
X4.5Y-1.55
X9.75Y-3.8
X6.75Y-2.3
X2.25Y-3.8
X8.25Y-3.8
X9.75Y-1.55
T1
G00X2.7608Y-1.4217
M15
G01X2.7726Y-1.4217
M16
G05
T0
M30
