M48
; DRILL file {KiCad 5.1.1} date Mo 22 Apr 2019 18:18:33 CEST
; FORMAT={-:-/ absolute / inch / decimal}
; #@! TF.CreationDate,2019-04-22T18:18:33+02:00
; #@! TF.GenerationSoftware,Kicad,Pcbnew,5.1.1
; #@! TF.FileFunction,Plated,1,2,PTH
FMAT,2
INCH
T1C0.0118
T2C0.0157
T3C0.0197
T4C0.0315
T5C0.0433
%
G90
G05
T1
X1.375Y-1.95
X1.375Y-4.3
X1.4Y-4.2
X1.625Y-2.15
X2.275Y-4.75
X2.275Y-4.875
X2.75Y-1.55
X2.85Y-1.225
X2.875Y-1.425
X3.375Y-1.2
X3.375Y-1.25
X5.75Y-1.9
X5.855Y-4.175
X5.975Y-4.575
X6.025Y-4.525
X6.05Y-4.425
X6.125Y-4.35
X6.125Y-4.575
X6.2Y-4.17
X6.253Y-4.368
X6.253Y-4.4
X6.253Y-4.432
X6.253Y-4.463
X6.253Y-4.495
X6.274Y-4.274
X6.299Y-4.6775
X6.3305Y-4.124
X6.3305Y-4.6775
X6.362Y-4.124
X6.362Y-4.6775
X6.3935Y-4.6775
X6.3935Y-4.2185
X6.425Y-4.6775
X6.4565Y-4.6775
X6.525Y-2.675
X6.5509Y-3.4259
X6.5509Y-4.1253
X6.5825Y-4.3675
X6.5825Y-4.1253
X6.6494Y-4.2086
X6.735Y-4.36
X6.975Y-1.825
X7.2Y-4.85
X7.225Y-4.125
X9.575Y-4.2
X9.65Y-2.1929
T2
X2.5148Y-1.3961
X2.5305Y-1.3685
X2.562Y-1.3685
X2.5778Y-1.3961
X2.5935Y-1.3685
X2.6093Y-1.3961
X2.6407Y-1.3961
X2.6565Y-1.3685
X2.6722Y-1.3961
X2.688Y-1.3685
X2.7195Y-1.3685
X2.7352Y-1.3961
T4
X6.35Y-3.725
X6.35Y-4.025
X8.6Y-2.275
X8.6Y-2.575
X2.6Y-2.275
X2.6Y-2.575
X2.6Y-4.525
X2.6Y-4.825
X7.85Y-3.025
X7.85Y-3.325
X3.35Y-1.525
X3.35Y-1.825
X7.1Y-3.775
X7.1Y-4.075
X8.6Y-3.025
X8.6Y-3.325
X9.35Y-3.025
X9.35Y-3.325
X9.35Y-3.775
X9.35Y-4.075
X10.1Y-2.275
X10.1Y-2.575
X4.1Y-3.775
X4.1Y-4.075
X9.35Y-2.275
X9.35Y-2.575
X4.85Y-1.525
X4.85Y-1.825
X4.1Y-2.275
X4.1Y-2.575
X7.1Y-2.275
X7.1Y-2.575
X4.1Y-4.525
X4.1Y-4.825
X1.85Y-4.525
X1.85Y-4.825
X5.6Y-3.025
X5.6Y-3.325
X3.35Y-3.775
X3.35Y-4.075
X3.35Y-2.275
X3.35Y-2.575
X4.85Y-4.525
X4.85Y-4.825
X6.35Y-2.275
X6.35Y-2.575
X7.85Y-2.275
X7.85Y-2.575
X7.85Y-3.775
X7.85Y-4.075
X2.6Y-3.775
X2.6Y-4.075
X9.35Y-1.525
X9.35Y-1.825
X8.6Y-4.525
X8.6Y-4.825
X10.1Y-3.025
X10.1Y-3.325
X7.1Y-1.525
X7.1Y-1.825
X2.6Y-1.55
X2.6Y-1.85
X3.35Y-3.025
X3.35Y-3.325
X4.1Y-1.525
X4.1Y-1.825
X1.85Y-1.525
X1.85Y-1.825
X8.6Y-1.525
X8.6Y-1.825
X10.1Y-4.525
X10.1Y-4.825
X5.6Y-3.775
X5.6Y-4.075
X4.85Y-3.025
X4.85Y-3.325
X8.6Y-3.775
X8.6Y-4.075
X3.35Y-4.525
X3.35Y-4.825
X10.1Y-1.525
X10.1Y-1.825
X4.85Y-2.275
X4.85Y-2.575
X5.6Y-2.275
X5.6Y-2.575
X6.35Y-3.025
X6.35Y-3.325
X7.1Y-3.025
X7.1Y-3.325
X5.6Y-1.525
X5.6Y-1.825
X1.85Y-3.775
X1.85Y-4.075
X5.45Y-4.175
X5.75Y-4.175
X1.85Y-2.275
X1.85Y-2.575
X2.6Y-3.025
X2.6Y-3.325
X1.85Y-3.025
X1.85Y-3.325
X7.85Y-1.525
X7.85Y-1.825
X7.85Y-4.525
X7.85Y-4.825
X9.35Y-4.525
X9.35Y-4.825
X7.1Y-4.525
X7.1Y-4.825
X10.1Y-3.775
X10.1Y-4.075
X4.85Y-3.775
X4.85Y-4.075
X6.35Y-1.525
X6.35Y-1.825
X4.1Y-3.025
X4.1Y-3.325
T5
X2.1191Y-4.2
X2.1191Y-4.3772
X2.375Y-4.2
X2.375Y-4.3772
T3
G00X2.4482Y-1.1264
M15
G01X2.4482Y-1.15
M16
G05
G00X2.4624Y-1.3606
M15
G01X2.4624Y-1.3843
M16
G05
G00X2.7876Y-1.3606
M15
G01X2.7876Y-1.3843
M16
G05
G00X2.8018Y-1.1264
M15
G01X2.8018Y-1.15
M16
G05
T0
M30
