G04 #@! TF.GenerationSoftware,KiCad,Pcbnew,5.1.1*
G04 #@! TF.CreationDate,2019-04-22T18:18:19+02:00*
G04 #@! TF.ProjectId,pcb,7063622e-6b69-4636-9164-5f7063625858,rev?*
G04 #@! TF.SameCoordinates,Original*
G04 #@! TF.FileFunction,Paste,Top*
G04 #@! TF.FilePolarity,Positive*
%FSLAX46Y46*%
G04 Gerber Fmt 4.6, Leading zero omitted, Abs format (unit mm)*
G04 Created by KiCad (PCBNEW 5.1.1) date 2019-04-22 18:18:19*
%MOMM*%
%LPD*%
G04 APERTURE LIST*
%ADD10C,0.100000*%
%ADD11C,1.150000*%
G04 APERTURE END LIST*
D10*
G36*
X85564505Y-34614204D02*
G01*
X85588773Y-34617804D01*
X85612572Y-34623765D01*
X85635671Y-34632030D01*
X85657850Y-34642520D01*
X85678893Y-34655132D01*
X85698599Y-34669747D01*
X85716777Y-34686223D01*
X85733253Y-34704401D01*
X85747868Y-34724107D01*
X85760480Y-34745150D01*
X85770970Y-34767329D01*
X85779235Y-34790428D01*
X85785196Y-34814227D01*
X85788796Y-34838495D01*
X85790000Y-34862999D01*
X85790000Y-35513001D01*
X85788796Y-35537505D01*
X85785196Y-35561773D01*
X85779235Y-35585572D01*
X85770970Y-35608671D01*
X85760480Y-35630850D01*
X85747868Y-35651893D01*
X85733253Y-35671599D01*
X85716777Y-35689777D01*
X85698599Y-35706253D01*
X85678893Y-35720868D01*
X85657850Y-35733480D01*
X85635671Y-35743970D01*
X85612572Y-35752235D01*
X85588773Y-35758196D01*
X85564505Y-35761796D01*
X85540001Y-35763000D01*
X84639999Y-35763000D01*
X84615495Y-35761796D01*
X84591227Y-35758196D01*
X84567428Y-35752235D01*
X84544329Y-35743970D01*
X84522150Y-35733480D01*
X84501107Y-35720868D01*
X84481401Y-35706253D01*
X84463223Y-35689777D01*
X84446747Y-35671599D01*
X84432132Y-35651893D01*
X84419520Y-35630850D01*
X84409030Y-35608671D01*
X84400765Y-35585572D01*
X84394804Y-35561773D01*
X84391204Y-35537505D01*
X84390000Y-35513001D01*
X84390000Y-34862999D01*
X84391204Y-34838495D01*
X84394804Y-34814227D01*
X84400765Y-34790428D01*
X84409030Y-34767329D01*
X84419520Y-34745150D01*
X84432132Y-34724107D01*
X84446747Y-34704401D01*
X84463223Y-34686223D01*
X84481401Y-34669747D01*
X84501107Y-34655132D01*
X84522150Y-34642520D01*
X84544329Y-34632030D01*
X84567428Y-34623765D01*
X84591227Y-34617804D01*
X84615495Y-34614204D01*
X84639999Y-34613000D01*
X85540001Y-34613000D01*
X85564505Y-34614204D01*
X85564505Y-34614204D01*
G37*
D11*
X85090000Y-35188000D03*
D10*
G36*
X85564505Y-32564204D02*
G01*
X85588773Y-32567804D01*
X85612572Y-32573765D01*
X85635671Y-32582030D01*
X85657850Y-32592520D01*
X85678893Y-32605132D01*
X85698599Y-32619747D01*
X85716777Y-32636223D01*
X85733253Y-32654401D01*
X85747868Y-32674107D01*
X85760480Y-32695150D01*
X85770970Y-32717329D01*
X85779235Y-32740428D01*
X85785196Y-32764227D01*
X85788796Y-32788495D01*
X85790000Y-32812999D01*
X85790000Y-33463001D01*
X85788796Y-33487505D01*
X85785196Y-33511773D01*
X85779235Y-33535572D01*
X85770970Y-33558671D01*
X85760480Y-33580850D01*
X85747868Y-33601893D01*
X85733253Y-33621599D01*
X85716777Y-33639777D01*
X85698599Y-33656253D01*
X85678893Y-33670868D01*
X85657850Y-33683480D01*
X85635671Y-33693970D01*
X85612572Y-33702235D01*
X85588773Y-33708196D01*
X85564505Y-33711796D01*
X85540001Y-33713000D01*
X84639999Y-33713000D01*
X84615495Y-33711796D01*
X84591227Y-33708196D01*
X84567428Y-33702235D01*
X84544329Y-33693970D01*
X84522150Y-33683480D01*
X84501107Y-33670868D01*
X84481401Y-33656253D01*
X84463223Y-33639777D01*
X84446747Y-33621599D01*
X84432132Y-33601893D01*
X84419520Y-33580850D01*
X84409030Y-33558671D01*
X84400765Y-33535572D01*
X84394804Y-33511773D01*
X84391204Y-33487505D01*
X84390000Y-33463001D01*
X84390000Y-32812999D01*
X84391204Y-32788495D01*
X84394804Y-32764227D01*
X84400765Y-32740428D01*
X84409030Y-32717329D01*
X84419520Y-32695150D01*
X84432132Y-32674107D01*
X84446747Y-32654401D01*
X84463223Y-32636223D01*
X84481401Y-32619747D01*
X84501107Y-32605132D01*
X84522150Y-32592520D01*
X84544329Y-32582030D01*
X84567428Y-32573765D01*
X84591227Y-32567804D01*
X84615495Y-32564204D01*
X84639999Y-32563000D01*
X85540001Y-32563000D01*
X85564505Y-32564204D01*
X85564505Y-32564204D01*
G37*
D11*
X85090000Y-33138000D03*
D10*
G36*
X68049505Y-29146204D02*
G01*
X68073773Y-29149804D01*
X68097572Y-29155765D01*
X68120671Y-29164030D01*
X68142850Y-29174520D01*
X68163893Y-29187132D01*
X68183599Y-29201747D01*
X68201777Y-29218223D01*
X68218253Y-29236401D01*
X68232868Y-29256107D01*
X68245480Y-29277150D01*
X68255970Y-29299329D01*
X68264235Y-29322428D01*
X68270196Y-29346227D01*
X68273796Y-29370495D01*
X68275000Y-29394999D01*
X68275000Y-30295001D01*
X68273796Y-30319505D01*
X68270196Y-30343773D01*
X68264235Y-30367572D01*
X68255970Y-30390671D01*
X68245480Y-30412850D01*
X68232868Y-30433893D01*
X68218253Y-30453599D01*
X68201777Y-30471777D01*
X68183599Y-30488253D01*
X68163893Y-30502868D01*
X68142850Y-30515480D01*
X68120671Y-30525970D01*
X68097572Y-30534235D01*
X68073773Y-30540196D01*
X68049505Y-30543796D01*
X68025001Y-30545000D01*
X67374999Y-30545000D01*
X67350495Y-30543796D01*
X67326227Y-30540196D01*
X67302428Y-30534235D01*
X67279329Y-30525970D01*
X67257150Y-30515480D01*
X67236107Y-30502868D01*
X67216401Y-30488253D01*
X67198223Y-30471777D01*
X67181747Y-30453599D01*
X67167132Y-30433893D01*
X67154520Y-30412850D01*
X67144030Y-30390671D01*
X67135765Y-30367572D01*
X67129804Y-30343773D01*
X67126204Y-30319505D01*
X67125000Y-30295001D01*
X67125000Y-29394999D01*
X67126204Y-29370495D01*
X67129804Y-29346227D01*
X67135765Y-29322428D01*
X67144030Y-29299329D01*
X67154520Y-29277150D01*
X67167132Y-29256107D01*
X67181747Y-29236401D01*
X67198223Y-29218223D01*
X67216401Y-29201747D01*
X67236107Y-29187132D01*
X67257150Y-29174520D01*
X67279329Y-29164030D01*
X67302428Y-29155765D01*
X67326227Y-29149804D01*
X67350495Y-29146204D01*
X67374999Y-29145000D01*
X68025001Y-29145000D01*
X68049505Y-29146204D01*
X68049505Y-29146204D01*
G37*
D11*
X67700000Y-29845000D03*
D10*
G36*
X65999505Y-29146204D02*
G01*
X66023773Y-29149804D01*
X66047572Y-29155765D01*
X66070671Y-29164030D01*
X66092850Y-29174520D01*
X66113893Y-29187132D01*
X66133599Y-29201747D01*
X66151777Y-29218223D01*
X66168253Y-29236401D01*
X66182868Y-29256107D01*
X66195480Y-29277150D01*
X66205970Y-29299329D01*
X66214235Y-29322428D01*
X66220196Y-29346227D01*
X66223796Y-29370495D01*
X66225000Y-29394999D01*
X66225000Y-30295001D01*
X66223796Y-30319505D01*
X66220196Y-30343773D01*
X66214235Y-30367572D01*
X66205970Y-30390671D01*
X66195480Y-30412850D01*
X66182868Y-30433893D01*
X66168253Y-30453599D01*
X66151777Y-30471777D01*
X66133599Y-30488253D01*
X66113893Y-30502868D01*
X66092850Y-30515480D01*
X66070671Y-30525970D01*
X66047572Y-30534235D01*
X66023773Y-30540196D01*
X65999505Y-30543796D01*
X65975001Y-30545000D01*
X65324999Y-30545000D01*
X65300495Y-30543796D01*
X65276227Y-30540196D01*
X65252428Y-30534235D01*
X65229329Y-30525970D01*
X65207150Y-30515480D01*
X65186107Y-30502868D01*
X65166401Y-30488253D01*
X65148223Y-30471777D01*
X65131747Y-30453599D01*
X65117132Y-30433893D01*
X65104520Y-30412850D01*
X65094030Y-30390671D01*
X65085765Y-30367572D01*
X65079804Y-30343773D01*
X65076204Y-30319505D01*
X65075000Y-30295001D01*
X65075000Y-29394999D01*
X65076204Y-29370495D01*
X65079804Y-29346227D01*
X65085765Y-29322428D01*
X65094030Y-29299329D01*
X65104520Y-29277150D01*
X65117132Y-29256107D01*
X65131747Y-29236401D01*
X65148223Y-29218223D01*
X65166401Y-29201747D01*
X65186107Y-29187132D01*
X65207150Y-29174520D01*
X65229329Y-29164030D01*
X65252428Y-29155765D01*
X65276227Y-29149804D01*
X65300495Y-29146204D01*
X65324999Y-29145000D01*
X65975001Y-29145000D01*
X65999505Y-29146204D01*
X65999505Y-29146204D01*
G37*
D11*
X65650000Y-29845000D03*
M02*
